<svg width="245" height="122" viewBox="0 0 245 122" fill="none" xmlns="http://www.w3.org/2000/svg">
<path d="M35.9104 88.6925C35.9104 88.6925 35.1132 67.9086 20.7148 62.7375C3.47661 82.5767 23.0564 99.4325 23.0564 99.4325L35.9104 88.7422V88.6925Z" fill="#67B8FA"/>
<path d="M20.7148 62.7375C20.665 62.7872 20.6152 62.8867 20.5155 62.9364L27.5902 86.455L13.6402 80.1403C13.6402 80.2894 13.6402 80.4883 13.6402 80.6375L27.7895 87.0019L29.8321 93.7642L30.2307 93.4658L26.1952 79.9414L31.8748 73.1294C31.7752 72.9803 31.7254 72.8311 31.6257 72.6819L26.0457 79.4442L21.0636 62.8369C20.9639 62.7872 20.8643 62.7872 20.8145 62.7375H20.7148Z" fill="white"/>
<path d="M29.2841 86.2561C29.2841 86.2561 15.6829 70.5439 1.33428 73.7261C-3.7475 90.5322 14.238 99.0347 14.238 99.0347L32.4229 99.9297L29.2841 86.2561Z" fill="#67B8FA"/>
<path d="M17.327 76.7592L16.1811 85.9081L1.68303 73.6764C1.58339 73.6764 1.43392 73.7261 1.33428 73.7261C1.33428 73.7758 1.28446 73.8753 1.28446 73.925L9.0566 80.4883L0.58696 81.7314C0.58696 81.8308 0.586961 81.8806 0.636782 81.98L0.686603 82.1789L9.55482 80.8861L22.5084 91.825L7.71142 94.51C7.86089 94.6592 8.01035 94.7586 8.15982 94.9078L23.0066 92.2228L32.1737 99.9794H32.4727L32.373 99.5319L16.6793 86.3058L17.8252 77.0575C17.6757 76.9581 17.5262 76.9083 17.3768 76.8089L17.327 76.7592Z" fill="#008DFF"/>
<path d="M27.5404 96.0514C27.5404 96.0514 10.6509 91.9244 3.97482 101.471C13.3911 123.299 41.8889 112.907 41.8889 112.907L27.5404 96.0514Z" fill="#043C5E"/>
<path d="M3.97482 101.471C4.02464 101.571 4.02464 101.62 4.07446 101.72L27.2912 105.499L17.7754 114.051C17.9248 114.101 18.1241 114.15 18.2736 114.2L27.8393 105.598L36.9068 107.09L36.4584 106.543L18.8216 103.659L13.0921 95.8028C12.9427 95.8525 12.7932 95.8525 12.5939 95.9022L18.1739 103.559L4.12428 101.272C4.07446 101.322 4.02464 101.421 3.97482 101.471Z" fill="#008DFF"/>
<path d="M210.684 38.0256C210.684 38.0256 218.954 15.6506 235.595 13.2142C247.901 29.2744 232.057 45.6331 232.057 45.6331L212.876 53.9367L210.684 37.9758V38.0256Z" fill="#67B8FA"/>
<path d="M219.652 22.91L224.584 32.2578L235.196 13.2142C235.346 13.2142 235.445 13.1644 235.595 13.1644C235.644 13.2142 235.694 13.3136 235.744 13.3633L230.064 23.5564L239.68 21.4681C239.68 21.5675 239.73 21.6669 239.73 21.7167L239.78 21.9653L229.716 24.1531L220.25 41.1083L237.289 37.9758C237.189 38.1747 237.089 38.3736 236.99 38.5725L219.951 41.705L213.225 53.7378L212.876 53.8869L212.826 53.3897L224.335 32.8047L219.353 23.3078C219.502 23.1586 219.602 23.0094 219.751 22.8603L219.652 22.91Z" fill="#008DFF"/>
<path d="M216.513 47.8208C216.513 47.8208 233.004 36.5836 244.064 44.0917C242.819 71.3892 207.944 71.7372 207.944 71.7372L216.513 47.7711V47.8208Z" fill="#67B8FA"/>
<path d="M244.064 44.1414C244.064 44.2408 244.064 44.3403 244.064 44.4397L220.648 57.9144L234.349 63.2845C234.2 63.4336 234 63.5331 233.851 63.6822L220.05 58.3122L210.883 63.5828L211.132 62.8369L228.968 52.5942L231.908 41.8044C232.107 41.8044 232.306 41.7547 232.456 41.7547L229.566 52.2461L243.765 44.0917C243.865 44.1414 243.915 44.1911 244.014 44.2408L244.064 44.1414Z" fill="white"/>
<path d="M25.398 117.631H219.253C219.253 117.631 225.182 7.2475 200.221 5.80556C183.133 4.81111 174.264 38.5725 165.795 55.4781C161.859 63.3839 150.749 63.9308 146.016 56.4725C140.087 47.1744 136.002 28.4789 123.596 28.4789C105.461 28.4789 99.5323 75.9139 89.6179 92.8692C84.4364 101.769 73.8743 102.068 68.2445 93.4161C61.3193 82.7756 61.1698 47.4728 42.138 50.4561C26.1454 52.9422 25.4479 117.581 25.4479 117.581L25.398 117.631Z" fill="#67B8FA"/>
<path d="M183.93 3.51834L181.239 8.68945L181.638 8.88833L184.328 3.71723L183.93 3.51834Z" fill="#67B8FA"/>
<path d="M179.595 0.336113L179.346 0.684169L184.229 3.86639L184.478 3.51834L179.595 0.336113Z" fill="#67B8FA"/>
<path d="M81.6963 77.4056L81.2977 77.2564C81.497 76.7094 81.8457 75.9139 82.2941 74.8697L82.6927 75.0189C82.2443 76.0631 81.8955 76.8586 81.6963 77.4056ZM80.2514 76.5603C79.9525 75.9636 79.6037 75.1681 79.1554 74.2233L79.5539 74.0244C80.0023 74.9194 80.4009 75.715 80.65 76.3614L80.2514 76.5603ZM83.6891 72.6819L83.2905 72.5328C83.5895 71.7869 83.9382 71.0411 84.3368 70.1958L84.7354 70.3947C84.3866 71.24 84.0379 72.0356 83.6891 72.7317V72.6819ZM78.0095 71.9361C77.6607 71.24 77.2621 70.4444 76.8137 69.6489L77.2123 69.45C77.6607 70.2456 78.0593 70.9914 78.408 71.7372L78.0095 71.9361ZM85.7816 67.9583L85.383 67.7595C85.7318 67.0136 86.0805 66.2181 86.4791 65.4225L86.8777 65.6214C86.5289 66.4169 86.1304 67.2125 85.7816 67.9583ZM75.5682 67.4114C75.1696 66.6656 74.7212 65.9694 74.2729 65.1739L74.6216 64.975C75.07 65.7208 75.5184 66.4667 75.917 67.2125L75.5184 67.4114H75.5682ZM87.9737 63.3342L87.5752 63.1353C87.9239 62.3894 88.3225 61.5939 88.6713 60.7983L89.0698 60.9972C88.6712 61.7928 88.3225 62.5386 87.9737 63.3342ZM72.9775 62.9861C72.5291 62.29 72.0807 61.5442 71.6323 60.7983L71.9811 60.5497C72.4295 61.2458 72.8779 61.9917 73.3761 62.7375L73.0273 62.9364L72.9775 62.9861ZM90.2157 58.71L89.8171 58.5111C90.2157 57.7653 90.5645 56.9697 90.963 56.2239L91.3616 56.4228C90.963 57.2183 90.5645 57.9642 90.2157 58.71ZM70.1875 58.71C69.6893 58.0139 69.1911 57.2681 68.6929 56.6217L69.0416 56.3731C69.5398 57.0692 70.038 57.7653 70.5362 58.4614L70.1875 58.71ZM67.1982 54.5333C66.6502 53.8372 66.152 53.1908 65.6039 52.5444L65.9527 52.2958C66.5007 52.9422 67.0487 53.5886 67.547 54.2847L67.1982 54.5333ZM92.5573 54.1356L92.1588 53.9367C92.5573 53.1908 92.9559 52.445 93.3545 51.6494L93.753 51.8483C93.3545 52.5942 92.9559 53.34 92.5573 54.1356ZM63.91 50.6053C63.3121 49.9589 62.7143 49.3125 62.1662 48.7656L62.4652 48.4672C63.063 49.0639 63.6609 49.7103 64.2588 50.3567L63.9598 50.655L63.91 50.6053ZM94.9986 49.6108L94.6 49.4119C94.9986 48.6661 95.447 47.9203 95.8455 47.1744L96.2441 47.3733C95.7957 48.1192 95.3971 48.865 94.9986 49.6108ZM60.3229 46.9756C59.6752 46.3789 59.0275 45.8319 58.3798 45.3347L58.6289 44.9867C59.2766 45.4839 59.9741 46.0308 60.6218 46.6275L60.3229 46.9258V46.9756ZM97.5395 45.1358L97.1907 44.9369C97.6391 44.1911 98.0377 43.4453 98.4861 42.6994L98.8348 42.8983C98.3864 43.6442 97.938 44.39 97.5395 45.0861V45.1358ZM56.2873 43.8928C55.54 43.4453 54.7927 42.9978 54.0454 42.6497L54.2446 42.2519C54.992 42.6 55.7393 43.0475 56.5364 43.495L56.2873 43.8431V43.8928ZM156.478 42.2022C156.379 41.9039 156.08 41.0586 155.532 39.8156L155.93 39.6664C156.478 40.9095 156.777 41.7547 156.877 42.0531L156.478 42.2022ZM51.7037 41.7547C50.8568 41.5061 50.0596 41.3569 49.2625 41.2575L49.3123 40.8597C50.1593 40.9592 51.0062 41.1083 51.8532 41.3569L51.7037 41.7547ZM100.18 40.7603L99.8312 40.5614C100.28 39.8156 100.728 39.1194 101.226 38.3736L101.575 38.6222C101.127 39.3183 100.678 40.0642 100.18 40.81V40.7603ZM157.724 39.9647L157.325 39.8156C157.574 39.1194 157.873 38.3239 158.222 37.3792L158.621 37.5283C158.272 38.4233 157.973 39.2686 157.724 39.9647ZM154.485 37.5283C154.137 36.7825 153.738 35.9869 153.29 35.2411L153.688 35.0422C154.087 35.7881 154.485 36.5836 154.884 37.3294L154.485 37.5283ZM103.02 36.4345L102.671 36.1858C103.169 35.4897 103.618 34.7439 104.116 34.0478L104.465 34.2964C103.966 34.9925 103.468 35.6886 103.02 36.4345ZM159.567 35.1417L159.169 34.9925C159.468 34.2467 159.766 33.4511 160.115 32.6058L160.514 32.755C160.165 33.6003 159.866 34.3958 159.567 35.1417ZM152.094 33.0533C151.646 32.3075 151.197 31.6114 150.699 30.9153L151.048 30.6667C151.546 31.3628 151.994 32.1086 152.443 32.8544L152.094 33.1031V33.0533ZM106.009 32.2578L105.66 32.0092C106.159 31.3131 106.707 30.6169 107.205 29.9706L107.554 30.2192C107.055 30.8656 106.507 31.5617 106.009 32.2578ZM161.56 30.4181L161.161 30.2689C161.51 29.5231 161.859 28.7275 162.208 27.9319L162.606 28.1308C162.258 28.9264 161.909 29.7219 161.56 30.4678V30.4181ZM149.204 28.8269C148.706 28.1308 148.158 27.4844 147.61 26.8381L147.959 26.5397C148.507 27.1861 149.055 27.8325 149.603 28.5286L149.254 28.7772L149.204 28.8269ZM109.198 28.2303L108.849 27.9817C109.397 27.2856 109.995 26.6392 110.543 26.0425L110.842 26.3408C110.294 26.9375 109.746 27.6336 109.148 28.28L109.198 28.2303ZM163.752 25.7442L163.354 25.5453C163.752 24.7497 164.151 24.0039 164.499 23.2581L164.898 23.4569C164.499 24.2028 164.101 24.9486 163.752 25.7442ZM145.916 24.9486C145.318 24.3519 144.671 23.7553 144.073 23.2083L144.372 22.91C145.019 23.4569 145.617 24.0536 146.265 24.7L145.966 24.9983L145.916 24.9486ZM112.635 24.4017L112.336 24.1033C112.934 23.4569 113.582 22.8603 114.18 22.3133L114.479 22.6117C113.881 23.1586 113.233 23.7553 112.635 24.4017ZM142.03 21.5675C141.333 21.0703 140.635 20.5731 139.938 20.1256L140.187 19.7775C140.884 20.225 141.631 20.7222 142.329 21.2194L142.08 21.5675H142.03ZM166.094 21.1697L165.695 20.9708C166.144 20.225 166.542 19.4294 166.991 18.7333L167.339 18.9322C166.941 19.6283 166.492 20.3742 166.044 21.1697H166.094ZM116.422 20.9708L116.173 20.6228C116.87 20.0758 117.568 19.5289 118.265 19.0814L118.514 19.4294C117.867 19.8769 117.169 20.3742 116.472 20.9211L116.422 20.9708ZM137.696 18.9322C136.948 18.5344 136.151 18.2361 135.354 17.9378L135.503 17.54C136.301 17.8383 137.098 18.1864 137.895 18.5344L137.696 18.9322ZM120.657 18.1367L120.457 17.7389C121.254 17.3411 122.052 16.9931 122.849 16.6947L122.998 17.0925C122.251 17.3411 121.454 17.6892 120.706 18.0869L120.657 18.1367ZM132.963 17.1422C132.165 16.9433 131.318 16.7444 130.471 16.645L130.521 16.2472C131.368 16.3467 132.215 16.5456 133.062 16.7444L132.963 17.1422ZM168.734 16.7444L168.386 16.4958C168.884 15.75 169.332 15.0539 169.83 14.3578L170.179 14.6064C169.681 15.2528 169.232 15.9986 168.734 16.7444ZM125.39 16.4958L125.34 16.0981C126.237 15.9489 127.084 15.9489 127.931 15.9986V16.4461C127.133 16.3964 126.286 16.3964 125.39 16.5456V16.4958ZM171.724 12.5678L171.375 12.3192C171.923 11.6231 172.471 10.9767 173.019 10.3303L173.318 10.6286C172.77 11.2253 172.222 11.8717 171.674 12.5678H171.724ZM175.161 8.78889L174.862 8.49056C175.51 7.89389 176.158 7.29723 176.855 6.8L177.104 7.14806C176.457 7.64528 175.809 8.19223 175.161 8.78889ZM179.197 5.75584L178.997 5.40778C179.795 4.96028 180.592 4.61223 181.339 4.31389L181.489 4.71167C180.741 4.96028 179.944 5.30834 179.197 5.75584Z" fill="#67B8FA"/>
<path d="M36.3587 111.416H20.5654V117.979H36.3587V111.416Z" fill="#F7A605"/>
<path d="M58.5791 111.416H45.7252V117.979H58.5791V111.416Z" fill="#FFD247"/>
<path d="M48.7145 111.416H36.4086V117.979H48.7145V111.416Z" fill="#FCBC00"/>
<path d="M58.8282 118.178H20.3162V111.117H58.8282V118.178ZM20.8145 117.681H58.33V111.664H20.8145V117.681Z" fill="#F49742"/>
<path d="M40.6932 104.852H24.8998V111.366H40.6932V104.852Z" fill="#F7A605"/>
<path d="M62.8637 104.852H50.0098V111.366H62.8637V104.852Z" fill="#FFD247"/>
<path d="M52.9991 104.852H40.6932V111.366H52.9991V104.852Z" fill="#FCBC00"/>
<path d="M63.1129 111.664H24.6009V104.604H63.1129V111.664ZM25.0991 111.167H62.6146V105.151H25.0991V111.167Z" fill="#F49742"/>
<path d="M33.22 98.3386H17.4266V104.852H33.22V98.3386Z" fill="#F7A605"/>
<path d="M55.4404 98.3386H42.5864V104.852H55.4404V98.3386Z" fill="#FFD247"/>
<path d="M45.5259 98.3386H33.22V104.852H45.5259V98.3386Z" fill="#FCBC00"/>
<path d="M55.6895 105.101H17.1775V98.0403H55.6895V105.101ZM17.6757 104.604H55.1912V98.5872H17.6757V104.604Z" fill="#F49742"/>
<path d="M35.9602 91.7753H20.1668V98.2889H35.9602V91.7753Z" fill="#F7A605"/>
<path d="M58.1307 91.7753H45.2768V98.2889H58.1307V91.7753Z" fill="#FFD247"/>
<path d="M48.2661 91.7753H35.9602V98.2889H48.2661V91.7753Z" fill="#FCBC00"/>
<path d="M58.4296 98.5872H19.9177V91.5267H58.4296V98.5872ZM20.4159 98.09H57.9314V92.0736H20.4159V98.09Z" fill="#F49742"/>
<path d="M89.5182 111.416H73.7248V117.979H89.5182V111.416Z" fill="#F7A605"/>
<path d="M111.689 111.416H98.8348V117.979H111.689V111.416Z" fill="#FFD247"/>
<path d="M101.824 111.416H89.5182V117.979H101.824V111.416Z" fill="#FCBC00"/>
<path d="M111.938 118.178H73.4259V111.117H111.938V118.178ZM73.9241 117.681H111.44V111.664H73.9241V117.681Z" fill="#F49742"/>
<path d="M93.8029 104.852H78.0095V111.366H93.8029V104.852Z" fill="#F7A605"/>
<path d="M115.973 104.852H103.119V111.366H115.973V104.852Z" fill="#FFD247"/>
<path d="M106.109 104.852H93.8028V111.366H106.109V104.852Z" fill="#FCBC00"/>
<path d="M116.222 111.664H77.7105V104.604H116.222V111.664ZM78.2087 111.167H115.724V105.151H78.2087V111.167Z" fill="#F49742"/>
<path d="M86.3296 98.3386H70.5362V104.852H86.3296V98.3386Z" fill="#F7A605"/>
<path d="M108.55 98.3386H95.6961V104.852H108.55V98.3386Z" fill="#FFD247"/>
<path d="M98.6355 98.3386H86.3296V104.852H98.6355V98.3386Z" fill="#FCBC00"/>
<path d="M108.799 105.101H70.2871V98.0403H108.799V105.101ZM70.7854 104.604H108.301V98.5872H70.7854V104.604Z" fill="#F49742"/>
<path d="M89.0698 91.7753H73.2764V98.2889H89.0698V91.7753Z" fill="#F7A605"/>
<path d="M111.29 91.7753H98.4362V98.2889H111.29V91.7753Z" fill="#FFD247"/>
<path d="M101.376 91.7753H89.0698V98.2889H101.376V91.7753Z" fill="#FCBC00"/>
<path d="M111.539 98.5872H73.0273V91.5267H111.539V98.5872ZM73.5255 98.09H111.041V92.0736H73.5255V98.09Z" fill="#F49742"/>
<path d="M92.4577 85.2617H76.6643V91.7753H92.4577V85.2617Z" fill="#F7A605"/>
<path d="M114.678 85.2617H101.824V91.7753H114.678V85.2617Z" fill="#FFD247"/>
<path d="M104.764 85.2617H92.4577V91.7753H104.764V85.2617Z" fill="#FCBC00"/>
<path d="M114.927 92.0239H76.4152V84.9633H114.927V92.0239ZM76.9134 91.5267H114.429V85.5103H76.9134V91.5267Z" fill="#F49742"/>
<path d="M89.5182 79.2453H73.7248V85.7589H89.5182V79.2453Z" fill="#F7A605"/>
<path d="M111.689 79.2453H98.8348V85.7589H111.689V79.2453Z" fill="#FFD247"/>
<path d="M101.824 79.2453H89.5182V85.7589H101.824V79.2453Z" fill="#FCBC00"/>
<path d="M111.938 86.0572H73.4259V78.9967H111.938V86.0572ZM73.9241 85.56H111.44V79.5436H73.9241V85.56Z" fill="#F49742"/>
<path d="M93.8029 72.7317H78.0095V79.2453H93.8029V72.7317Z" fill="#F7A605"/>
<path d="M115.973 72.7317H103.119V79.2453H115.973V72.7317Z" fill="#FFD247"/>
<path d="M106.109 72.7317H93.8028V79.2453H106.109V72.7317Z" fill="#FCBC00"/>
<path d="M116.222 79.4939H77.7105V72.4333H116.222V79.4939ZM78.2087 78.9967H115.724V72.9803H78.2087V78.9967Z" fill="#F49742"/>
<path d="M143.076 111.416H127.283V117.979H143.076V111.416Z" fill="#F7A605"/>
<path d="M165.297 111.416H152.443V117.979H165.297V111.416Z" fill="#FFD247"/>
<path d="M155.432 111.416H143.126V117.979H155.432V111.416Z" fill="#FCBC00"/>
<path d="M165.546 118.178H127.034V111.117H165.546V118.178ZM127.532 117.681H165.047V111.664H127.532V117.681Z" fill="#F49742"/>
<path d="M147.411 104.852H131.617V111.366H147.411V104.852Z" fill="#F7A605"/>
<path d="M169.581 104.852H156.727V111.366H169.581V104.852Z" fill="#FFD247"/>
<path d="M159.717 104.852H147.411V111.366H159.717V104.852Z" fill="#FCBC00"/>
<path d="M169.83 111.664H131.318V104.604H169.83V111.664ZM131.817 111.167H169.332V105.151H131.817V111.167Z" fill="#F49742"/>
<path d="M139.937 98.3386H124.144V104.852H139.937V98.3386Z" fill="#F7A605"/>
<path d="M162.158 98.3386H149.304V104.852H162.158V98.3386Z" fill="#FFD247"/>
<path d="M152.243 98.3386H139.937V104.852H152.243V98.3386Z" fill="#FCBC00"/>
<path d="M162.407 105.101H123.895V98.0403H162.407V105.101ZM124.393 104.604H161.909V98.5872H124.393V104.604Z" fill="#F49742"/>
<path d="M142.678 91.7753H126.884V98.2889H142.678V91.7753Z" fill="#F7A605"/>
<path d="M164.848 91.7753H151.994V98.2889H164.848V91.7753Z" fill="#FFD247"/>
<path d="M154.984 91.7753H142.678V98.2889H154.984V91.7753Z" fill="#FCBC00"/>
<path d="M165.147 98.5872H126.635V91.5267H165.147V98.5872ZM127.133 98.09H164.649V92.0736H127.133V98.09Z" fill="#F49742"/>
<path d="M146.066 85.2617H130.272V91.7753H146.066V85.2617Z" fill="#F7A605"/>
<path d="M168.236 85.2617H155.382V91.7753H168.236V85.2617Z" fill="#FFD247"/>
<path d="M158.371 85.2617H146.066V91.7753H158.371V85.2617Z" fill="#FCBC00"/>
<path d="M168.535 92.0239H130.023V84.9633H168.535V92.0239ZM130.521 91.5267H168.037V85.5103H130.521V91.5267Z" fill="#F49742"/>
<path d="M143.076 79.2453H127.283V85.7589H143.076V79.2453Z" fill="#F7A605"/>
<path d="M165.297 79.2453H152.443V85.7589H165.297V79.2453Z" fill="#FFD247"/>
<path d="M155.432 79.2453H143.126V85.7589H155.432V79.2453Z" fill="#FCBC00"/>
<path d="M165.546 86.0572H127.034V78.9967H165.546V86.0572ZM127.532 85.56H165.047V79.5436H127.532V85.56Z" fill="#F49742"/>
<path d="M147.411 72.7317H131.617V79.2453H147.411V72.7317Z" fill="#F7A605"/>
<path d="M169.581 72.7317H156.727V79.2453H169.581V72.7317Z" fill="#FFD247"/>
<path d="M159.717 72.7317H147.411V79.2453H159.717V72.7317Z" fill="#FCBC00"/>
<path d="M169.83 79.4939H131.318V72.4333H169.83V79.4939ZM131.817 78.9967H169.332V72.9803H131.817V78.9967Z" fill="#F49742"/>
<path d="M144.073 65.9694H128.279V72.4831H144.073V65.9694Z" fill="#F7A605"/>
<path d="M166.293 65.9694H153.439V72.4831H166.293V65.9694Z" fill="#FFD247"/>
<path d="M156.379 65.9694H144.073V72.4831H156.379V65.9694Z" fill="#FCBC00"/>
<path d="M166.542 72.7814H128.03V65.7208H166.542V72.7814ZM128.528 72.2842H166.044V66.2678H128.528V72.2842Z" fill="#F49742"/>
<path d="M148.357 59.4061H132.564V65.9197H148.357V59.4061Z" fill="#F7A605"/>
<path d="M170.578 59.4061H157.724V65.9197H170.578V59.4061Z" fill="#FFD247"/>
<path d="M160.663 59.4061H148.357V65.9197H160.663V59.4061Z" fill="#FCBC00"/>
<path d="M170.827 66.2181H132.315V59.1575H170.827V66.2181ZM132.813 65.7208H170.329V59.7044H132.813V65.7208Z" fill="#F49742"/>
<path d="M140.934 52.8925H125.141V59.4061H140.934V52.8925Z" fill="#F7A605"/>
<path d="M163.104 52.8925H150.251V59.4061H163.104V52.8925Z" fill="#FFD247"/>
<path d="M153.24 52.8925H140.934V59.4061H153.24V52.8925Z" fill="#FCBC00"/>
<path d="M163.403 59.7044H124.891V52.6439H163.403V59.7044ZM125.39 59.2072H162.905V53.1908H125.39V59.2072Z" fill="#F49742"/>
<path d="M143.674 46.3292H127.881V52.8925H143.674V46.3292Z" fill="#F7A605"/>
<path d="M165.845 46.3292H152.991V52.8925H165.845V46.3292Z" fill="#FFD247"/>
<path d="M155.98 46.3292H143.674V52.8925H155.98V46.3292Z" fill="#FCBC00"/>
<path d="M166.094 53.1411H127.582V46.0806H166.094V53.1411ZM128.08 52.6439H165.596V46.6275H128.08V52.6439Z" fill="#F49742"/>
<path d="M199.076 111.416H183.282V117.979H199.076V111.416Z" fill="#F7A605"/>
<path d="M221.246 111.416H208.392V117.979H221.246V111.416Z" fill="#FFD247"/>
<path d="M211.381 111.416H199.076V117.979H211.381V111.416Z" fill="#FCBC00"/>
<path d="M221.495 118.178H182.983V111.117H221.495V118.178ZM183.481 117.681H220.997V111.664H183.481V117.681Z" fill="#F49742"/>
<path d="M203.36 104.852H187.567V111.366H203.36V104.852Z" fill="#F7A605"/>
<path d="M225.581 104.852H212.727V111.366H225.581V104.852Z" fill="#FFD247"/>
<path d="M215.666 104.852H203.36V111.366H215.666V104.852Z" fill="#FCBC00"/>
<path d="M225.83 111.664H187.318V104.604H225.83V111.664ZM187.816 111.167H225.331V105.151H187.816V111.167Z" fill="#F49742"/>
<path d="M206.499 98.3386H190.706V104.852H206.499V98.3386Z" fill="#F7A605"/>
<path d="M228.719 98.3386H215.865V104.852H228.719V98.3386Z" fill="#FFD247"/>
<path d="M218.805 98.3386H206.499V104.852H218.805V98.3386Z" fill="#FCBC00"/>
<path d="M228.968 105.101H190.456V98.0403H228.968V105.101ZM190.955 104.604H228.47V98.5872H190.955V104.604Z" fill="#F49742"/>
<path d="M198.627 91.7753H182.834V98.2889H198.627V91.7753Z" fill="#F7A605"/>
<path d="M220.847 91.7753H207.994V98.2889H220.847V91.7753Z" fill="#FFD247"/>
<path d="M210.933 91.7753H198.627V98.2889H210.933V91.7753Z" fill="#FCBC00"/>
<path d="M221.097 98.5872H182.585V91.5267H221.097V98.5872ZM183.083 98.09H220.598V92.0736H183.083V98.09Z" fill="#F49742"/>
<path d="M202.015 85.2617H186.222V91.7753H202.015V85.2617Z" fill="#F7A605"/>
<path d="M224.235 85.2617H211.381V91.7753H224.235V85.2617Z" fill="#FFD247"/>
<path d="M214.321 85.2617H202.015V91.7753H214.321V85.2617Z" fill="#FCBC00"/>
<path d="M224.484 92.0239H185.972V84.9633H224.484V92.0239ZM186.471 91.5267H223.986V85.5103H186.471V91.5267Z" fill="#F49742"/>
<path d="M199.076 79.2453H183.282V85.7589H199.076V79.2453Z" fill="#F7A605"/>
<path d="M221.246 79.2453H208.392V85.7589H221.246V79.2453Z" fill="#FFD247"/>
<path d="M211.381 79.2453H199.076V85.7589H211.381V79.2453Z" fill="#FCBC00"/>
<path d="M221.495 86.0572H182.983V78.9967H221.495V86.0572ZM183.481 85.56H220.997V79.5436H183.481V85.56Z" fill="#F49742"/>
<path d="M203.36 72.7317H187.567V79.2453H203.36V72.7317Z" fill="#F7A605"/>
<path d="M225.581 72.7317H212.727V79.2453H225.581V72.7317Z" fill="#FFD247"/>
<path d="M215.666 72.7317H203.36V79.2453H215.666V72.7317Z" fill="#FCBC00"/>
<path d="M225.83 79.4939H187.318V72.4333H225.83V79.4939ZM187.816 78.9967H225.331V72.9803H187.816V78.9967Z" fill="#F49742"/>
<path d="M200.072 65.9694H184.279V72.4831H200.072V65.9694Z" fill="#F7A605"/>
<path d="M222.242 65.9694H209.389V72.4831H222.242V65.9694Z" fill="#FFD247"/>
<path d="M212.378 65.9694H200.072V72.4831H212.378V65.9694Z" fill="#FCBC00"/>
<path d="M222.492 72.7814H183.98V65.7208H222.492V72.7814ZM184.478 72.2842H221.993V66.2678H184.478V72.2842Z" fill="#F49742"/>
<path d="M204.357 59.4061H188.563V65.9197H204.357V59.4061Z" fill="#F7A605"/>
<path d="M226.527 59.4061H213.673V65.9197H226.527V59.4061Z" fill="#FFD247"/>
<path d="M216.662 59.4061H204.357V65.9197H216.662V59.4061Z" fill="#FCBC00"/>
<path d="M226.776 66.2181H188.264V59.1575H226.776V66.2181ZM188.762 65.7208H226.278V59.7044H188.762V65.7208Z" fill="#F49742"/>
<path d="M198.527 52.8925H182.734V59.4061H198.527V52.8925Z" fill="#F7A605"/>
<path d="M220.748 52.8925H207.894V59.4061H220.748V52.8925Z" fill="#FFD247"/>
<path d="M210.833 52.8925H198.528V59.4061H210.833V52.8925Z" fill="#FCBC00"/>
<path d="M220.997 59.7044H182.485V52.6439H220.997V59.7044ZM182.983 59.2072H220.499V53.1908H182.983V59.2072Z" fill="#F49742"/>
<path d="M199.624 46.3292H183.83V52.8925H199.624V46.3292Z" fill="#F7A605"/>
<path d="M221.794 46.3292H208.94V52.8925H221.794V46.3292Z" fill="#FFD247"/>
<path d="M211.929 46.3292H199.624V52.8925H211.929V46.3292Z" fill="#FCBC00"/>
<path d="M222.093 53.1411H183.581V46.0806H222.093V53.1411ZM184.079 52.6439H221.595V46.6275H184.079V52.6439Z" fill="#F49742"/>
<path d="M204.357 39.5172H188.563V46.0308H204.357V39.5172Z" fill="#F7A605"/>
<path d="M226.527 39.5172H213.673V46.0308H226.527V39.5172Z" fill="#FFD247"/>
<path d="M216.662 39.5172H204.357V46.0308H216.662V39.5172Z" fill="#FCBC00"/>
<path d="M226.776 46.3292H188.264V39.2686H226.776V46.3292ZM188.762 45.8319H226.278V39.8156H188.762V45.8319Z" fill="#F49742"/>
<path d="M196.883 33.0036H181.09V39.5172H196.883V33.0036Z" fill="#F7A605"/>
<path d="M219.104 33.0036H206.25V39.5172H219.104V33.0036Z" fill="#FFD247"/>
<path d="M209.189 33.0036H196.883V39.5172H209.189V33.0036Z" fill="#FCBC00"/>
<path d="M219.353 39.7658H180.841V32.7053H219.353V39.7658ZM181.339 39.2686H218.855V33.2522H181.339V39.2686Z" fill="#F49742"/>
<path d="M199.624 26.4403H183.83V33.0036H199.624V26.4403Z" fill="#F7A605"/>
<path d="M221.794 26.4403H208.94V33.0036H221.794V26.4403Z" fill="#FFD247"/>
<path d="M211.929 26.4403H199.624V33.0036H211.929V26.4403Z" fill="#FCBC00"/>
<path d="M222.093 33.2522H183.581V26.1917H222.093V33.2522ZM184.079 32.755H221.595V26.7386H184.079V32.755Z" fill="#F49742"/>
<path d="M194.641 121.161L174.165 57.6658H175.311L195.787 121.161H194.641Z" fill="#67B8FA"/>
<path d="M184.029 121.161L163.553 57.6658H164.699L185.175 121.161H184.029Z" fill="#67B8FA"/>
<path d="M180.592 74.1736V75.1183H169.631L169.432 74.1736H180.592Z" fill="#67B8FA"/>
<path d="M178.35 68.0081V68.9528H167.389L167.19 68.0081H178.35Z" fill="#67B8FA"/>
<path d="M176.457 61.8425V62.7872H165.496L165.297 61.8425H176.457Z" fill="#67B8FA"/>
<path d="M182.634 80.3889V81.3336H171.674L171.474 80.3889H182.634Z" fill="#67B8FA"/>
<path d="M184.478 86.6042V87.5489H173.517L173.318 86.6042H184.478Z" fill="#67B8FA"/>
<path d="M186.421 93.1178L186.869 94.0625H175.909L175.709 93.1178H186.421Z" fill="#67B8FA"/>
<path d="M188.464 99.5817L188.912 100.526H177.951L177.752 99.5817H188.464Z" fill="#67B8FA"/>
<path d="M190.407 105.896L190.855 106.841H179.894L179.695 105.896H190.407Z" fill="#67B8FA"/>
<path d="M192.001 112.36L192.449 113.305H181.489L181.289 112.36H192.001Z" fill="#67B8FA"/>
<path d="M38.4014 85.1125L37.8534 87.8472L36.4086 85.4108L37.1061 84.2672L38.3516 85.1622L38.4014 85.1125Z" fill="#4C3030"/>
<path d="M41.3409 118.576C41.3409 118.576 40.743 118.874 40.8427 119.421C40.9423 119.968 41.0918 120.763 41.0918 120.763H41.4405V120.167C41.4405 120.117 41.5402 120.067 41.59 120.117L42.2875 120.614C42.437 120.714 42.6362 120.813 42.8355 120.813H45.6754C45.6754 120.813 45.6754 119.918 43.9814 119.669C42.3373 119.421 41.2911 118.625 41.2911 118.625L41.3409 118.576Z" fill="#212B53"/>
<path d="M42.1879 117.581L42.5366 118.625C42.6362 118.824 42.7857 119.023 42.985 119.172C43.1843 119.321 43.533 119.471 44.0312 119.62C43.3836 120.167 42.437 119.62 41.8391 119.222C41.5402 119.023 41.3907 118.725 41.2911 118.426L41.0918 117.581H42.1879Z" fill="#4C3030"/>
<path d="M28.3375 117.78C28.3375 117.78 27.64 117.83 27.5404 118.377C27.4407 118.924 27.2414 119.719 27.2414 119.719L27.5902 119.868L27.8393 119.321C27.8891 119.272 27.9887 119.272 27.9887 119.321L28.4371 119.868C28.5368 120.017 29.1346 120.763 29.2841 120.813H32.2236C32.2236 120.813 32.1239 120.067 30.3802 119.819C28.7361 119.57 28.3375 117.83 28.3375 117.83V117.78Z" fill="#212B53"/>
<path d="M29.5332 117.183L29.4834 118.277C29.4834 118.526 29.5332 118.725 29.6827 118.924C29.8321 119.123 30.0813 119.421 30.4798 119.769C29.6827 120.018 28.9852 119.172 28.6364 118.576C28.4371 118.277 28.3873 117.979 28.4371 117.631L28.5866 116.736L29.583 117.183H29.5332Z" fill="#4C3030"/>
<path d="M39.1488 92.9686C39.0989 94.2117 41.4405 98.2392 41.4405 98.2392C41.4405 98.2392 39.4477 99.88 38.8 99.88C38.2021 98.2392 37.8036 97.3939 37.8036 97.3939C37.8036 97.3939 39.1986 91.7256 39.1488 93.0183V92.9686Z" fill="white"/>
<path d="M39.0491 85.1622C39.2982 85.1622 39.5473 85.1125 39.647 85.0131C40.3943 83.8694 39.5473 80.6872 39.5473 80.6872L36.9068 81.1844L36.8071 83.2728C36.8071 83.8197 37.0563 84.3667 37.4548 84.7147C37.9032 85.0131 38.4513 85.1622 38.9993 85.1622H39.0491Z" fill="#4C3030"/>
<path d="M38.9993 98.985C40.6932 102.565 40.743 109.526 40.743 109.526L42.3871 117.631H40.9423C40.9423 117.631 36.0598 107.338 35.6612 104.405C35.3125 101.471 36.5082 99.1342 36.5082 99.1342L37.953 96.9464C37.953 96.9464 38.4512 97.4933 39.0491 98.985H38.9993Z" fill="#212B53"/>
<path d="M37.1559 101.024C37.1559 101.024 36.1595 105.001 33.5189 109.626C31.7254 112.659 29.7325 117.432 29.7325 117.432L28.3873 116.885C28.3873 116.885 29.0848 112.311 30.9282 108.482C31.3268 107.686 31.5261 106.841 31.4763 105.946C31.4264 101.769 32.5225 98.2392 32.5225 98.2392L37.1559 101.024Z" fill="#11375B"/>
<path d="M36.4086 85.4108C36.4086 85.4108 38.7004 88.6925 39.3979 90.3333C39.5473 90.6814 39.5473 91.0294 39.4975 91.3775C38.4014 96.5486 37.9032 100.626 37.7537 101.272C34.5652 101.173 32.2236 97.8414 32.2236 97.8414C32.2236 97.8414 32.7218 96.8469 33.22 95.7033C33.9175 94.1619 34.3161 92.5211 34.4655 90.8306C34.615 88.5931 35.0136 86.8528 35.0136 86.8528L36.4584 85.4108H36.4086Z" fill="white"/>
<path d="M36.8071 79.6431C36.8071 79.6431 36.6079 78.5989 36.01 78.3006C35.2627 77.9525 33.5687 78.052 33.1204 80.6872C32.6221 83.3225 33.9673 83.0242 34.0171 84.1181C34.067 85.1622 31.4264 85.56 31.277 87.6483C31.1275 89.7367 31.7254 90.1842 31.7254 90.1842C31.7254 90.1842 32.4229 91.5764 33.6684 91.0294C34.067 90.5819 34.0171 89.9853 34.1168 89.5378C34.2164 89.0903 34.4157 88.6925 34.8143 88.4439C35.3125 88.0958 36.2093 87.4992 36.3587 86.6042C36.5082 85.7589 36.1096 84.8142 35.7609 84.1678C35.4121 83.5214 35.2129 82.7258 35.2129 81.98C35.2129 81.2839 35.2129 80.5381 35.3623 80.2397C35.6612 79.5933 36.0598 79.9911 36.0598 79.9911L36.857 79.6431H36.8071Z" fill="#212B53"/>
<path d="M39.5473 80.7369C39.5473 80.7369 38.8996 78.9967 36.8071 79.8917C36.558 79.9911 36.558 79.9911 36.1096 80.3392C34.6648 82.4772 36.8071 83.8197 36.8071 83.8197L37.6541 82.2286C37.6541 82.2286 38.4513 82.3281 38.9495 81.8806C39.4477 81.4828 39.5971 80.7867 39.5971 80.7867L39.5473 80.7369Z" fill="#212B53"/>
<path d="M37.1061 82.0794C37.2555 81.9303 37.5545 81.98 37.7039 82.1292C37.9032 82.3281 37.953 82.5767 37.8036 82.7258C37.6541 82.875 37.3552 82.8253 37.2057 82.6761C37.0064 82.4772 36.9566 82.2286 37.1061 82.0794Z" fill="#4C3030"/>
<path d="M37.1559 79.7425L37.0064 79.5933C36.9068 79.4939 36.7075 79.4442 36.6079 79.5436L36.1595 79.8917C36.0598 79.9414 36.01 80.0906 36.1096 80.19L36.2093 80.2894L37.2057 79.7425H37.1559Z" fill="white"/>
<path d="M46.4227 94.1122L42.3373 97.4436C42.2377 97.4933 42.138 97.4933 42.0384 97.3939L40.195 95.0072C40.1452 94.9078 40.1452 94.8083 40.2448 94.7089L44.2305 91.5764C44.3302 91.5267 44.4298 91.5267 44.5295 91.6261L46.4725 93.8636C46.5223 93.9631 46.5223 94.1122 46.4227 94.1619V94.1122Z" fill="white"/>
<path d="M46.0739 94.1619L42.437 97.0956C42.3373 97.1453 42.2377 97.1453 42.1879 97.0458L40.5437 94.9078C40.4939 94.8083 40.4939 94.7089 40.5936 94.6592L44.1309 91.8747C44.2305 91.825 44.3302 91.825 44.38 91.8747L46.1237 93.8636C46.2234 93.9631 46.1736 94.0625 46.1237 94.1122L46.0739 94.1619Z" fill="#67B8FA"/>
<path d="M37.6043 89.7367C37.6043 89.7367 37.953 88.1456 36.4584 87.897C35.2129 87.6981 35.0634 89.14 35.0634 89.14C35.0634 89.14 34.3161 95.3056 35.4121 95.9022C36.4584 96.4989 43.0846 96.9464 43.0846 96.9464L43.8818 96.6978C44.2804 96.5486 44.6291 96.2503 44.8284 95.8525L45.0277 95.3553L43.1345 96.1011C43.1345 96.1011 36.857 94.9575 36.857 94.2117C36.857 93.4658 37.6541 89.7367 37.6541 89.7367H37.6043Z" fill="#4C3030"/>
<path d="M45.2768 92.7697C45.2768 92.8194 45.3266 92.8194 45.3266 92.8194C45.3764 92.8194 45.3764 92.7697 45.3764 92.7697C45.3764 92.72 45.3266 92.72 45.3266 92.72C45.2768 92.72 45.2768 92.7697 45.2768 92.7697Z" fill="white"/>
<path d="M92.5573 70.7925C92.5573 70.7925 92.8563 71.1903 94.2513 71.5383C94.5502 71.6378 94.8989 71.6875 94.8989 72.1847H93.5039L92.1089 71.9361V72.1847H91.3616C91.3616 72.1847 91.1623 70.9417 91.6107 70.7925C92.0093 70.7925 92.6072 70.7925 92.6072 70.7925H92.5573Z" fill="#212B53"/>
<path d="M92.6071 69.9472L92.5573 70.8422C92.2584 71.0411 91.9096 71.0411 91.6107 70.8919L91.5609 70.8422V69.9472H92.6071Z" fill="#4C3030"/>
<path d="M85.4827 70.9914C85.4827 70.9914 85.7816 71.3892 87.1766 71.7372C87.4755 71.8367 87.8243 71.8864 87.8243 72.3836H86.4293L85.0343 72.135V72.3836H84.287C84.287 72.3836 84.0877 71.1406 84.5361 70.9914C84.9346 70.9914 85.5325 70.9914 85.5325 70.9914H85.4827Z" fill="#212B53"/>
<path d="M85.5823 70.0964L85.5325 70.9914C85.2336 71.1903 84.8848 71.1903 84.5859 71.0411L84.5361 70.9914V70.0964H85.5823Z" fill="#4C3030"/>
<path d="M93.1552 48.0694L92.8064 70.3947H91.1623C91.1623 70.3947 88.6712 52.3456 89.2193 48.0694C89.7673 43.7933 93.1552 48.0694 93.1552 48.0694Z" fill="#212B53"/>
<path d="M91.4613 48.0694C91.4613 48.0694 90.9132 54.9311 89.568 58.71C88.2727 62.4889 85.9311 70.3947 85.9311 70.3947H84.2371C84.2371 70.3947 87.077 53.9367 86.4293 48.0694H91.4613Z" fill="#11375B"/>
<path d="M92.9061 36.7328C92.9061 36.7328 94.8989 41.4067 95.447 41.4067C95.8455 41.4067 95.2975 37.5781 95.2975 37.5781H96.9914C96.9914 37.5781 99.1337 44.1414 97.4398 45.3347C95.7459 46.5281 92.0591 41.9536 92.0591 41.9536L92.9559 36.7328H92.9061Z" fill="#008DFF"/>
<path d="M86.9275 48.6661L87.5254 50.1578C87.8243 50.7544 88.9204 50.7544 89.6179 50.5556C89.7175 50.5058 89.7673 50.4064 89.6677 50.3069C89.2691 49.8594 88.2727 48.7656 87.9239 48.5169L86.9275 48.6164V48.6661Z" fill="#4C3030"/>
<path d="M92.0093 35.7383C92.0093 35.7383 93.0555 36.4344 93.0555 37.2797V48.0694H86.9275V37.9758C86.9275 37.9758 87.077 35.7383 89.2691 35.7383C91.4612 35.7383 92.0591 35.7383 92.0591 35.7383H92.0093Z" fill="#008DFF"/>
<path d="M92.9559 48.0694V38.3736H93.1552V48.0694H92.9559Z" fill="#67B8FA"/>
<path d="M89.8171 33.3517V35.8875C89.8171 35.8875 90.2655 36.4842 91.0129 36.4842C91.7602 36.4842 91.7602 35.9372 91.7602 35.9372V34.2964L90.6143 33.9981L89.7673 33.3517H89.8171Z" fill="#4C3030"/>
<path d="M91.8598 34.7439C92.1089 34.7439 92.3082 34.6942 92.4079 34.5947C93.1054 33.5008 92.3082 30.6169 92.3082 30.6169L89.8171 31.0644L89.7175 33.0036C89.7175 33.5506 89.9168 34.0478 90.3154 34.3461C90.7637 34.5947 91.262 34.7439 91.7602 34.7439H91.8598Z" fill="#4C3030"/>
<path d="M91.0129 31.1142C91.0129 31.1142 91.81 31.2633 92.7068 31.1142C93.5537 30.965 93.0057 30.0203 93.0057 30.0203C93.0057 30.0203 92.358 30.3186 91.2121 30.1197C90.4648 30.0203 90.2157 29.8711 89.7673 30.1197C89.1196 30.4678 89.2691 31.6611 89.2691 31.6611L89.6178 34.1969H89.7673C89.7673 34.1969 89.8171 32.7053 89.8171 32.1583C89.9666 31.9097 90.1161 31.9097 90.2157 31.9594C90.3652 32.0092 90.415 32.1583 90.415 32.3075V34.9428C90.415 34.9428 92.1089 35.6886 92.5573 35.5394C93.0057 35.3903 92.7068 33.4511 92.7068 33.4511C92.7068 33.4511 92.2086 33.2522 91.81 33.65C91.4114 34.0975 90.963 33.65 90.963 33.65L91.0129 31.0147V31.1142Z" fill="#212B53"/>
<path d="M96.6427 37.5781L96.5929 37.2797C96.4434 36.5836 95.7957 35.6886 95.0982 35.44H94.4007L94.6 36.9814L95.5964 37.6278H96.6427V37.5781Z" fill="#4C3030"/>
<path d="M90.0164 31.9594C90.2157 31.9594 90.3652 32.1086 90.415 32.3572C90.4648 32.6058 90.3154 32.8047 90.1161 32.8047C89.9168 32.8047 89.7673 32.6556 89.7175 32.4069C89.6677 32.1583 89.8171 31.9594 90.0164 31.9594Z" fill="#4C3030"/>
<path d="M94.8989 36.7825L96.2939 37.5781C96.2939 37.5781 95.447 37.5781 95.3971 37.5781L93.9025 36.335C93.9025 36.335 94.0021 36.1361 94.3509 36.2853C94.6996 36.4842 94.8989 36.7328 94.8989 36.7328V36.7825Z" fill="#4C3030"/>
<path d="M87.5752 36.3847C87.5752 36.3847 84.0877 40.2133 84.0877 42.5503C84.0877 44.8375 86.9275 48.9147 86.9275 48.9147L88.3225 48.5169C88.3225 48.5169 87.077 43.495 87.077 42.1525C87.077 40.81 89.6677 38.8708 89.6677 38.8708" fill="#008DFF"/>
<path d="M87.1766 42.1525C87.1766 43.2961 88.2229 47.5225 88.4222 48.5169C88.3723 48.5169 88.3225 48.5169 88.2229 48.5667C87.9239 47.3733 86.9773 43.2961 86.9773 42.1525C86.9773 40.7603 89.5182 38.8708 89.6179 38.7714L89.7175 38.9206C89.7175 38.9206 87.1766 40.8597 87.1766 42.1525Z" fill="#67B8FA"/>
<path d="M93.9523 34.2467C93.9523 34.2467 93.6534 35.7383 94.6 36.9317C94.6498 36.9814 94.7495 37.0808 94.8491 37.0808C95.0484 37.1306 95.1979 37.0311 95.3473 36.9814C95.4968 36.9317 95.5964 36.8322 95.6463 36.7825C95.6961 36.7328 95.6463 36.6333 95.6463 36.5836C95.447 36.2853 94.8989 35.3406 95.148 34.4953C94.6498 34.0975 94.0021 34.2467 94.0021 34.2467H93.9523Z" fill="#F59C42"/>
<path d="M95.447 36.9317C95.5466 36.8819 95.5964 36.8322 95.5964 36.7825C95.6462 36.7328 95.5964 36.6333 95.5964 36.5836C95.3971 36.2853 94.8491 35.3406 95.0982 34.4953C94.8989 34.3461 94.7495 34.2964 94.5502 34.2467C94.5004 35.1914 94.6996 35.7881 95.447 36.9317Z" fill="#FAB746"/>
<path d="M94.7993 35.4897C94.8491 35.6886 94.9487 35.8875 95.0484 35.8378C95.148 35.8378 95.148 35.6389 95.0982 35.44C95.0484 35.2411 94.9487 35.0422 94.8491 35.0919C94.7495 35.0919 94.7495 35.2908 94.7993 35.4897Z" fill="#F59C42"/>
<path d="M94.8491 35.0919H94.9487V35.1417H94.8989V35.0919H94.8491Z" fill="#F59C42"/>
<path d="M94.8491 35.44C94.8989 35.6389 94.9986 35.8378 95.0982 35.7881C95.1979 35.7881 95.1979 35.5892 95.148 35.3903C95.0982 35.1914 94.9986 34.9925 94.8989 35.0422C94.7993 35.0422 94.7993 35.2411 94.8491 35.44Z" fill="#FFD247"/>
<path d="M93.6036 33.0036H93.4541C93.1552 33.0036 92.8562 33.2522 92.8562 33.5506V33.9981C92.8562 34.2964 93.1054 34.545 93.4541 34.545H93.6036V33.0036Z" fill="#FFD247"/>
<path d="M98.6355 33.4014C98.6355 34.5947 98.3864 35.5394 98.0377 35.5394C97.6889 35.5394 97.4398 34.5947 97.4398 33.4014C97.4398 32.2081 97.6889 31.2633 98.0377 31.2633C98.3864 31.2633 98.6355 32.2081 98.6355 33.4014Z" fill="#212B53"/>
<path d="M97.39 32.6058L97.8882 32.9042V33.6003L97.39 34.0478L97.2405 33.1528L97.4398 32.6058H97.39Z" fill="white"/>
<path d="M97.39 33.4014C97.39 32.4069 97.5893 31.5617 97.8384 31.3131C95.8455 32.755 93.4541 32.9539 93.4541 32.9539V34.4456C93.4541 34.4456 96.6427 34.2467 97.8384 35.44C97.5893 35.1914 97.39 34.3461 97.39 33.3517V33.4014Z" fill="#F7A605"/>
<path d="M97.938 33.3019C97.938 33.5008 97.8882 33.65 97.8882 33.65C97.8384 33.65 97.8384 33.5008 97.8384 33.3019C97.8384 33.1031 97.8882 32.9539 97.8882 32.9539C97.938 32.9539 97.938 33.1031 97.938 33.3019Z" fill="#FFD247"/>
<path d="M95.8954 36.4842C95.8455 36.4842 95.6961 36.6333 95.0982 36.6333C94.6996 36.6333 94.5004 36.1361 94.4505 35.8875C94.4505 35.7881 94.4007 35.6389 94.5004 35.5892L95.148 35.4897L95.8455 36.5339L95.8954 36.4842Z" fill="#4C3030"/>
<path d="M203.46 40.5614L203.261 41.705C203.609 41.9536 204.107 41.9536 204.456 41.7547L204.506 41.705L204.805 40.5614H203.46Z" fill="#4C3030"/>
<path d="M212.627 14.1589C211.631 17.4903 208.193 22.6117 208.193 22.6117L210.883 21.5178L212.776 17.1422C212.776 17.1422 213.623 10.8275 212.627 14.1589Z" fill="#67B8FA"/>
<path d="M205.303 27.5839L203.161 40.6608H205.054C205.054 40.6608 209.289 28.9264 209.737 25.4458C209.737 23.5067 205.453 25.4458 205.453 25.4458L205.303 27.5839Z" fill="#212B53"/>
<path d="M212.328 8.88833L213.026 10.7281L214.57 9.63417L213.524 7.49611L212.328 8.93806V8.88833Z" fill="#4C3030"/>
<path d="M211.73 9.18667C211.481 9.23639 211.282 9.23639 211.132 9.18667C210.236 8.34139 210.485 5.55695 210.485 5.55695L211.481 4.86084L213.026 5.40778L213.474 7.14806C213.574 7.59556 213.474 8.1425 213.125 8.49056C212.727 8.83862 212.278 9.08722 211.73 9.13695V9.18667Z" fill="#4C3030"/>
<path d="M212.776 6.00445C212.627 5.70611 212.328 5.60667 212.029 5.70611C211.83 5.80556 211.581 5.85528 211.282 5.905C210.684 6.05417 209.538 6.00445 209.339 5.10944C209.139 4.16472 210.335 4.26417 210.335 4.26417L211.929 4.36361C212.428 4.41333 212.876 4.31389 213.324 4.115C213.723 3.96583 214.072 4.31389 214.122 4.5625C214.321 5.10945 214.122 6.00445 213.972 6.55139C213.872 6.89945 213.723 7.19778 213.524 7.49611L212.776 6.00445Z" fill="#212B53"/>
<path d="M213.673 6.40222C213.524 6.30278 213.275 6.40222 213.125 6.55139C212.976 6.75028 212.976 6.94917 213.125 7.04861C213.275 7.14806 213.524 7.04861 213.673 6.89945C213.823 6.70056 213.823 6.50167 213.673 6.40222Z" fill="#4C3030"/>
<path d="M203.211 41.5558C203.211 41.5558 203.211 42.7492 200.769 43.495C200.271 43.6442 200.421 43.7933 200.321 43.9922H203.111L204.207 42.7492L204.556 43.0475L205.353 42.2519C205.353 42.2519 205.204 41.1083 204.606 41.1083C204.107 41.2575 203.161 41.5061 203.161 41.5061L203.211 41.5558Z" fill="#212B53"/>
<path d="M210.186 40.1636L210.634 41.2078C211.033 41.3072 211.481 41.2078 211.78 40.8597L211.83 40.81L211.481 39.7161L210.186 40.1636Z" fill="#4C3030"/>
<path d="M212.677 10.1811C212.677 10.1811 212.478 9.88278 214.221 8.98778C216.812 11.5733 217.659 21.5178 217.659 21.5178H210.833C210.584 15.8494 212.627 10.1811 212.627 10.1811H212.677Z" fill="#67B8FA"/>
<path d="M205.951 21.2692C205.901 21.12 206.001 21.0206 206.1 20.9211L207.196 20.2747C207.446 20.1256 207.794 20.0758 208.093 20.1256L209.289 20.1753L209.438 20.3742L209.688 21.4183C209.438 21.3686 209.289 21.3189 209.289 21.3189H208.542C208.542 21.3189 207.097 22.6614 206.399 21.5178C206.349 22.7608 206.001 22.6614 206.001 22.6614L205.901 21.2194L205.951 21.2692Z" fill="#4C3030"/>
<path d="M217.659 21.5178L217.759 22.3631C217.759 22.3631 217.759 22.3631 217.759 22.4128C217.958 24.0039 216.862 25.4956 215.317 25.9431C215.317 25.9431 212.228 26.9872 208.293 27.1861C210.883 30.4678 211.581 39.7161 211.581 39.7161L209.937 40.3128L203.559 25.1475C203.161 24.2028 203.709 23.0592 204.755 22.8603L210.833 21.5675H217.659V21.5178Z" fill="#043C5E"/>
<path d="M213.424 13.4628C213.424 13.4628 214.67 14.6064 215.417 15.7997C215.616 16.1478 215.616 16.5456 215.317 16.8439C213.922 18.4847 208.841 20.0261 208.841 20.0261L209.189 21.8658C209.189 21.8658 216.364 20.4736 218.904 17.9378C221.495 15.3522 214.769 9.88278 214.769 9.88278" fill="#67B8FA"/>
<path d="M215.367 15.8494C215.566 16.1478 215.517 16.4958 215.317 16.7942C214.67 17.54 212.926 18.3356 211.431 18.8825C211.431 18.9819 211.431 18.9819 211.431 19.0814C213.026 18.4847 214.769 17.6892 215.467 16.8936C215.766 16.5456 215.766 16.0981 215.566 15.7003C214.819 14.5069 213.574 13.3633 213.524 13.3136L213.374 13.4628C213.374 13.4628 214.62 14.6064 215.367 15.7997V15.8494Z" fill="#67B8FA"/>
<path d="M217.41 18.9322C214.67 20.4239 210.634 21.4681 209.189 21.7664C209.189 21.8658 209.239 21.9156 209.239 21.9653C210.634 21.6669 214.62 20.6725 217.46 19.1808C217.46 19.0814 217.46 19.0317 217.41 18.9322Z" fill="#67B8FA"/>
<path d="M203.31 23.5067L201.168 15.9489L201.567 15.8494L203.609 23.0592L209.687 22.015L209.737 22.4128L203.31 23.5067Z" fill="#67B8FA"/>
<path d="M210.534 41.0089C210.534 41.0089 210.634 42.2519 208.193 42.9481C207.695 43.0972 207.844 43.2464 207.744 43.4453H210.534L211.631 42.2022L211.979 42.5006L212.776 41.705C212.776 41.705 212.428 40.5614 211.78 40.5614C211.282 40.7106 210.485 40.9592 210.485 40.9592L210.534 41.0089Z" fill="#212B53"/>
<path d="M155.282 53.9367L156.129 56.1244C156.179 56.4228 156.229 56.8206 155.88 56.9697C155.88 56.9697 155.681 57.0692 155.432 57.1686C155.282 57.1189 154.336 54.1853 154.336 54.1853C154.734 53.6881 155.282 53.9367 155.282 53.9367Z" fill="#67B8FA"/>
<path d="M155.432 57.1686L154.336 54.1853L154.186 54.2847L155.332 57.2681L155.482 57.2183L155.432 57.1686Z" fill="#212B53"/>
<path d="M155.581 54.7819L155.631 54.9808L155.233 55.0306L155.183 54.8317L155.581 54.7322V54.7819Z" fill="white"/>
<path d="M155.781 55.2294L155.831 55.4283L155.432 55.4781L155.382 55.2792L155.781 55.1797V55.2294Z" fill="white"/>
<path d="M156.179 53.3897L155.233 53.8869C155.183 54.1356 155.233 54.3344 155.432 54.4836H155.482L156.528 54.235L156.179 53.34V53.3897Z" fill="#4C3030"/>
<path d="M163.603 39.5172C163.603 39.5172 162.706 40.5117 162.457 42.2519C162.307 43.3956 162.756 45.2353 162.756 46.6772C162.806 47.97 162.208 49.0142 161.161 49.8595L156.179 53.4394L156.528 54.3345C156.528 54.3345 163.304 53.34 165.097 50.3069C166.891 47.2739 167.289 40.4122 167.289 40.4122L163.553 39.5669L163.603 39.5172Z" fill="#212B53"/>
<path d="M159.617 35.7881L157.076 41.4564C157.076 41.4564 156.03 41.5558 155.581 42.0033C155.332 42.2022 155.332 42.6497 155.432 42.9978C155.482 43.2464 155.781 43.3956 156.03 43.1967C156.329 42.9481 156.677 42.6994 156.927 42.6497C157.574 42.5503 157.724 42.1028 157.724 42.1028L161.411 36.3847L159.667 35.8378L159.617 35.7881Z" fill="#4C3030"/>
<path d="M172.521 24.3519L173.816 23.2581L172.82 17.7389L171.225 16.9433C171.225 16.9433 171.375 16.645 171.773 16.7444C172.172 16.8439 172.471 16.7942 172.471 16.7942C172.471 16.7942 172.77 16.4461 172.222 16.1975C171.923 15.9986 171.724 16.1975 170.777 16.1478C170.777 15.9986 171.973 15.7003 171.973 15.7003C172.371 15.6008 173.318 16.2969 173.318 16.2969C173.368 16.3964 173.417 16.4958 173.417 16.5953L173.567 17.6394C173.567 17.6394 175.61 23.2083 175.61 23.7553C175.61 24.3519 174.464 25.1475 174.464 25.1475L172.471 24.3519H172.521Z" fill="#4C3030"/>
<path d="M165.496 40.1139C165.496 40.1139 164.699 41.0586 165.197 43.2464C165.496 44.6386 166.841 46.4286 167.688 47.622C168.336 48.517 168.336 49.6108 168.136 50.655C167.389 54.6825 168.585 59.605 168.585 59.605H169.531C169.531 59.605 170.926 52.3953 171.375 47.3236C171.773 42.7492 169.781 39.3681 169.731 39.3183L165.496 40.1139Z" fill="#043C5E"/>
<path d="M170.827 15.9489L170.727 16.7444L173.716 17.1919L173.816 16.3964L170.827 15.9489Z" fill="#F7A605"/>
<path d="M173.716 16.3467L173.617 17.1422L173.866 17.1919L173.966 16.3964L173.716 16.3467Z" fill="white"/>
<path d="M173.816 17.1422C174.015 17.1919 174.215 17.1422 174.264 16.7942C174.314 16.3964 174.165 16.3964 173.916 16.3467L173.816 17.1422Z" fill="#212B53"/>
<path d="M170.727 16.6947L170.129 16.3467L170.179 16.0483L170.827 15.8992L170.727 16.6947Z" fill="white"/>
<path d="M170.129 16.3467L169.88 16.1478L170.179 16.0483L170.129 16.3467Z" fill="#043C5E"/>
<path d="M170.777 16.3964L170.727 16.5953L173.617 16.9931L173.667 16.7942L170.777 16.3964Z" fill="#F18813"/>
<path d="M170.827 16.0483L170.777 16.2472L173.667 16.645L173.716 16.4461L170.827 16.0483Z" fill="#F18813"/>
<path d="M163.154 28.9264C161.46 30.1694 159.468 36.0864 159.468 36.0864L160.962 36.9317L163.354 33.65C163.354 33.65 163.603 37.4786 163.005 40.4122C163.254 41.5061 164.499 41.4067 166.542 41.0089C168.585 40.6111 169.88 39.7658 169.88 39.7658C169.88 39.7658 169.98 34.4456 170.229 31.6611C170.478 28.8269 169.98 28.5286 170.677 28.6281C172.272 27.7331 174.862 24.8492 174.862 24.8492L172.471 24.4017L167.289 27.4347C167.289 27.4347 164.749 28.0811 163.154 28.9761V28.9264Z" fill="#FFD247"/>
<path d="M166.094 21.9156L167.339 23.1586C167.887 23.7056 168.087 24.4514 167.937 25.1475L167.788 25.7939L166.094 21.8658V21.9156Z" fill="#4C3030"/>
<path d="M164.599 21.4183C161.56 21.4183 162.855 27.2358 162.855 27.2358C162.855 27.2358 163.403 31.0147 164.599 32.5064C165.645 33.7992 167.688 33.4014 168.684 32.8047C169.183 32.5064 169.681 32.3075 170.279 32.2081C171.126 32.1086 172.072 31.7606 172.072 30.2689C172.072 28.8767 170.378 27.7828 169.282 26.9872C168.585 26.49 168.037 25.7442 167.837 24.8989C167.489 23.4569 166.592 21.4183 164.549 21.4183H164.599Z" fill="#212B53"/>
<path d="M168.734 60.6492H171.076C171.375 60.6989 171.724 60.7983 171.773 61.1961C171.773 61.1961 171.823 61.4447 171.823 61.6933C171.724 61.8425 168.585 61.6933 168.585 61.6933C168.236 61.1464 168.684 60.7486 168.684 60.7486L168.734 60.6492Z" fill="#67B8FA"/>
<path d="M171.873 61.6436H168.684V61.7928H171.873V61.6436Z" fill="#043C5E"/>
<path d="M169.681 60.6492H169.88L169.83 61.0469H169.631L169.681 60.6492Z" fill="white"/>
<path d="M170.129 60.6492H170.329L170.279 61.0469H170.079L170.129 60.6492Z" fill="white"/>
<path d="M168.585 59.605L168.734 60.6492C168.934 60.7983 169.183 60.7983 169.382 60.6492H169.432L169.531 59.605H168.585Z" fill="#4C3030"/>
<path d="M171.773 16.7444C171.375 16.5953 171.225 16.9433 171.225 16.9433L172.272 17.4903H172.321C172.471 17.4406 172.869 17.2914 173.019 17.2417C172.919 17.1422 171.973 16.8936 171.773 16.7942V16.7444Z" fill="#4C3030"/>
<path d="M125.439 119.62H128.927C129.375 119.669 129.923 119.819 129.973 120.216C129.973 120.216 130.023 120.465 130.023 120.763C129.923 120.913 125.29 120.763 125.29 120.763C124.792 120.167 125.439 119.719 125.439 119.719V119.62Z" fill="#11375B"/>
<path d="M130.023 120.763H125.29L125.34 120.962H130.023V120.813V120.763Z" fill="#212B53"/>
<path d="M126.785 119.62H127.084L126.984 120.067H126.685L126.785 119.62Z" fill="white"/>
<path d="M127.482 119.62H127.781L127.681 120.067H127.382L127.482 119.62Z" fill="white"/>
<path d="M125.19 118.476L125.439 119.62C125.738 119.769 126.087 119.769 126.386 119.62H126.436L126.585 118.476H125.19Z" fill="#4C3030"/>
<path d="M117.269 119.62H120.756C121.205 119.669 121.753 119.819 121.803 120.216C121.803 120.216 121.852 120.465 121.852 120.763C121.753 120.913 117.119 120.763 117.119 120.763C116.621 120.167 117.269 119.719 117.269 119.719V119.62Z" fill="#212B53"/>
<path d="M121.852 120.763H117.119L117.169 120.962H121.902V120.813L121.852 120.763Z" fill="#212B53"/>
<path d="M118.664 119.62H118.963L118.863 120.067H118.564L118.664 119.62Z" fill="white"/>
<path d="M119.311 119.62H119.61L119.511 120.067H119.212L119.311 119.62Z" fill="white"/>
<path d="M117.418 118.476L117.269 119.62C117.568 119.769 117.916 119.769 118.215 119.62H118.265L118.813 118.476H117.418Z" fill="#4C3030"/>
<path d="M122.649 79.5933L119.76 81.4828L120.657 83.7203C120.657 83.77 120.706 83.77 120.706 83.8197C120.756 83.8197 120.856 83.8197 120.906 83.8197H120.956H121.005C121.753 83.8197 122.45 84.2672 122.849 84.9136C123.297 84.8639 123.795 84.7644 124.194 84.5656C124.493 84.4164 124.742 84.2672 124.842 84.0683C125.141 82.4772 122.699 79.5933 122.699 79.5933H122.649Z" fill="#4C3030"/>
<path d="M126.286 80.1403C126.286 80.1403 126.635 83.4717 125.938 85.56C126.286 85.8583 127.482 87.1511 127.831 85.4606C128.229 83.77 127.382 79.5436 127.382 79.5436L126.237 80.1403H126.286Z" fill="#4C3030"/>
<path d="M124.543 79.9414L123.895 80.3889L124.144 80.8861L124.891 80.5878L124.593 79.9911L124.543 79.9414Z" fill="#212B53"/>
<path d="M124.144 80.5381C124.194 80.6872 124.194 80.8364 124.144 80.8861C124.094 80.9358 123.995 80.7867 123.895 80.6375C123.845 80.4883 123.845 80.3392 123.895 80.2895C123.945 80.2397 124.044 80.3392 124.144 80.5381Z" fill="#212B53"/>
<path d="M132.713 77.4553C132.564 77.1569 132.365 76.7094 132.066 76.2619C131.567 75.5658 131.418 75.2178 131.418 75.2178L124.443 79.7922L124.891 80.6375L132.664 77.7536C132.664 77.6542 132.664 77.5547 132.664 77.4553H132.713Z" fill="#043C5E"/>
<path d="M122.002 84.8639L121.753 86.4053H123.995L124.144 84.5158L122.002 84.8639Z" fill="#4C3030"/>
<path d="M127.731 88.7422C127.731 88.7422 130.372 87.8969 131.169 86.8031C131.966 85.7092 130.621 79.5436 130.621 79.5436L130.82 78.4497C130.92 77.8033 130.422 77.2564 129.824 77.2564H129.126C128.827 77.2564 128.628 77.5547 128.777 77.8033L129.674 79.8917C129.674 79.8917 130.372 84.5158 129.375 84.8639C128.229 85.2617 126.934 85.3611 126.934 85.3611L127.781 88.7422H127.731Z" fill="#4C3030"/>
<path d="M122.799 84.8639L122.151 83.3722L122.6 83.1236C122.899 82.9247 123.048 82.527 122.948 82.1789L122.45 80.7867C122.45 80.7867 123.795 80.6375 123.795 79.3447C123.795 78.6983 122.899 78.6983 122.899 78.6983C122.899 78.6983 122.649 79.295 121.802 79.3447C121.454 79.295 120.457 79.4442 119.81 80.5878C119.361 81.3833 119.561 82.5767 119.959 83.5214C120.308 84.3667 121.205 84.8142 122.101 84.9136H122.899L122.799 84.8639Z" fill="#11375B"/>
<path d="M120.158 97.3939C120.158 97.3939 120.308 100.576 121.005 104.007C121.205 105.001 121.155 106.095 120.806 107.04C119.262 111.664 117.069 118.625 117.069 118.625H119.012C119.012 118.625 123.447 110.371 124.592 106.294C125.738 102.217 125.938 100.924 125.938 100.924L124.592 97.3442H120.258L120.158 97.3939Z" fill="#212B53"/>
<path d="M121.753 82.7258C121.653 82.9744 121.852 83.2728 122.101 83.4219C122.4 83.5711 122.699 83.5214 122.749 83.2728C122.849 83.0242 122.649 82.7258 122.4 82.5767C122.101 82.4275 121.852 82.4772 121.753 82.7258Z" fill="#4C3030"/>
<path d="M126.486 97.3939H120.109V89.2395C120.109 87.4495 121.454 85.9578 123.247 85.8086L127.681 85.2617C127.681 85.2617 128.18 86.0572 129.674 87.897C127.931 88.9908 125.938 89.4881 125.938 89.4881L126.536 97.3939H126.486Z" fill="white"/>
<path d="M120.158 97.3939C120.158 97.3939 121.055 100.626 124.393 104.256C124.941 104.803 125.738 105.946 125.639 107.537L124.941 118.625H126.934C126.934 118.625 129.326 109.427 128.827 104.902C128.329 100.377 126.536 97.3939 126.536 97.3939H120.158Z" fill="#043C5E"/>
<path d="M131.617 76.7094C131.966 77.4056 132.414 77.9028 132.664 77.8033C132.913 77.7039 132.813 77.0078 132.464 76.3117C132.116 75.6156 131.667 75.1183 131.418 75.2178C131.169 75.3172 131.269 76.0133 131.617 76.7094Z" fill="#67B8FA"/>
<path d="M125.987 78.7978L126.037 78.8475C126.237 78.9469 126.486 78.9469 126.685 78.8972H126.735C127.084 78.7978 127.382 78.4994 127.482 78.1514C127.532 78.0022 127.382 77.8531 127.233 77.8531L126.785 77.9525C126.635 78.0022 126.486 78.1017 126.386 78.2508L125.987 78.8475V78.7978Z" fill="#4C3030"/>
<path d="M239.182 119.471H239.63C238.833 114.2 238.036 108.88 237.289 103.709C236.79 100.228 236.242 96.6481 235.744 93.1178L235.296 93.1675C235.844 96.6978 236.342 100.328 236.84 103.758C237.587 108.88 238.385 114.2 239.132 119.471H239.182Z" fill="#212B53"/>
<path d="M226.677 119.471H227.125C226.328 114.2 225.531 108.88 224.783 103.709C224.285 100.228 223.737 96.6481 223.239 93.1178L222.791 93.1675C223.339 96.6978 223.837 100.328 224.335 103.758C225.082 108.88 225.879 114.2 226.627 119.471H226.677Z" fill="#212B53"/>
<path d="M239.232 103.311C235.595 95.8525 235.595 81.2839 235.595 81.2839L232.157 103.311H239.232Z" fill="#E4CDE5"/>
<path d="M215.766 120.366C217.111 111.813 218.257 103.559 219.502 94.8581L219.901 93.9133L219.502 93.8636L219.104 94.8083C217.858 103.559 216.662 111.813 215.317 120.366H215.766Z" fill="#212B53"/>
<path d="M229.566 120.366C230.363 115.045 231.161 109.675 231.908 104.504C232.406 101.024 232.954 97.4436 233.452 93.9133L233.004 93.8636C232.456 97.3939 231.958 101.024 231.459 104.454C230.712 109.675 229.915 115.045 229.118 120.366H229.566Z" fill="#212B53"/>
<path d="M237.239 103.709L234.698 86.9522L231.31 102.515L231.758 103.709H237.289H237.239Z" fill="#212B53"/>
<path d="M215.915 103.062L216.513 104.106H231.908L232.107 103.062H215.915Z" fill="#212B53"/>
<path d="M220.001 80.0408L220.15 81.085H235.545L235.595 80.0408H219.951H220.001Z" fill="#212B53"/>
<path d="M234.449 80.5381C234.449 80.9358 234.798 81.2839 235.196 81.2839C235.595 81.2839 235.943 80.9358 235.943 80.5381C235.943 80.1403 235.595 79.7922 235.196 79.7922C234.798 79.7922 234.449 80.1403 234.449 80.5381Z" fill="#212B53"/>
<path d="M219.203 80.5381C219.203 80.9358 219.552 81.2839 219.951 81.2839C220.349 81.2839 220.698 80.9358 220.698 80.5381C220.698 80.1403 220.349 79.7922 219.951 79.7922C219.552 79.7922 219.203 80.1403 219.203 80.5381Z" fill="#212B53"/>
<path d="M222.541 98.5375H220.598L220.698 91.9742H222.791L222.541 98.5375Z" fill="#67B8FA"/>
<path d="M225.83 98.5375H223.687L223.388 88.6925H225.83V98.5375Z" fill="#67B8FA"/>
<path d="M228.819 90.4825H226.677V98.5872H228.819V90.4825Z" fill="#EB5768"/>
<path d="M228.819 98.5375H226.677V90.4328H229.018L228.769 98.5375H228.819Z" fill="#67B8FA"/>
<path d="M231.808 98.5375H229.666V85.7589H232.406L231.808 98.5375Z" fill="#FFD247"/>
<path d="M242.52 118.128C242.52 118.128 242.968 118.377 242.968 118.774C242.968 119.172 243.018 120.117 243.018 120.117L242.619 120.167L242.47 119.321C242.47 119.272 241.723 120.216 241.224 120.714L239.431 120.763C239.431 120.763 239.182 120.216 240.427 119.769C241.673 119.371 242.52 118.078 242.52 118.078V118.128Z" fill="#008DFF"/>
<path d="M241.025 110.968C241.025 110.67 240.975 110.172 240.926 109.874C240.726 108.83 240.278 108.034 240.029 107.637C239.58 107.487 239.182 107.289 238.733 107.09C238.285 106.891 237.737 106.791 237.139 106.642C237.139 106.692 237.189 106.742 237.189 106.841C239.829 113.802 241.324 116.935 241.523 117.73C241.573 117.83 241.573 117.979 241.573 118.078C241.523 118.426 241.374 119.222 240.328 119.968C241.474 120.266 242.52 118.228 242.52 118.228C242.52 118.228 241.125 113.404 241.025 111.018V110.968Z" fill="#4C3030"/>
<path d="M235.595 82.7756L235.694 84.665L237.538 84.2672L237.338 81.6817L235.595 82.7258V82.7756Z" fill="#4C3030"/>
<path d="M235.146 82.8253C234.897 82.8253 234.648 82.7756 234.499 82.6761C233.701 81.4331 234.598 78.1017 234.598 78.1017L237.438 78.5989L237.538 80.8364C237.538 81.4331 237.289 82.0297 236.84 82.3778C236.342 82.6761 235.744 82.875 235.146 82.8253Z" fill="#4C3030"/>
<path d="M236.99 118.774C236.99 118.774 237.388 119.073 237.289 119.471C237.239 119.868 237.139 120.763 237.139 120.763H236.741V119.918C236.741 119.868 235.894 120.763 235.744 120.763H233.602C233.602 120.763 233.452 120.167 234.698 120.018C235.943 119.819 236.94 118.774 236.94 118.774H236.99Z" fill="#008DFF"/>
<path d="M238.036 111.614C238.136 111.316 238.285 110.869 238.335 110.57C238.484 109.526 238.534 108.034 238.434 107.587C238.086 107.289 237.587 107.537 237.239 107.189C236.84 106.841 236.442 106.543 235.894 106.195V106.394C235.943 113.852 236.242 117.332 236.193 118.078C236.193 118.178 235.844 119.719 234.598 120.067C235.545 120.714 236.99 118.824 236.99 118.824C236.99 118.824 237.289 113.902 238.086 111.664L238.036 111.614Z" fill="#4C3030"/>
<path d="M235.694 84.3667L233.901 87.2506C233.701 87.6981 233.602 88.245 233.751 88.7422L234.897 93.7144C234.947 94.0128 234.997 94.3111 234.997 94.6094L235.246 107.587H240.926C240.926 107.587 240.228 105.051 239.829 101.72C239.431 98.3883 240.527 96.9961 240.228 95.5542C240.079 94.7089 239.531 93.615 238.833 92.72C238.434 92.2725 238.235 91.6758 238.235 91.0792C238.185 88.6428 240.726 81.8308 238.285 83.5214C235.844 85.1622 235.644 84.4661 235.644 84.4661L235.694 84.3667Z" fill="#008DFF"/>
<path d="M235.595 91.6758L235.445 92.1731C235.395 92.4217 235.296 92.5211 235.047 92.8692C234.399 93.9133 232.306 96.4492 232.306 96.4492L230.612 97.3939C230.612 97.3939 230.662 97.6425 231.061 97.5928C231.459 97.5431 231.709 97.2944 231.709 97.2944C231.709 97.2944 231.758 97.5928 231.41 98.1397C231.161 98.5375 230.314 99.2833 230.862 99.3828C231.41 99.1342 232.057 98.7364 232.057 98.7364C232.356 98.5872 232.556 98.2889 232.605 97.9408L232.755 97.0458L236.392 94.1122C236.79 93.7642 237.089 93.3664 237.239 92.8692V92.8194L235.495 91.6758H235.595Z" fill="#4C3030"/>
<path d="M225.73 88.7422C225.63 88.7422 225.331 88.7422 224.833 88.4439C224.385 88.1456 223.637 87.3003 223.488 87.8969C223.737 88.4439 223.936 89.0903 223.936 89.0903C224.086 89.3886 224.634 89.6372 225.032 89.6869L226.228 89.7367C226.228 89.7367 226.627 89.3389 226.677 89.2892L226.577 89.0903C226.278 89.0406 226.029 88.8914 225.78 88.7422H225.73Z" fill="#4C3030"/>
<path d="M237.338 93.0183L235.445 91.7753L236.143 86.8031H236.342L235.644 91.6758L237.239 92.72L238.385 88.7422L238.534 88.7919L237.289 92.9686L237.338 93.0183Z" fill="#67B8FA"/>
<path d="M236.591 79.3944C236.043 79.6928 235.495 79.7425 235.047 79.7425C234.499 79.7425 233.801 79.2453 233.552 78.7481C233.353 78.3006 233.303 77.9028 233.951 77.3558C234.399 77.0078 234.947 77.2067 235.196 77.4553C235.395 77.6044 235.644 77.6542 235.844 77.4553C236.192 77.1569 236.84 76.8089 237.787 76.8089C238.783 76.8089 238.733 77.7536 238.584 78.4497C238.484 78.8475 238.684 79.295 239.032 79.4939C239.63 79.8419 240.377 80.4386 240.228 81.0353C240.128 81.4828 239.829 81.9303 239.58 82.2783C239.331 82.5767 239.331 83.0242 239.58 83.3225C239.929 83.8197 240.377 84.5158 240.228 85.0131C240.128 85.5103 239.73 86.1069 239.481 86.5544C239.281 86.8528 239.281 87.2506 239.481 87.5986C239.63 87.8472 239.78 88.1953 239.68 88.5433C239.63 88.8417 239.481 89.0903 239.331 89.3389C239.082 89.7367 238.484 89.6869 238.285 89.2394C237.637 87.9467 236.491 85.2617 236.89 83.2728C237.089 82.2783 237.338 80.4386 237.338 80.4386C237.338 80.4386 237.637 78.9469 236.591 79.3944Z" fill="#212B53"/>
<path d="M235.146 90.3831L232.954 91.5267C232.705 91.6758 232.356 91.6758 232.057 91.6261L226.079 89.7367V88.9908L231.908 89.6869L233.701 88.7422L235.096 90.4328L235.146 90.3831Z" fill="#4C3030"/>
<path d="M237.687 79.9414C237.538 79.7922 237.239 79.8419 237.039 79.9911C236.84 80.19 236.79 80.4386 236.94 80.5878C237.089 80.7369 237.388 80.6872 237.587 80.5381C237.787 80.3392 237.837 80.0906 237.687 79.9414Z" fill="#4C3030"/>
<path d="M235.595 90.1842L234.997 86.5047L232.406 89.4383L233.104 91.7256L235.545 90.4825C235.495 90.1842 235.545 90.4825 235.545 90.1842H235.595Z" fill="#008DFF"/>
<path d="M234.499 92.1233C234.548 92.0736 234.548 92.0736 234.648 92.0239L233.851 88.6925C233.751 88.245 233.801 87.6981 234 87.3003L235.744 84.4164C235.694 84.3667 235.694 84.3667 235.694 84.3169H235.595L233.801 87.2008C233.552 87.6981 233.502 88.245 233.652 88.7422" fill="#67B8FA"/>
<path d="M225.431 88.8417C225.431 88.8417 225.381 88.8417 225.331 88.8417C225.381 88.8914 225.381 88.9908 225.431 89.0406C225.63 89.1897 225.879 89.3886 226.079 89.5378C226.178 89.3886 226.278 89.1897 226.278 89.1897L225.132 87.7478C225.132 87.7478 224.883 87.8472 225.032 88.1953C225.182 88.5931 225.431 88.7919 225.431 88.7919V88.8417Z" fill="#4C3030"/>
</svg>
