<svg width="212" height="200" viewBox="0 0 212 200" fill="none" xmlns="http://www.w3.org/2000/svg">
<path d="M66.8725 98.8925C66.8725 98.8925 65.9661 59.6583 38.9746 49.5106C5.94036 86.3335 42.3989 118.685 42.3989 118.685L66.8725 98.8925Z" fill="#008DFF"/>
<path d="M38.9746 49.5106C38.8739 49.6111 38.7732 49.7618 38.6725 49.8623L51.2618 94.3712L25.1264 82.0634C25.1264 82.3649 25.1264 82.6663 25.1264 83.0179L51.5639 95.4764L55.24 108.287L55.945 107.684L48.6936 82.1137L59.5707 69.404C59.4197 69.1026 59.3189 68.8514 59.1679 68.55L48.3914 81.109L39.4782 49.7116C39.3271 49.6111 39.1761 49.5609 38.9746 49.5106Z" fill="#01898C"/>
<path d="M54.3839 94.1201C54.3839 94.1201 29.155 64.1795 2.11322 69.7054C-7.90785 101.254 25.6804 117.781 25.6804 117.781L59.8729 119.941L54.3839 94.1201Z" fill="#42A5F5"/>
<path d="M32.1261 75.8342L29.7089 93.0149L2.76786 69.605C2.56643 69.605 2.31464 69.6552 2.11321 69.7054C2.06286 69.8059 2.06286 69.9566 2.0125 70.0571L16.465 82.616L0.451431 84.726C0.451431 84.8767 0.451431 85.0274 0.501788 85.1781L0.552144 85.58L17.3211 83.3696L41.3918 104.318L13.3932 108.94C13.645 109.191 13.9471 109.442 14.1989 109.643L42.2479 105.071L59.3189 119.941H59.9232L59.7218 119.138L30.5146 93.7182L32.9318 76.3366C32.68 76.1356 32.3779 75.9849 32.1261 75.8342Z" fill="white"/>
<path d="M50.8589 112.506C50.8589 112.506 19.1843 104.268 6.29286 122.051C23.4143 163.446 77.3971 144.657 77.3971 144.657L50.8589 112.506Z" fill="#11375B"/>
<path d="M6.29286 122.051C6.34322 122.202 6.44393 122.353 6.49429 122.503L50.1539 130.34L31.975 146.215C32.2771 146.315 32.6296 146.416 32.9318 146.516L51.2114 130.541L68.2825 133.605L67.4264 132.55L34.2411 126.623L23.6661 111.652C23.3639 111.703 23.0618 111.803 22.7596 111.853L33.0325 126.422L6.595 121.649C6.49429 121.8 6.39358 121.9 6.29286 122.051Z" fill="#00666A"/>
<path d="M134.553 59.9094C134.553 59.9094 147.243 20.9264 175.694 15.7019C197.902 42.3771 171.766 71.6144 171.766 71.6144L139.387 87.1875L134.553 59.9094Z" fill="#42A5F5"/>
<path d="M148.955 33.4351L158.069 49.2092L174.989 15.8024C175.241 15.8024 175.443 15.7521 175.694 15.7019C175.745 15.8024 175.845 15.9028 175.946 16.0033L166.882 33.8873L183.248 29.6172C183.298 29.8182 183.349 29.9689 183.399 30.1196L183.5 30.5215L166.328 34.9422L151.221 64.7321L180.226 58.2014C180.075 58.5531 179.874 58.9047 179.723 59.2564L150.667 65.787L139.941 86.9363L139.387 87.1875L139.236 86.2832L157.566 50.1637L148.35 34.1887C148.552 33.9375 148.753 33.6863 148.955 33.4351Z" fill="white"/>
<path d="M145.228 76.3868C145.228 76.3868 172.774 55.9408 192.262 68.1984C192.01 115.119 132.135 118.083 132.135 118.083L145.228 76.3868Z" fill="#008DFF"/>
<path d="M192.262 68.1983C192.262 68.3491 192.262 68.55 192.262 68.7007L152.983 93.467L176.853 101.706C176.601 101.957 176.299 102.158 176.047 102.409L151.976 94.0698L136.617 103.715L137.07 102.409L166.932 83.5705L171.263 64.8828C171.615 64.8326 171.918 64.7823 172.27 64.7321L168.04 82.9175L191.859 67.8969C192.01 67.9974 192.161 68.0979 192.262 68.1983Z" fill="#01898C"/>
<path d="M130.876 0.530663C140.545 0.530663 148.35 7.96557 148.35 17.1587V172.237C148.35 181.38 140.545 188.815 130.876 188.815H69.2897C59.6714 188.815 51.8157 181.38 51.8157 172.237V17.1587C51.8157 7.96557 59.6714 0.530663 69.2897 0.530663H130.876Z" fill="#42A5F5"/>
<path d="M132.891 3.49458C142.005 3.49458 145.681 10.5276 145.681 19.2184V170.177C145.681 178.868 142.005 185.901 132.891 185.901H68.5343C59.4196 185.901 54.4846 179.973 54.4846 171.282V18.1132C54.4846 9.42241 59.4196 3.49458 68.5343 3.49458H132.891Z" fill="#11375B"/>
<path d="M142.056 26.1007H58.06V162.34H142.056V26.1007Z" fill="white"/>
<path d="M100.914 182.183C104.842 182.183 108.014 178.968 108.014 175.1C108.014 171.182 104.842 168.017 100.914 168.017C96.9861 168.017 93.8136 171.182 93.8136 175.1C93.8136 178.968 96.9861 182.183 100.914 182.183Z" fill="white"/>
<path d="M100.914 181.028C104.238 181.028 106.906 178.366 106.906 175.1C106.906 171.785 104.238 169.122 100.914 169.122C97.5904 169.122 94.9214 171.785 94.9214 175.1C94.9214 178.366 97.6407 181.028 100.914 181.028Z" fill="#63C1C5"/>
<path d="M116.676 16.0535C116.877 16.0535 117.028 15.7521 117.028 15.4005C117.028 15.0991 116.877 14.7976 116.676 14.7976H83.9436C83.7925 14.7976 83.5911 15.0991 83.5911 15.4005C83.5911 15.7521 83.7421 16.0535 83.9436 16.0535H116.676Z" fill="#42A5F5"/>
<path d="M138.279 37.2028H62.29V158.673H138.279V37.2028Z" fill="#42A5F5"/>
<path d="M105.295 26.1007H57.3046C57.3046 42.7288 45.4204 58.4024 45.4204 58.4024H105.295V26.1007Z" fill="#FFD247"/>
<path d="M45.8232 58.1009C46.1254 61.517 49.0461 64.2297 52.5711 64.2297C56.0961 64.2297 59.0168 61.517 59.3693 58.1009H45.8232Z" fill="#F7A605"/>
<path d="M59.1175 58.1009C59.4196 61.517 62.3404 64.2297 65.8654 64.2297C69.3904 64.2297 72.3111 61.517 72.6636 58.1009H59.1175Z" fill="#F7A605"/>
<path d="M72.7139 58.1009C73.0161 61.517 75.9368 64.2297 79.4618 64.2297C83.0371 64.2297 85.9075 61.517 86.26 58.1009H72.7139Z" fill="#F7A605"/>
<path d="M86.0082 58.1009C86.3104 61.517 89.2311 64.2297 92.7561 64.2297C96.3314 64.2297 99.2018 61.517 99.5543 58.1009H86.0082Z" fill="#F7A605"/>
<path d="M105.295 58.1009H99.7054C100.008 61.1151 102.324 63.5767 105.295 64.079V58.1009Z" fill="#F7A605"/>
<path d="M94.3675 26.1007H142.358C142.358 42.7288 154.242 58.4024 154.242 58.4024H94.3675V26.1007Z" fill="#FFD247"/>
<path d="M153.89 58.1009C153.537 61.517 150.616 64.2297 147.091 64.2297C143.566 64.2297 140.646 61.517 140.293 58.1009H153.89Z" fill="#F7A605"/>
<path d="M140.595 58.1009C140.243 61.517 137.322 64.2297 133.797 64.2297C130.272 64.2297 127.351 61.517 126.999 58.1009H140.595Z" fill="#F7A605"/>
<path d="M126.999 58.1009C126.646 61.517 123.726 64.2297 120.201 64.2297C116.676 64.2297 113.755 61.517 113.403 58.1009H126.999Z" fill="#F7A605"/>
<path d="M113.705 58.1009C113.352 61.517 110.431 64.2297 106.906 64.2297C103.381 64.2297 100.461 61.517 100.108 58.1009H113.705Z" fill="#F7A605"/>
<path d="M94.3675 58.1009H99.9571C99.655 61.1151 97.3386 63.5767 94.3675 64.079V58.1009Z" fill="#F7A605"/>
<path d="M104.288 75.8342H68.9371V88.6443H104.288V75.8342Z" fill="white"/>
<path d="M104.288 97.737H68.9371V110.497H104.288V97.737Z" fill="#FFD248"/>
<path d="M130.222 119.087H110.129V139.131H130.222V119.087Z" fill="#63C1C5"/>
<path d="M77.7496 148.525C80.8718 148.726 88.2743 149.229 89.2311 149.179C90.1879 149.128 93.3604 150.033 96.8854 152.996C102.324 157.618 110.381 166.661 110.381 166.661C110.381 166.661 114.712 168.871 119.848 172.438C120.654 173.041 121.158 173.945 121.158 174.95H77.9511C77.9511 174.95 77.8 151.238 77.7496 148.525Z" fill="#67B8FA"/>
<path d="M77.9511 174.95L78.3539 188.362H92.3029L96.3818 188.312V188.362H98.245C98.6479 185.499 100.159 180.224 105.245 179.22C111.791 177.913 114.057 181.078 114.057 181.078L121.762 180.827V174.95H77.9511Z" fill="#42A5F5"/>
<path d="M119.697 187.056C118.69 187.609 117.431 188.111 115.769 188.413C116.625 184.042 114.057 181.078 114.057 181.078L121.762 180.827V179.772C122.618 179.672 122.719 180.877 122.668 182.234C122.568 184.243 121.46 186.052 119.697 187.056Z" fill="#008DFF"/>
<path d="M104.036 166.208C104.036 166.811 104.489 166.761 104.993 166.761C105.547 166.761 106 166.46 106 165.807V161.336C106 160.733 105.547 160.381 104.993 160.381C104.489 160.381 104.036 160.331 104.036 160.934V166.208Z" fill="#008DFF"/>
<path d="M82.2818 170.83C82.2818 171.132 82.4329 171.383 82.5839 171.383H88.7275C88.8786 171.383 89.0296 171.132 89.0296 170.83C89.0296 170.529 88.8786 170.328 88.7275 170.328H82.5839C82.4329 170.328 82.2818 170.529 82.2818 170.83Z" fill="#008DFF"/>
<path d="M79.3611 137.273H2.36501V186.001H79.3611V137.273Z" fill="#FFD248"/>
<path d="M79.5122 185.449H3.32179C2.11322 185.449 1.96215 186.403 1.96215 187.609C1.96215 188.815 2.11322 189.769 3.32179 189.769H79.5122V185.449Z" fill="#F7A605"/>
<path d="M114.712 181.179H79.5121V189.217H114.712V181.179Z" fill="#008DFF"/>
<path d="M107.36 197.204C112.748 197.204 117.079 192.884 117.079 187.508C117.079 182.133 112.748 177.813 107.36 177.813C101.971 177.813 97.6407 182.133 97.6407 187.508C97.6407 192.884 101.971 197.204 107.36 197.204Z" fill="#11375B"/>
<path d="M112.798 188.413C113.302 185.399 111.237 182.585 108.266 182.083C105.245 181.581 102.425 183.64 101.921 186.654C101.417 189.618 103.482 192.432 106.453 192.934C109.475 193.436 112.295 191.377 112.798 188.413Z" fill="#67B8FA"/>
<path d="M17.5225 197.204C22.9107 197.204 27.2414 192.884 27.2414 187.508C27.2414 182.133 22.9107 177.813 17.5225 177.813C12.1343 177.813 7.80357 182.133 7.80357 187.508C7.80357 192.884 12.1343 197.204 17.5225 197.204Z" fill="#11375B"/>
<path d="M23.0114 187.509C23.0114 190.523 20.5439 192.984 17.5225 192.984C14.5011 192.984 12.0336 190.523 12.0336 187.509C12.0336 184.494 14.5011 182.033 17.5225 182.033C20.5439 182.033 23.0114 184.494 23.0114 187.509Z" fill="#67B8FA"/>
<path d="M162.904 185.449H136.164V196.501H162.904V185.449Z" fill="#F7A605"/>
<path d="M200.42 185.449H178.766V196.501H200.42V185.449Z" fill="#FFD247"/>
<path d="M183.751 185.449H162.904V196.501H183.751V185.449Z" fill="#FCBC00"/>
<path d="M200.873 196.953H135.761V184.997H200.873V196.953ZM136.617 196.049H200.017V185.851H136.617V196.049Z" fill="#F49742"/>
<path d="M170.205 174.397H143.466V185.449H170.205V174.397Z" fill="#F7A605"/>
<path d="M207.721 174.397H186.017V185.449H207.721V174.397Z" fill="#FFD247"/>
<path d="M191.003 174.397H170.205V185.449H191.003V174.397Z" fill="#FCBC00"/>
<path d="M208.124 185.851H143.013V173.945H208.124V185.851ZM143.869 184.997H207.268V174.799H143.869V184.997Z" fill="#F49742"/>
<path d="M157.616 163.345H130.876V174.397H157.616V163.345Z" fill="#F7A605"/>
<path d="M195.132 163.345H173.428V174.397H195.132V163.345Z" fill="#FFD247"/>
<path d="M178.414 163.345H157.616V174.397H178.414V163.345Z" fill="#FCBC00"/>
<path d="M195.535 174.799H130.423V162.893H195.585V174.799H195.535ZM131.279 173.945H194.679V163.747H131.279V173.945Z" fill="#F49742"/>
<path d="M162.199 152.293H135.459V163.345H162.199V152.293Z" fill="#F7A605"/>
<path d="M199.715 152.293H178.011V163.345H199.715V152.293Z" fill="#FFD247"/>
<path d="M182.996 152.293H162.199V163.345H182.996V152.293Z" fill="#FCBC00"/>
<path d="M200.168 163.747H135.006V151.841H200.168V163.747ZM135.912 162.893H199.312V152.695H135.912V162.893Z" fill="#F49742"/>
<path d="M167.939 141.241H141.2V152.293H167.939V141.241Z" fill="#F7A605"/>
<path d="M205.455 141.241H183.751V152.293H205.455V141.241Z" fill="#FFD247"/>
<path d="M188.737 141.241H167.939V152.293H188.737V141.241Z" fill="#FCBC00"/>
<path d="M205.909 152.695H140.746V140.789H205.909V152.695ZM141.603 151.841H205.002V141.643H141.603V151.841Z" fill="#F49742"/>
<path d="M184.859 139.885C199.765 138.981 211.045 126.221 210.139 111.401C209.182 96.5816 196.391 85.2785 181.536 86.233C166.68 87.1373 155.35 99.8972 156.307 114.717C157.213 129.536 170.004 140.839 184.859 139.885Z" fill="#FFD247"/>
<path d="M181.234 133.605V128.883C177.658 128.833 173.982 127.627 171.867 126.422L173.63 122.754C175.845 123.96 178.716 124.915 182.14 124.915C186.471 124.915 189.391 123.156 189.391 120.293C189.391 117.58 187.025 115.872 182.493 114.365C176.248 112.406 172.421 110.095 172.421 105.775C172.421 101.605 175.996 98.4906 181.636 97.737V92.6632H185.413V97.5361C189.089 97.6366 191.607 98.4403 193.37 99.2943L191.557 103.163C190.248 102.56 188.082 101.756 184.154 101.756C179.421 101.756 177.658 103.163 177.658 105.172C177.658 107.734 179.924 109.04 185.262 110.849C191.557 112.958 194.729 115.521 194.729 119.992C194.729 123.91 191.355 127.929 185.061 128.733V133.656H181.234V133.605Z" fill="#FCBC00"/>
<path d="M185.464 92.6632H181.083V133.605H185.464V92.6632Z" fill="#FCBC00"/>
<path d="M183.197 140.99C167.738 140.99 155.149 128.481 155.149 113.059C155.149 97.6366 167.738 85.0776 183.197 85.0776C198.657 85.0776 211.246 97.6366 211.246 113.059C211.246 128.481 198.657 140.99 183.197 140.99ZM183.197 87.2377C168.946 87.2377 157.314 98.8422 157.314 113.059C157.314 127.276 168.946 138.88 183.197 138.88C197.499 138.88 209.081 127.276 209.081 113.059C209.081 98.8422 197.499 87.2377 183.197 87.2377Z" fill="#F7A605"/>
<path d="M28.8025 135.263C28.8025 135.263 29.155 135.766 30.9175 136.218C31.3204 136.318 31.7232 136.368 31.7232 137.021C30.9175 137.021 29.9607 137.021 29.9607 137.021L28.1982 136.72V137.021H27.2414C27.2414 137.021 26.9896 135.464 27.5436 135.263C28.0471 135.263 28.8025 135.263 28.8025 135.263Z" fill="#212B53"/>
<path d="M28.8529 134.108L28.7521 135.263C28.45 135.514 27.9464 135.514 27.5939 135.313L27.5436 135.263V134.108H28.8529Z" fill="#664E4E"/>
<path d="M19.8893 135.464C19.8893 135.464 20.2418 135.967 22.0043 136.419C22.4071 136.519 22.81 136.62 22.81 137.222C22.0043 137.222 21.0979 137.222 21.0979 137.222L19.285 136.921V137.222H18.3282C18.3282 137.222 18.0764 135.665 18.6304 135.464C19.1339 135.464 19.8893 135.464 19.8893 135.464Z" fill="#212B53"/>
<path d="M19.99 134.359L19.8893 135.464C19.5368 135.715 19.0836 135.715 18.6807 135.514L18.6304 135.464V134.359H19.99Z" fill="#664E4E"/>
<path d="M29.5579 106.528L29.155 134.711H27.0904C27.0904 134.711 23.9682 111.954 24.6229 106.528C25.2775 101.103 29.5579 106.528 29.5579 106.528Z" fill="#00666A"/>
<path d="M27.3925 106.528C27.3925 106.528 26.6875 115.169 25.0257 119.992C23.3639 124.764 20.3929 134.711 20.3929 134.711H18.2779C18.2779 134.711 21.8532 113.913 21.0475 106.528H27.3925Z" fill="#01898C"/>
<path d="M21.7021 107.282L22.4575 109.191C22.81 109.944 24.1697 109.944 25.0761 109.693C25.2272 109.693 25.2775 109.492 25.1768 109.392C24.6732 108.839 23.4143 107.483 22.9611 107.131L21.7021 107.282Z" fill="#664E4E"/>
<path d="M29.3061 106.528V94.2708H29.5579V106.528H29.3061Z" fill="#93CFC7"/>
<path d="M24.3207 88.3429L25.1264 91.4575C25.1264 91.4575 25.8314 92.0101 26.7882 91.759C27.745 91.5078 27.5436 90.8547 27.5436 90.8547L26.9896 88.8453H25.5293L24.3207 88.3429Z" fill="#664E4E"/>
<path d="M27.2918 89.3979C27.5939 89.2974 27.8457 89.1969 27.9464 89.0462C28.3997 87.4889 26.5364 84.1734 26.5364 84.1734L23.6157 85.5297L24.1697 87.941C24.3207 88.5941 24.7739 89.0965 25.3782 89.3979C25.9825 89.5988 26.6875 89.5988 27.2918 89.3979Z" fill="#664E4E"/>
<path d="M25.0761 85.2283C25.0761 85.2283 26.1336 85.1278 27.1407 84.6757C28.1479 84.2236 27.1407 83.2189 27.1407 83.2189C27.1407 83.2189 26.4861 83.7715 25.0257 83.9222C24.0689 84.0729 23.7668 83.9222 23.2632 84.4245C22.5582 85.0776 23.1121 86.4842 23.1121 86.4842L24.4214 89.4984L24.5725 89.4481C24.5725 89.4481 24.1193 87.5894 23.9682 86.9363C24.0689 86.6349 24.2704 86.5847 24.4214 86.5847C24.5725 86.6349 24.7236 86.7856 24.7739 86.9363L25.63 90.2017C25.63 90.2017 27.9464 90.5031 28.3996 90.2017C28.9032 89.9002 27.8961 87.6396 27.8961 87.6396C27.8961 87.6396 27.2414 87.5392 26.8889 88.1922C26.5868 88.795 25.8818 88.4434 25.8818 88.4434L25.0761 85.2283Z" fill="#212B53"/>
<path d="M33.9893 93.266L33.8886 92.8642C33.7375 91.9599 32.8814 90.8045 31.975 90.5533H31.0686L31.3707 92.4623L32.6296 93.266H33.9893Z" fill="#664E4E"/>
<path d="M24.1193 86.5847C24.3711 86.4842 24.6229 86.6851 24.7739 86.9363C24.8746 87.2377 24.7739 87.5392 24.5725 87.5894C24.3207 87.6899 24.0689 87.5392 23.9682 87.2377C23.8171 86.9363 23.9179 86.6349 24.1193 86.5847Z" fill="#664E4E"/>
<path d="M31.7232 92.2613L33.4857 93.266H32.3779L30.5146 91.7087C30.5146 91.7087 30.6657 91.4073 31.0686 91.6585C31.4714 91.9097 31.7232 92.2613 31.7232 92.2613Z" fill="#664E4E"/>
<path d="M21.9539 99.0432C21.9539 100.5 23.2632 105.825 23.5654 107.081C23.4647 107.131 23.4647 107.131 23.3136 107.131C22.9611 105.624 21.7021 100.5 21.7021 99.0432C21.7021 97.3351 24.925 94.8736 25.0257 94.7731L25.1768 94.9741C25.1768 95.0243 21.9539 97.4356 21.9539 99.0432Z" fill="#93CFC7"/>
<path d="M30.565 89.3476C30.565 89.3476 30.4643 91.2566 31.8239 92.613C31.8743 92.7134 32.0254 92.7637 32.1764 92.7637C32.4282 92.7637 32.6296 92.613 32.7304 92.5627C32.9821 92.5125 33.0325 92.3618 33.0829 92.2613C33.1332 92.2111 33.0829 92.1106 33.0325 92.0101C32.7304 91.7087 31.8743 90.6035 32.0757 89.4984C31.3707 89.0462 30.565 89.3476 30.565 89.3476Z" fill="#00666A"/>
<path d="M32.8814 92.5125C33.0325 92.412 33.0325 92.3618 33.0829 92.2613C33.1332 92.1609 33.0829 92.1106 33.0325 92.0101C32.7304 91.7087 31.8743 90.6035 32.0757 89.4984C31.8239 89.3476 31.5721 89.2974 31.3707 89.2472C31.4714 90.4528 31.8239 91.1561 32.8814 92.5125Z" fill="#01898C"/>
<path d="M31.8239 90.7542C31.9246 91.0054 32.0757 91.2064 32.1764 91.1561C32.2771 91.1059 32.2771 90.8547 32.1764 90.6035C32.0757 90.3524 31.9246 90.1514 31.8239 90.2017C31.7232 90.2519 31.7232 90.5031 31.8239 90.7542Z" fill="#00666A"/>
<path d="M31.8239 90.2017H31.9246V90.2521L31.8743 90.3026L31.8239 90.2017Z" fill="#F59C42"/>
<path d="M32.1261 91.1564L32.2771 91.1059H32.1261V91.1564Z" fill="#E8375E"/>
<path d="M31.9246 90.704C31.975 91.0054 32.1261 91.1561 32.2268 91.1059C32.3275 91.1059 32.3779 90.8547 32.2772 90.6035C32.1764 90.3021 32.0254 90.1514 31.9246 90.2017C31.8239 90.2017 31.8239 90.4528 31.9246 90.704Z" fill="#63C1C5"/>
<path d="M29.9104 87.8406H29.7089C29.3061 87.8908 29.0543 88.2425 29.1047 88.5941L29.155 89.1467C29.2054 89.5486 29.5579 89.7998 29.9607 89.7495L30.1621 89.6993L29.9104 87.8406Z" fill="#00666A"/>
<path d="M36.3057 87.5894C36.5072 89.0462 36.3057 90.3021 35.9029 90.3524C35.4497 90.4026 34.9461 89.2472 34.795 87.7401C34.5936 86.2833 34.795 85.0274 35.1979 84.9771C35.6511 84.9269 36.1043 86.0823 36.3057 87.5894Z" fill="#212B53"/>
<path d="M34.6439 86.7856L35.2986 87.087L35.3993 87.941L34.8454 88.5941L34.4929 87.4889L34.6439 86.7856Z" fill="white"/>
<path d="M34.795 87.7401C34.6439 86.4842 34.7447 85.4292 35.0468 85.0776C32.7304 87.2377 29.8096 87.8406 29.8096 87.8406L30.0614 89.7495C30.0614 89.7495 33.9893 88.996 35.6511 90.2519C35.2986 90.0007 34.9461 88.996 34.795 87.7401Z" fill="#043C5E"/>
<path d="M35.3993 87.4889C35.4496 87.7401 35.4496 87.941 35.3993 87.941C35.3489 87.941 35.2986 87.7903 35.2482 87.5391C35.1979 87.288 35.2482 87.087 35.2986 87.087C35.2986 87.087 35.3993 87.288 35.3993 87.4889Z" fill="#FFD247"/>
<path d="M32.9821 91.8594C32.9318 91.9097 32.7304 92.0101 32.0254 92.0101C31.4714 92.0101 31.27 91.4073 31.1693 91.0557C31.1693 90.9552 31.1189 90.7542 31.27 90.704L32.0757 90.5533L32.9821 91.8594Z" fill="#664E4E"/>
<path d="M72.8147 158.07L70.4479 162.491L73.0664 162.34L73.2679 157.92L72.8147 158.07Z" fill="#664E4E"/>
<path d="M76.5411 156.111H74.3254L73.4693 170.127H77.3468L76.5411 156.111Z" fill="white"/>
<path d="M80.5193 197.254C80.5193 197.254 81.0732 197.656 80.9725 198.209C80.8718 198.761 80.7207 199.967 80.7207 199.967H80.1668V198.812C80.1668 198.761 79.0086 199.967 78.8071 199.967H75.8864C75.8864 199.967 75.685 199.213 77.3971 198.962C79.1093 198.711 80.5193 197.254 80.5193 197.254Z" fill="#043C5E"/>
<path d="M79.2604 196.702L78.8575 197.706C78.7568 198.008 78.5554 198.259 78.3036 198.41C78.0518 198.611 77.5986 198.862 76.9439 199.013C77.7496 199.716 79.0086 199.013 79.7136 198.51C80.0661 198.259 80.3179 197.907 80.4186 197.505L80.62 196.702H79.2604Z" fill="#664E4E"/>
<path d="M74.9296 197.254C74.9296 197.254 75.4836 197.656 75.3829 198.209C75.2821 198.761 75.1311 199.967 75.1311 199.967H74.5771L74.6275 198.812C74.6275 198.761 73.4189 199.967 73.2175 199.967H70.2968C70.2968 199.967 70.0954 199.213 71.8075 198.962C73.5196 198.711 74.9296 197.254 74.9296 197.254Z" fill="#043C5E"/>
<path d="M73.6707 196.702L73.2679 197.706C73.1671 198.008 73.0161 198.259 72.7643 198.41C72.4621 198.611 72.0089 198.862 71.3543 199.013C72.16 199.716 73.4189 199.013 74.1743 198.51C74.5268 198.259 74.7786 197.907 74.8793 197.505L75.0304 196.702H73.6707Z" fill="#664E4E"/>
<path d="M78.2029 170.127C78.2029 170.127 78.5554 172.187 76.4404 182.485C78.1525 187.86 75.4332 196.852 75.4332 196.852H73.4693L72.1096 170.127H78.2029Z" fill="#212B53"/>
<path d="M74.5771 156.111L73.8721 173.091L71.5557 172.086C71.5557 172.086 72.6132 168.921 72.5125 164.45C72.865 161.285 71.0521 162.943 73.2679 156.764C74.1239 156.111 74.5771 156.111 74.5771 156.111Z" fill="#00666A"/>
<path d="M74.275 154.353L74.5771 155.759C74.6779 156.413 75.3829 156.714 75.9368 156.362L76.8936 155.759L75.1814 151.891L74.275 154.353Z" fill="#664E4E"/>
<path d="M80.1164 170.127C80.1164 170.127 82.6846 172.187 80.62 182.485C82.2818 187.86 80.8214 196.852 80.8214 196.852H79.0086L74.0232 170.127H80.1164Z" fill="#043C5E"/>
<path d="M76.5411 154.654C76.5411 154.654 78.7064 155.86 79.4114 156.965C80.0661 158.02 80.2675 160.431 80.3179 162.541C80.4186 165.455 81.8286 173.091 81.8286 173.091H75.9368L75.7857 156.412L76.5411 154.654Z" fill="#00666A"/>
<path d="M72.2104 150.033C73.5196 149.681 74.8289 151.037 74.8289 151.037L75.7857 156.412L77.3468 154.051C77.3468 154.051 77.4475 150.836 75.9368 148.726C74.8793 147.42 72.8146 147.772 71.8075 149.028C71.3039 149.681 71.2032 150.485 71.2536 151.288C71.3039 152.343 71.6061 158.271 71.6061 158.271L74.6275 156.061C74.6275 156.061 74.5771 155.458 74.275 154.353C73.7714 152.444 71.3039 150.233 72.2104 150.033Z" fill="#212B53"/>
<path d="M75.1814 150.987C75.0304 150.887 74.7282 151.037 74.6275 151.288C74.5268 151.489 74.5771 151.791 74.7786 151.841C74.98 151.942 75.2318 151.791 75.3325 151.54C75.4836 151.339 75.3829 151.037 75.1814 150.987Z" fill="#664E4E"/>
<path d="M73.7714 154.604C73.5196 154.654 73.2679 154.704 73.1168 154.654C71.9586 153.85 71.5557 150.485 71.5557 150.485L72.4621 149.53L74.275 149.932L75.1814 151.891C75.4332 152.444 75.3829 153.047 75.1311 153.549C74.7786 154.001 74.3254 154.403 73.7714 154.604Z" fill="#664E4E"/>
<path d="M71.9082 149.982C71.9586 150.987 74.7786 151.037 74.7786 151.037L74.9297 149.681L73.3182 148.777L72.0089 149.58C72.0089 149.58 71.8579 149.781 71.9082 149.982Z" fill="#212B53"/>
<path d="M71.9586 150.133C72.0593 150.535 71.6564 151.188 71.6564 151.188L71.455 150.786V150.434L71.6564 150.183C71.6564 150.183 71.8579 149.781 71.9586 150.133Z" fill="#212B53"/>
<path d="M78.8071 156.965C81.6271 157.317 80.3179 164.651 79.7136 167.665C79.5625 168.369 78.7568 168.821 78.0518 168.62C75.5843 167.816 71.9586 164.601 71.9586 164.601L72.5125 163.847L77.3468 165.003C77.3468 165.003 75.4836 156.613 78.8071 156.965Z" fill="#664E4E"/>
<path d="M73.1168 162.139L74.0232 167.917C74.0736 168.067 73.9225 168.218 73.7714 168.218H70.0954C69.9443 168.218 69.8436 168.117 69.7932 167.967L68.8868 162.24C68.8868 162.089 68.9875 161.938 69.1889 161.938H72.8146C72.9657 161.938 73.0664 162.039 73.1168 162.139Z" fill="white"/>
<path d="M69.0379 164.701C68.9875 164.5 69.0379 164.35 69.0882 163.948C69.1889 163.395 69.1386 162.541 69.6925 162.993C70.2464 163.646 70.2968 164.35 70.2968 164.35C70.3975 164.701 70.1457 165.254 69.9443 165.555L69.5414 166.359C69.5414 166.359 68.8868 165.606 69.0379 164.701Z" fill="#664E4E"/>
<path d="M45.0175 159.577L51.3121 165.656L49.2979 167.213L44.9671 163.847L45.0175 159.577Z" fill="#00666A"/>
<path d="M44.3125 152.946L44.665 155.609L42.1471 154.453L42.6004 152.092L44.3125 152.946Z" fill="#664E4E"/>
<path d="M45.0175 153.298C45.37 153.298 45.6721 153.248 45.8232 153.097C46.78 151.741 45.6721 148.124 45.6721 148.124L42.2479 148.676L42.1471 151.088C42.1471 151.741 42.4493 152.394 43.0032 152.796C43.6075 153.147 44.3125 153.298 45.0175 153.298Z" fill="#664E4E"/>
<path d="M48.0893 147.621C48.3914 149.229 44.8161 149.078 43.6579 148.978C43.4564 148.978 43.255 149.128 43.3054 149.329V149.731L42.7514 150.384C42.4493 150.736 41.8954 150.686 41.7443 150.284C41.3414 149.379 40.8882 148.073 41.5429 147.621C42.6004 146.868 43.9096 148.124 44.5643 147.37C45.3196 146.566 46.2261 146.516 46.2261 146.516C46.2261 146.516 47.7871 146.014 48.0893 147.621Z" fill="#212B53"/>
<path d="M42.4996 149.681C42.7011 149.48 43.0536 149.53 43.3054 149.731C43.5571 149.932 43.6075 150.233 43.4061 150.384C43.2046 150.585 42.8522 150.535 42.6004 150.334C42.3989 150.133 42.3486 149.832 42.4996 149.681Z" fill="#664E4E"/>
<path d="M46.4275 170.428L44.665 155.609L41.7947 154.303C41.7947 154.303 36.8093 161.838 37.5647 170.428C39.5286 170.428 46.4275 170.428 46.4275 170.428Z" fill="#01898C"/>
<path d="M46.4275 170.428C46.4275 170.428 48.4418 179.923 48.0893 182.786C47.7368 185.65 46.4275 196.45 46.4275 196.45H44.2118L44.4636 188.463C44.4132 184.997 43.6075 181.53 42.0968 178.416L40.8379 175.753L41.7443 170.428H46.4275Z" fill="#212B53"/>
<path d="M45.9239 197.757C45.9239 197.757 46.8304 198.56 48.8446 199.063C49.2979 199.213 49.8014 199.013 49.8014 199.766C48.8446 199.766 47.3339 199.766 47.3339 199.766L45.2693 199.414V199.766H44.1614C44.1614 199.766 43.8593 197.958 44.5139 197.706C45.1182 197.757 45.9239 197.757 45.9239 197.757Z" fill="#212B53"/>
<path d="M46.0246 196.45L45.9239 197.757C45.5211 198.008 45.0175 198.008 44.5643 197.757H44.5139V196.45H46.0246Z" fill="#664E4E"/>
<path d="M34.1907 197.003C34.1907 197.003 34.1907 198.359 37.0107 199.213C37.5646 199.364 37.3632 199.565 37.4639 199.766C36.5575 199.766 34.2914 199.766 34.2914 199.766L33.0325 198.359L32.6297 198.711L31.7232 197.807C31.7232 197.807 32.1261 196.551 32.8311 196.551C33.385 196.702 34.1907 197.003 34.1907 197.003Z" fill="#212B53"/>
<path d="M34.6943 195.797L34.1907 197.003C33.7375 197.104 33.2339 196.953 32.8814 196.601L32.8311 196.551L33.2843 195.295L34.6943 195.797Z" fill="#664E4E"/>
<path d="M44.665 170.428C44.665 170.428 42.8018 180.023 40.7875 184.695C39.0754 188.614 34.9461 195.898 34.9461 195.898L33.0325 195.295L36.6079 183.741C36.91 182.736 37.1114 181.731 37.1618 180.727L37.5646 170.479H44.665V170.428Z" fill="#043C5E"/>
<path d="M45.5211 165.957H52.3193C52.6718 165.957 52.9739 165.656 52.9739 165.304V164.802C52.9739 164.45 52.6718 164.149 52.3193 164.149H45.5211C45.1686 164.149 44.8664 164.45 44.8664 164.802V165.304C44.9168 165.656 45.1686 165.957 45.5211 165.957Z" fill="#F7A605"/>
<path d="M51.715 166.008C51.715 166.008 51.7654 165.957 51.7654 165.907V164.149C51.7654 164.099 51.715 164.099 51.715 164.099C51.6646 164.099 51.6143 164.099 51.6143 164.149V165.907C51.6143 165.957 51.6646 166.008 51.715 166.008Z" fill="white"/>
<path d="M50.6071 166.008C50.6575 166.008 50.6575 165.957 50.6575 165.907V164.149C50.6575 164.099 50.6575 164.099 50.6071 164.099C50.5568 164.099 50.5064 164.099 50.5064 164.149V165.907C50.5064 165.957 50.5568 166.008 50.6071 166.008Z" fill="white"/>
<path d="M49.4993 166.008C49.5497 166.008 49.6 165.957 49.6 165.907V164.149C49.6 164.099 49.5497 164.099 49.4993 164.099C49.4489 164.099 49.4489 164.099 49.4489 164.149V165.907C49.4489 165.957 49.4489 166.008 49.4993 166.008Z" fill="white"/>
<path d="M48.4921 166.008C48.5425 166.008 48.5929 165.957 48.5929 165.907V164.149C48.5929 164.099 48.5425 164.099 48.4921 164.099C48.4921 164.099 48.4418 164.099 48.4418 164.149V165.907C48.4418 165.957 48.4921 166.008 48.4921 166.008Z" fill="white"/>
<path d="M47.4346 166.008C47.485 166.008 47.5354 165.957 47.5354 165.907V164.149C47.5354 164.099 47.485 164.099 47.4346 164.099C47.3843 164.099 47.3843 164.099 47.3843 164.149V165.907C47.3843 165.957 47.3843 166.008 47.4346 166.008Z" fill="white"/>
<path d="M46.4275 166.008C46.4779 166.008 46.4779 165.957 46.4779 165.907V164.149C46.4779 164.099 46.4779 164.099 46.4275 164.099C46.3771 164.099 46.3268 164.099 46.3268 164.149V165.907C46.3268 165.957 46.3771 166.008 46.4275 166.008Z" fill="white"/>
<path d="M45.4707 167.414H53.1754C53.2761 167.414 53.3768 167.314 53.3768 167.213V165.957C53.3768 165.857 53.2761 165.756 53.1754 165.756H45.4707C45.37 165.756 45.2693 165.857 45.2693 165.957V167.213C45.2693 167.314 45.37 167.414 45.4707 167.414Z" fill="#043C5E"/>
<path d="M45.8736 164.149H53.7796V162.742H45.8736V164.149Z" fill="white"/>
<path d="M47.1325 163.797H52.3193V163.144H47.1325V163.797Z" fill="#FFD248"/>
<path d="M43.4061 159.477C43.4061 159.477 42.2479 162.491 41.7947 164.048C41.6939 164.45 41.845 164.902 42.2479 165.154C44.3125 166.46 50.9093 167.464 50.9093 167.464V168.57C50.9093 168.57 41.6436 169.474 38.1186 167.364C37.2121 166.862 36.8596 165.656 37.2121 164.651C38.1689 162.139 40.3343 157.015 40.3343 157.015" fill="#01898C"/>
<path d="M41.7443 163.998C42.1975 162.491 43.3557 159.427 43.3557 159.427L43.5572 159.477C43.5572 159.527 42.3989 162.541 41.9961 164.048C41.8954 164.45 42.0464 164.852 42.3486 165.053C43.3054 165.706 44.3125 166.058 44.9672 166.208C44.9672 166.309 44.9672 166.359 44.9672 166.46C44.2622 166.309 43.3054 165.957 42.2479 165.254C41.845 164.953 41.6436 164.45 41.7443 163.998Z" fill="#00666A"/>
<path d="M37.2121 164.651C38.1689 162.139 38.9243 160.381 38.9243 160.331L39.1257 160.431C39.1257 160.482 38.3704 162.24 37.4639 164.752C37.1114 165.706 37.4639 166.811 38.32 167.263C41.2911 168.871 45.37 168.72 46.075 168.67H46.2261V168.871C46.2261 168.871 45.7729 168.921 45.0679 168.921C43.4564 168.921 40.5357 168.72 38.2193 167.464C37.2625 166.962 36.8596 165.756 37.2121 164.651Z" fill="#00666A"/>
<path d="M50.9093 168.57L52.6718 168.067C53.3768 167.816 53.5279 166.61 53.3768 165.756C53.3768 165.656 53.2257 165.606 53.125 165.656C52.6214 166.058 51.2618 167.063 50.9093 167.414V168.57Z" fill="#664E4E"/>
<path d="M163.306 189.417L161.796 187.107L160.738 187.81L162.249 190.121C162.753 190.975 162.803 192.03 162.35 192.884C161.846 193.788 160.94 194.29 159.933 194.29H143.264V195.546L159.933 195.596C161.443 195.596 162.753 194.793 163.458 193.487C164.163 192.231 164.112 190.673 163.306 189.417Z" fill="#11375B"/>
<path d="M136.516 174.598H162.652L161.594 187.408L143.566 187.609L136.516 174.598Z" fill="#42A5F5"/>
<path d="M162.501 168.218L160.94 186.755H143.919L137.473 174.548H136.013L143.164 188.011H162.148L163.709 169.474H169.299V168.218H162.501Z" fill="#11375B"/>
<path d="M151.17 197.355C151.17 198.46 150.264 199.414 149.156 199.414C148.048 199.414 147.091 198.46 147.091 197.355C147.091 196.25 148.048 195.345 149.156 195.345C150.264 195.345 151.17 196.25 151.17 197.355Z" fill="#11375B"/>
<path d="M150.264 197.355C150.264 197.958 149.76 198.46 149.156 198.46C148.552 198.46 148.048 197.958 148.048 197.355C148.048 196.752 148.552 196.25 149.156 196.25C149.76 196.25 150.264 196.752 150.264 197.355Z" fill="#42A5F5"/>
<path d="M158.875 197.355C158.875 198.46 157.969 199.414 156.861 199.414C155.753 199.414 154.846 198.46 154.846 197.355C154.846 196.25 155.753 195.345 156.861 195.345C157.969 195.345 158.875 196.25 158.875 197.355Z" fill="#11375B"/>
<path d="M157.969 197.355C157.969 197.958 157.465 198.46 156.861 198.46C156.256 198.46 155.753 197.958 155.753 197.355C155.753 196.752 156.256 196.25 156.861 196.25C157.465 196.25 157.969 196.752 157.969 197.355Z" fill="#42A5F5"/>
<path d="M175.845 154.554L176.55 158.02L178.313 154.905L177.406 153.449L175.845 154.554Z" fill="#664E4E"/>
<path d="M172.119 196.702C172.119 196.702 172.874 197.104 172.723 197.757C172.622 198.41 172.421 199.465 172.421 199.465H171.968V198.661C171.968 198.611 171.867 198.51 171.766 198.611L170.91 199.213C170.709 199.364 170.457 199.465 170.205 199.465H166.63C166.63 199.465 166.63 198.309 168.745 198.008C170.81 197.706 172.119 196.702 172.119 196.702Z" fill="#212B53"/>
<path d="M171.061 195.446L170.608 196.752C170.508 197.003 170.306 197.254 170.054 197.405C169.803 197.606 169.349 197.807 168.695 198.008C169.5 198.661 170.759 198.008 171.464 197.505C171.817 197.254 172.069 196.903 172.169 196.501L172.421 195.446H171.061Z" fill="#664E4E"/>
<path d="M188.435 195.697C188.435 195.697 189.341 195.747 189.442 196.4C189.593 197.053 189.845 198.108 189.845 198.108L189.391 198.259L189.089 197.556C189.039 197.455 188.938 197.455 188.888 197.556L188.334 198.259C188.183 198.46 187.478 199.364 187.226 199.465H183.55C183.55 199.465 183.651 198.51 185.866 198.158C187.931 197.857 188.435 195.697 188.435 195.697Z" fill="#212B53"/>
<path d="M187.025 194.893L187.075 196.3C187.125 196.601 187.025 196.903 186.874 197.104C186.672 197.405 186.37 197.757 185.866 198.158C186.823 198.51 187.73 197.405 188.183 196.651C188.435 196.3 188.485 195.898 188.435 195.496L188.284 194.391L187.025 194.893Z" fill="#664E4E"/>
<path d="M174.989 154.654C174.687 154.654 174.385 154.604 174.234 154.453C173.328 152.996 174.385 149.028 174.385 149.028L177.709 149.631L177.809 152.293C177.86 152.996 177.558 153.65 177.004 154.102C176.399 154.453 175.694 154.654 174.989 154.654Z" fill="#664E4E"/>
<path d="M175.04 171.986C172.975 176.507 172.874 185.248 172.874 185.248L170.81 195.446H172.673C172.673 195.446 178.816 182.435 179.27 178.767C179.723 175.05 178.263 172.136 178.263 172.136L176.45 169.424C176.45 169.424 175.845 170.077 175.04 171.986Z" fill="#212B53"/>
<path d="M177.356 174.548C177.356 174.548 178.615 179.571 181.939 185.348C184.205 189.217 186.723 195.195 186.723 195.195L188.435 194.491C188.435 194.491 187.579 188.764 185.212 183.942C184.759 182.937 184.507 181.832 184.507 180.727C184.557 175.452 183.198 171.031 183.198 171.031L177.356 174.548Z" fill="#043C5E"/>
<path d="M178.313 154.905C178.313 154.905 175.443 159.075 174.586 161.084C174.435 161.486 174.385 161.938 174.486 162.391C175.896 168.921 176.45 174.045 176.651 174.849C180.68 174.749 183.6 170.529 183.6 170.529C183.6 170.529 182.996 169.273 182.341 167.816C181.435 165.857 180.931 163.797 180.78 161.687C180.629 158.824 180.126 156.714 180.126 156.714L178.313 154.905Z" fill="white"/>
<path d="M177.809 147.671C177.809 147.671 178.111 146.365 178.816 146.014C179.773 145.562 181.888 145.712 182.492 149.028C183.097 152.343 181.435 151.992 181.385 153.298C181.334 154.654 184.607 155.106 184.809 157.769C185.01 160.431 184.255 160.984 184.255 160.984C184.255 160.984 183.399 162.692 181.787 162.039C181.284 161.436 181.334 160.733 181.234 160.18C181.133 159.628 180.831 159.125 180.377 158.774C179.723 158.321 178.615 157.568 178.464 156.463C178.262 155.408 178.716 154.252 179.169 153.449C179.622 152.595 179.874 151.64 179.874 150.686C179.874 149.832 179.874 148.877 179.672 148.475C179.32 147.621 178.816 148.124 178.816 148.124L177.809 147.671Z" fill="#212B53"/>
<path d="M174.385 149.028C174.385 149.028 175.191 146.817 177.809 147.923C178.111 148.073 178.111 148.073 178.716 148.475C180.529 151.188 177.809 152.846 177.809 152.846L176.752 150.786C176.752 150.786 175.795 150.887 175.14 150.384C174.536 149.832 174.385 149.028 174.385 149.028Z" fill="#212B53"/>
<path d="M177.457 150.686C177.306 150.535 176.953 150.535 176.701 150.786C176.45 150.987 176.399 151.339 176.601 151.489C176.802 151.69 177.104 151.64 177.356 151.439C177.608 151.188 177.658 150.887 177.457 150.686Z" fill="#664E4E"/>
<path d="M177.406 147.772L177.608 147.571C177.709 147.42 177.96 147.37 178.111 147.521L178.716 147.923C178.867 148.023 178.867 148.174 178.816 148.325L178.716 148.475L177.406 147.772Z" fill="#FFD247"/>
<path d="M176.853 160.331C176.853 160.331 176.399 158.372 178.313 158.02C179.874 157.769 180.075 159.628 180.075 159.628C180.075 159.628 180.982 167.364 179.673 168.117C178.313 168.871 170.004 169.424 170.004 169.424L168.997 169.072C168.493 168.921 168.09 168.519 167.839 168.017L167.587 167.364L169.954 168.318C169.954 168.318 177.809 166.862 177.809 165.957C177.809 165.053 176.853 160.331 176.853 160.331Z" fill="#664E4E"/>
<path d="M155.551 139.332H151.12C150.566 139.383 149.911 139.583 149.76 140.086C149.76 140.086 149.71 140.387 149.71 140.739C149.861 140.94 155.753 140.739 155.753 140.739V140.689C156.408 139.935 155.551 139.332 155.551 139.332Z" fill="#11375B"/>
<path d="M149.71 140.739L155.753 140.689L155.703 140.94H149.71V140.739Z" fill="#212B53"/>
<path d="M153.789 139.332H153.386L153.537 139.885H153.89L153.789 139.332Z" fill="white"/>
<path d="M152.933 139.332H152.53L152.681 139.885H153.084L152.933 139.332Z" fill="white"/>
<path d="M155.854 137.875L155.551 139.332C155.199 139.533 154.746 139.533 154.343 139.383L154.293 139.332L154.091 137.875H155.854Z" fill="#664E4E"/>
<path d="M165.925 139.332H161.494C160.889 139.383 160.235 139.583 160.134 140.086C160.134 140.086 160.033 140.387 160.084 140.739C160.235 140.94 166.076 140.739 166.076 140.739L166.126 140.689C166.731 139.935 165.925 139.332 165.925 139.332Z" fill="#212B53"/>
<path d="M160.033 140.739L166.076 140.689L166.026 140.94H160.033V140.739Z" fill="#212B53"/>
<path d="M164.163 139.332H163.76L163.86 139.885H164.263L164.163 139.332Z" fill="white"/>
<path d="M163.306 139.332H162.904L163.004 139.885H163.407L163.306 139.332Z" fill="white"/>
<path d="M165.724 137.875L165.925 139.332C165.573 139.533 165.069 139.533 164.716 139.383L164.666 139.332L163.961 137.875H165.724Z" fill="#664E4E"/>
<path d="M159.127 88.3932L162.753 90.7542L161.645 93.6679C161.594 93.6679 161.594 93.7182 161.544 93.7684C161.494 93.7684 161.393 93.7684 161.343 93.7684C161.292 93.7684 161.292 93.7684 161.292 93.7684H161.242C160.285 93.7684 159.429 94.3712 158.925 95.175C158.321 95.1248 157.767 94.9741 157.213 94.7229C156.81 94.5219 156.508 94.321 156.408 94.12C156.005 92.0604 159.127 88.3932 159.127 88.3932Z" fill="#664E4E"/>
<path d="M154.444 89.1467C154.444 89.1467 154.041 93.3665 154.897 96.0792C154.494 96.4309 152.983 98.0887 152.48 95.9285C152.026 93.8186 153.034 88.3932 153.034 88.3932L154.444 89.1467Z" fill="#664E4E"/>
<path d="M156.659 88.8453L157.515 89.3979L157.213 90.0509L156.307 89.6491L156.659 88.8453Z" fill="#212B53"/>
<path d="M157.163 89.6491C157.062 89.7998 157.062 90.0007 157.163 90.0509C157.213 90.0509 157.364 89.9505 157.465 89.7495C157.515 89.5486 157.515 89.3477 157.465 89.3477C157.364 89.2974 157.264 89.4481 157.163 89.6491Z" fill="#212B53"/>
<path d="M146.286 85.7307C146.437 85.3288 146.739 84.7762 147.142 84.2236C147.746 83.3696 147.948 82.9175 147.948 82.9175L156.81 88.6946L156.206 89.7998L146.286 86.1325C146.286 86.0321 146.336 85.8814 146.286 85.7307Z" fill="#63C1C5"/>
<path d="M159.933 95.175L160.235 97.1342H157.415L157.213 94.7229L159.933 95.175Z" fill="#664E4E"/>
<path d="M152.631 100.098C152.631 100.098 149.307 99.0432 148.25 97.5863C147.192 96.1797 149.005 88.3932 149.005 88.3932L148.753 86.9866C148.653 86.233 149.206 85.4795 150.012 85.4795H150.919C151.271 85.4795 151.523 85.8814 151.372 86.1828L150.214 88.8453C150.214 88.8453 149.358 94.7229 150.566 95.175C152.026 95.6774 153.688 95.8281 153.688 95.8281L152.631 100.098Z" fill="#664E4E"/>
<path d="M158.875 95.175L159.731 93.266L159.177 92.9144C158.774 92.6632 158.573 92.1609 158.724 91.7087L159.379 89.9002C159.379 89.9002 157.616 89.6993 157.666 88.0917C157.666 87.288 158.825 87.288 158.825 87.288C158.825 87.288 159.177 87.9913 160.235 88.0917C160.688 88.0415 161.947 88.1922 162.803 89.6491C163.357 90.6538 163.105 92.2111 162.601 93.3665C162.148 94.4215 161.04 94.9741 159.933 95.175H158.875Z" fill="#212B53"/>
<path d="M162.249 111.1C162.249 111.1 162.098 115.119 161.242 119.489C160.94 120.795 161.04 122.101 161.494 123.357C163.458 129.285 166.227 138.127 166.227 138.127H163.76C163.76 138.127 158.17 127.627 156.71 122.453C155.249 117.279 154.998 115.621 154.998 115.621L156.76 111.1H162.249Z" fill="#212B53"/>
<path d="M160.184 92.412C160.285 92.7134 160.084 93.0651 159.731 93.266C159.379 93.467 159.026 93.3665 158.925 93.0651C158.825 92.7637 159.026 92.3618 159.379 92.2111C159.731 92.0101 160.084 92.1106 160.184 92.412Z" fill="#664E4E"/>
<path d="M162.249 111.1C162.249 111.1 161.141 115.219 156.911 119.841C156.206 120.544 155.199 121.951 155.35 124.01L156.206 138.127H153.688C153.688 138.127 150.616 126.422 151.271 120.645C151.976 114.867 154.192 111.1 154.192 111.1H162.249Z" fill="#043C5E"/>
<path d="M147.645 84.7762C147.243 85.6804 146.638 86.2833 146.336 86.1828C146.034 86.0321 146.185 85.1781 146.588 84.2738C147.041 83.3696 147.645 82.7667 147.897 82.9175C148.199 83.0179 148.099 83.8719 147.645 84.7762Z" fill="white"/>
<path d="M154.796 87.4387H154.746C154.494 87.5894 154.192 87.5894 153.89 87.5391L153.839 87.4889C153.386 87.3382 153.034 86.9866 152.882 86.5344C152.832 86.3335 152.983 86.1325 153.235 86.1828L153.789 86.2833C153.99 86.3335 154.192 86.4842 154.292 86.6349L154.796 87.4387Z" fill="#664E4E"/>
<path d="M203.391 37.1024L204.549 40.6691L201.125 39.3127L189.593 33.7366L203.391 37.1024Z" fill="#42A5F5"/>
<path d="M204.549 40.6691L198.607 39.4132L200.168 38.8606L204.549 40.6691Z" fill="#63C1C5"/>
<path d="M202.736 43.7837C202.786 43.7837 202.837 43.7335 202.837 43.7335C202.988 43.633 202.988 43.4321 202.887 43.3316C202.535 42.9297 202.182 42.6283 201.83 42.2767C201.679 42.1762 201.527 42.2264 201.427 42.3269C201.326 42.4776 201.326 42.6283 201.427 42.7288C201.779 43.0302 202.132 43.3316 202.434 43.6833C202.535 43.7837 202.635 43.834 202.736 43.7837Z" fill="#63C1C5"/>
<path d="M193.773 74.0257C193.722 73.875 193.823 73.6741 193.924 73.6238C194.78 73.2722 195.585 72.8201 196.29 72.167C196.391 72.0665 196.593 72.0665 196.693 72.167C196.794 72.2675 196.794 72.4684 196.693 72.5689C195.888 73.2722 195.031 73.8248 194.175 74.1764H194.125C194.024 74.2267 193.823 74.1262 193.773 74.0257ZM197.499 71.313C197.348 71.2125 197.348 71.0618 197.449 70.9111C198.003 70.1576 198.506 69.3538 198.859 68.4998C198.909 68.3491 199.06 68.2988 199.211 68.3491C199.362 68.3993 199.413 68.55 199.362 68.7007C199.01 69.605 198.506 70.459 197.902 71.2627C197.851 71.313 197.801 71.3632 197.751 71.3632C197.65 71.4134 197.549 71.3632 197.499 71.313ZM199.564 67.2439C199.413 67.1936 199.312 67.0429 199.362 66.8922V66.7415C199.513 65.9377 199.614 65.0335 199.614 64.079C199.614 63.9283 199.765 63.8278 199.916 63.8278C200.067 63.8278 200.168 63.9283 200.168 64.079C200.218 65.0335 200.118 65.988 199.916 66.8922V66.9927C199.866 67.1434 199.815 67.1936 199.715 67.2439C199.664 67.2439 199.614 67.2439 199.564 67.2439ZM199.815 62.6724C199.664 62.6724 199.513 62.5719 199.513 62.371C199.413 61.517 199.261 60.5625 199.01 59.608C198.959 59.4573 199.06 59.3066 199.211 59.2564C199.362 59.2061 199.513 59.3066 199.564 59.4573C199.815 60.462 199.966 61.4165 200.067 62.3208C200.118 62.4715 200.017 62.5719 199.916 62.6222C199.866 62.6222 199.866 62.6724 199.815 62.6724ZM198.859 58.1512C198.708 58.2014 198.556 58.1009 198.506 57.9502C198.506 57.9 198.456 57.7995 198.456 57.7493C198.103 57.7995 197.801 57.8498 197.499 57.9C197.298 57.9 197.197 57.7995 197.146 57.6488C197.146 57.4981 197.247 57.3474 197.398 57.3474C197.7 57.2972 197.952 57.2469 198.254 57.1967C198.053 56.5939 197.801 55.9408 197.549 55.2877C197.449 55.137 197.549 54.9361 197.7 54.8858C197.851 54.8356 198.003 54.8859 198.053 55.0366C198.355 55.7399 198.607 56.3929 198.808 57.046C199.261 56.8953 199.664 56.7446 200.067 56.5436C200.218 56.4934 200.42 56.5436 200.47 56.6943C200.52 56.8451 200.47 56.9958 200.319 57.046C199.916 57.2972 199.463 57.4479 199.01 57.5986C199.01 57.6488 199.06 57.6991 199.06 57.7995C199.11 57.9502 199.01 58.1009 198.859 58.1512ZM201.477 56.0915C201.376 55.991 201.376 55.7901 201.528 55.6896C201.981 55.338 202.384 54.9361 202.736 54.484C202.988 54.2328 203.189 53.9314 203.34 53.63C203.441 53.4792 203.592 53.429 203.743 53.5295C203.894 53.63 203.945 53.7807 203.844 53.9314C203.643 54.2328 203.441 54.5844 203.189 54.8858C202.786 55.338 202.333 55.7399 201.88 56.1417C201.83 56.1417 201.83 56.192 201.779 56.192C201.679 56.2422 201.528 56.192 201.477 56.0915ZM195.686 57.9502C194.679 57.9 193.672 57.6991 192.765 57.2972C192.665 57.2469 192.564 57.046 192.614 56.9455C192.715 56.7948 192.866 56.6943 193.017 56.7948C193.873 57.0962 194.78 57.3474 195.736 57.3976C195.888 57.3976 195.988 57.5484 195.988 57.6991C195.988 57.7995 195.888 57.9 195.787 57.9502C195.787 57.9502 195.736 57.9502 195.686 57.9502ZM204.196 52.4745C204.045 52.4243 203.995 52.2736 204.045 52.1229C204.348 51.2689 204.499 50.3144 204.499 49.3599C204.499 49.2092 204.599 49.1087 204.75 49.1087C204.901 49.1087 205.053 49.2092 205.053 49.3599C205.053 50.3646 204.901 51.3693 204.599 52.3238C204.549 52.3741 204.499 52.4745 204.398 52.4745C204.348 52.4745 204.297 52.4745 204.196 52.4745ZM191.204 56.4432C191.003 56.2925 190.801 56.1417 190.6 55.9408C190.046 55.4384 189.593 54.8356 189.24 54.1826C189.14 54.0318 189.24 53.8811 189.341 53.8309C189.492 53.7304 189.694 53.7807 189.744 53.9314C190.046 54.5342 190.499 55.0868 191.003 55.5389C191.154 55.6896 191.355 55.8403 191.557 55.991C191.658 56.0413 191.708 56.2422 191.607 56.3929C191.557 56.4432 191.506 56.4432 191.456 56.4934C191.406 56.4934 191.305 56.4934 191.204 56.4432ZM196.844 53.6802C196.391 52.6755 195.938 51.8717 195.434 51.2689C195.334 51.1684 195.334 50.9675 195.485 50.867C195.585 50.7665 195.787 50.8167 195.888 50.9172C196.391 51.5703 196.895 52.3741 197.398 53.429C197.449 53.5797 197.398 53.7807 197.247 53.8309H197.197C197.096 53.8811 196.895 53.8309 196.844 53.6802ZM204.65 47.9533C204.499 47.9533 204.348 47.8528 204.297 47.7021C204.247 47.3002 204.146 46.8481 203.995 46.4462C203.844 45.9941 203.643 45.542 203.391 45.0899C203.29 44.9392 203.34 44.7884 203.491 44.688C203.643 44.6377 203.794 44.688 203.894 44.7884C204.146 45.2908 204.348 45.7932 204.549 46.2955C204.7 46.6974 204.801 47.1495 204.901 47.6017C204.901 47.7524 204.801 47.8528 204.7 47.9031C204.65 47.9031 204.65 47.9533 204.65 47.9533ZM188.989 52.7257C188.838 52.7257 188.686 52.6252 188.686 52.4243C188.586 51.6205 188.787 50.867 189.24 50.2139C189.442 50.013 189.593 49.812 189.845 49.6111C189.945 49.5608 190.147 49.5609 190.248 49.7116C190.348 49.812 190.298 50.013 190.197 50.1134C189.996 50.2139 189.845 50.3646 189.744 50.5656C189.341 51.0679 189.19 51.6708 189.291 52.3741C189.291 52.5248 189.19 52.6252 189.089 52.6755C189.039 52.6755 189.039 52.7257 188.989 52.7257ZM194.226 50.1637C193.47 49.7116 192.514 49.4604 191.658 49.5609C191.506 49.5609 191.355 49.4604 191.305 49.3097C191.305 49.1087 191.406 49.0083 191.607 48.958C192.614 48.8575 193.672 49.1087 194.528 49.7116C194.679 49.7618 194.679 49.9627 194.629 50.0632C194.578 50.1134 194.528 50.1637 194.478 50.2139C194.377 50.2139 194.276 50.2139 194.226 50.1637Z" fill="#42A5F5"/>
<path d="M192.463 74.6285C192.564 74.5783 192.665 74.4778 192.614 74.3271C192.614 74.1764 192.463 74.0759 192.312 74.0759C191.859 74.1262 191.406 74.1262 190.953 74.0759C190.801 74.0759 190.65 74.2267 190.65 74.3774C190.65 74.5281 190.751 74.6285 190.902 74.6788C191.406 74.729 191.909 74.6788 192.413 74.6285C192.413 74.6285 192.413 74.6285 192.463 74.6285Z" fill="#63C1C5"/>
<path d="M79.4618 18.917L60.2254 13.9939L59.9736 12.8384" fill="#B0D9C8"/>
<path d="M59.6714 17.3094V17.3597L60.4771 20.3236L79.4114 18.917L59.6714 17.3094Z" fill="#42A5F5"/>
<path d="M12.6379 53.63C13.2925 53.3788 13.8968 53.1276 14.5011 52.8262C14.6522 52.7257 14.8032 52.7759 14.8536 52.9267C14.9543 53.0774 14.9039 53.2281 14.7529 53.2783C14.1486 53.63 13.4939 53.8811 12.8393 54.1323C12.5875 54.2328 12.3357 54.283 12.1343 54.3835C12.0336 54.3835 11.9329 54.3835 11.8825 54.3333C11.8321 54.283 11.7818 54.2328 11.7818 54.1826C11.7314 54.0318 11.7818 53.8811 11.9329 53.8309C12.1846 53.7807 12.4364 53.6802 12.6379 53.63Z" fill="#63C1C5"/>
<path d="M50.3554 13.4915C51.2114 13.592 52.1179 13.7427 53.125 13.8934C53.2761 13.9436 53.3768 14.0943 53.3264 14.2451C53.3264 14.3958 53.1754 14.4962 53.0243 14.446C52.0171 14.2953 51.1107 14.1446 50.2546 14.0441C50.2043 13.9939 50.1539 13.9939 50.1539 13.9939C50.0532 13.8934 50.0029 13.7929 50.0029 13.6925C50.0532 13.5418 50.2043 13.4413 50.3554 13.4915Z" fill="#63C1C5"/>
<path d="M45.6721 13.6925C45.6218 13.6422 45.5714 13.5417 45.5714 13.4413C45.5714 13.2906 45.6721 13.1901 45.8232 13.1901C46.7296 13.1901 47.6864 13.1901 48.6432 13.2906C48.8447 13.2906 48.9454 13.4413 48.895 13.592C48.895 13.7427 48.7943 13.8432 48.5929 13.8432C47.6361 13.7929 46.7297 13.7427 45.8736 13.7427C45.7729 13.7427 45.7225 13.7427 45.6721 13.6925Z" fill="#63C1C5"/>
<path d="M18.0261 50.2642C18.1771 50.1134 18.3282 50.1134 18.4289 50.2642C18.5296 50.3646 18.5296 50.5153 18.4289 50.666C17.7743 51.3191 17.0189 51.9219 16.2132 52.4243C16.1125 52.4745 16.0118 52.4745 15.9111 52.4243C15.8607 52.4243 15.8607 52.3741 15.8607 52.3741C15.76 52.2234 15.76 52.0726 15.9111 51.9722C16.6664 51.4698 17.3714 50.867 18.0261 50.2642Z" fill="#63C1C5"/>
<path d="M19.1843 49.4101C19.0836 49.3097 19.0836 49.159 19.1843 49.0083C19.3354 48.8575 19.4864 48.6566 19.6375 48.4557C20.0404 47.9031 20.3929 47.3505 20.695 46.7476C20.7454 46.6472 20.9468 46.5969 21.0979 46.6472C21.1986 46.7476 21.2489 46.8983 21.1986 47.0491C20.8461 47.6519 20.4936 48.2045 20.0907 48.7571C19.8893 48.958 19.7382 49.159 19.5871 49.3599C19.4864 49.5106 19.3354 49.5106 19.1843 49.4101Z" fill="#63C1C5"/>
<path d="M21.5511 45.6425C21.5511 45.6425 21.5007 45.6425 21.5007 45.5922C21.4 45.542 21.3496 45.3913 21.4 45.2908C21.7525 44.487 22.0043 43.633 22.2561 42.6785C22.3064 42.5278 22.4575 42.4274 22.6086 42.4776C22.7596 42.5278 22.8604 42.6785 22.81 42.8292C22.5582 43.7837 22.2561 44.688 21.9036 45.4917C21.8532 45.6425 21.7021 45.6927 21.5511 45.6425Z" fill="#63C1C5"/>
<path d="M28.9536 21.8307C28.7521 22.1321 28.5004 22.4335 28.2989 22.6847C27.9464 23.1368 27.6443 23.5889 27.3422 24.0913C27.2918 24.1917 27.0904 24.242 26.9896 24.1415H26.9393C26.8386 24.041 26.7882 23.8903 26.8889 23.7899C27.1911 23.2875 27.4932 22.8354 27.8457 22.3833C28.0472 22.0818 28.2989 21.7804 28.5507 21.479C28.6514 21.3785 28.8025 21.3283 28.9536 21.4288C29.0543 21.5292 29.0543 21.7302 28.9536 21.8307Z" fill="#63C1C5"/>
<path d="M26.5364 25.4979C26.0832 26.3017 25.7307 27.1557 25.4286 28.0097C25.3782 28.1604 25.2271 28.2608 25.0761 28.2106C25.0257 28.1604 25.0257 28.1604 24.9754 28.1604C24.8746 28.0599 24.8746 27.9594 24.8746 27.859C25.2271 26.9547 25.5796 26.1007 26.0329 25.2467C26.1336 25.096 26.2846 25.0458 26.4357 25.1462C26.5364 25.1965 26.5868 25.3472 26.5364 25.4979Z" fill="#63C1C5"/>
<path d="M32.0757 18.716C31.3707 19.3189 30.7161 19.9217 30.0614 20.625C29.9607 20.7255 29.8096 20.7255 29.7089 20.625C29.7089 20.625 29.7089 20.625 29.6586 20.625C29.5579 20.5245 29.5579 20.3236 29.6586 20.2231C30.3132 19.5198 31.0182 18.917 31.7232 18.3142C31.8743 18.2137 32.0254 18.2137 32.1261 18.3644C32.2268 18.4649 32.2268 18.6156 32.0757 18.716Z" fill="#63C1C5"/>
<path d="M37.2625 15.5512C37.1618 15.6014 37.0611 15.6014 36.9604 15.5009C36.9604 15.5009 36.91 15.4507 36.91 15.4005C36.8093 15.2498 36.91 15.0991 37.0107 15.0488C37.9171 14.6469 38.7732 14.3455 39.6796 14.0441C39.8307 14.0441 39.9818 14.0943 40.0321 14.245C40.0825 14.3958 39.9818 14.5465 39.8307 14.5967C38.9746 14.8479 38.1186 15.1995 37.2625 15.5512Z" fill="#63C1C5"/>
<path d="M23.4646 36.9517C23.4143 36.9517 23.3639 36.9517 23.3136 36.9014C23.2632 36.8512 23.2129 36.7507 23.2129 36.6502L23.2632 36.2986C23.3639 35.4948 23.4646 34.691 23.5654 33.8873C23.5654 33.7366 23.7164 33.6361 23.8675 33.6361C24.0186 33.6361 24.1193 33.7868 24.1193 33.9375C24.0186 34.7413 23.9179 35.5451 23.8171 36.3488L23.7668 36.7005C23.7668 36.8512 23.6157 36.9517 23.4646 36.9517Z" fill="#63C1C5"/>
<path d="M33.4354 17.7113C33.3346 17.8118 33.1836 17.8118 33.0829 17.7113L33.0325 17.6611C32.9318 17.5104 32.9821 17.3597 33.0829 17.2592C33.8886 16.7066 34.6943 16.2043 35.5 15.8024C35.6511 15.7019 35.8021 15.7521 35.9029 15.9028C35.9532 16.0535 35.9029 16.2043 35.7518 16.3047C34.9461 16.7066 34.1907 17.209 33.4354 17.7113Z" fill="#63C1C5"/>
<path d="M23.3136 38.0568C23.515 38.1071 23.6157 38.2075 23.5654 38.3583C23.4646 39.4634 23.3136 40.3677 23.1625 41.1715C23.1121 41.3222 22.9611 41.4226 22.81 41.3724C22.81 41.3724 22.7596 41.3724 22.7093 41.3222C22.6589 41.2719 22.6086 41.1715 22.6086 41.071C22.7596 40.2672 22.9107 39.363 23.0114 38.308C23.0618 38.1573 23.2129 38.0568 23.3136 38.0568Z" fill="#63C1C5"/>
<path d="M10.3718 54.2328C10.5229 54.1825 10.6739 54.283 10.6739 54.4337C10.7243 54.5844 10.6236 54.7351 10.4725 54.7854C9.61643 54.9361 8.65964 55.0868 7.6525 55.137C7.60214 55.137 7.50143 55.137 7.45107 55.0868C7.40072 55.0366 7.35036 54.9863 7.35036 54.8858C7.35036 54.7351 7.45107 54.5844 7.60214 54.5844C8.60929 54.484 9.51571 54.3835 10.3718 54.2328Z" fill="#63C1C5"/>
<path d="M24.7236 29.2656C24.8746 29.3158 24.9754 29.4665 24.925 29.6172C24.7236 30.421 24.5221 31.3252 24.3711 32.2797C24.3207 32.4304 24.1696 32.5811 24.0186 32.5309C24.0186 32.5309 23.9682 32.5309 23.9179 32.4807C23.8171 32.4304 23.7668 32.33 23.8171 32.2295C23.9682 31.1745 24.1696 30.2703 24.3711 29.4665C24.4214 29.3158 24.5725 29.2153 24.7236 29.2656Z" fill="#63C1C5"/>
<path d="M43.1543 13.3408C43.5068 13.2906 43.8089 13.2906 44.1614 13.2403C44.3125 13.2403 44.4132 13.3408 44.4636 13.4915C44.4636 13.6422 44.3629 13.7929 44.2118 13.7929C43.8593 13.8432 43.5571 13.8432 43.255 13.8934C42.6507 13.9939 42.0464 14.0943 41.4421 14.1948C41.3918 14.1948 41.2911 14.1948 41.2407 14.1446C41.1904 14.0943 41.14 14.0441 41.14 13.9939C41.0896 13.8432 41.1904 13.6925 41.3414 13.6422C41.9457 13.5417 42.55 13.4413 43.1543 13.3408Z" fill="#63C1C5"/>
</svg>
