<svg width="230" height="140" viewBox="0 0 230 140" fill="none" xmlns="http://www.w3.org/2000/svg">
<path d="M44.05 91.7L51.1 86.55C51.4 85.65 51.7 84.75 52 83.9C55.05 75.05 59.05 66.55 63.85 58.6C65.85 55.3 68.55 52.8 71.65 51.1C68.75 36.95 61.7 18.85 44.25 11.25C3.8 52.05 44.05 91.7 44.05 91.7Z" fill="#42A5F5"/>
<path d="M57.3 70.8C57.55 70.3 57.8 69.85 58 69.35L53.55 49.65L66.85 35.55C66.7 35.25 66.6 34.9 66.45 34.55L53.25 48.5L44.85 11.5C44.65 11.4 44.45 11.3 44.25 11.25C44.1 11.35 44 11.5 43.85 11.65L55.8 64L26.25 48.15C26.25 48.55 26.25 48.9 26.25 49.3L56.05 65.3L57.3 70.8Z" fill="#67B8FA"/>
<path d="M52 83.9C54.4 76.9 57.45 70.1 61 63.65C52 53.8 30.4 33.75 6.4 37.4C-7.1 73.4 30.75 94.55 30.75 94.55L48.7 96.65C49.5 92.35 50.5 88.1 52 83.9Z" fill="#FFD247"/>
<path d="M52.45 82.55C52.6 82.2 52.7 81.85 52.85 81.5L37.8 66.95L41.65 46.9C41.35 46.7 41.05 46.5 40.75 46.3L36.95 66.1L7.15001 37.3C6.90001 37.35 6.65 37.35 6.4 37.4C6.35 37.55 6.3 37.65 6.25 37.8L22.2 53.25L3.55 54.75C3.55 54.95 3.55 55.1 3.6 55.3V55.75L23.15 54.2L49.75 79.9L17.1 83.6C17.4 83.9 17.65 84.2 17.95 84.5L50.7 80.8L52.45 82.55Z" fill="white"/>
<path d="M38.2 114.3C40.4 110.55 43.5 108.05 47.2 106.25C47.25 106.1 47.25 105.95 47.3 105.8C48.25 98.55 49.45 91.4 51.8 84.4C43.5 82.25 15.55 76.65 2.1 93.45C8.6 111.9 21.65 120.75 35.4 124.7C35.45 121 36.5 117.2 38.2 114.3Z" fill="#67B8FA"/>
<path d="M36.5 118.15L30.35 123C30.7 123.15 31.05 123.3 31.45 123.4L36 119.8C36.15 119.25 36.3 118.7 36.5 118.15Z" fill="#11375B"/>
<path d="M47.6 103.55L34.15 100.45L22.8 82.45C22.45 82.5 22.1 82.55 21.75 82.6L32.75 100.1L2.45 93.05C2.3 93.15 2.2 93.3 2.1 93.45C2.15 93.65 2.2 93.85 2.3 94L47.45 104.55C47.5 104.25 47.55 103.9 47.6 103.55Z" fill="#11375B"/>
<path d="M155.85 56.7C159.8 59 164.5 64.2 165.25 68.95C166.45 76.6 169.65 83.6 172.45 90.8C173.15 92.6 173.75 94.4 174.3 96.25L174.85 96.7C174.85 96.7 209.85 63.55 176.05 28.1C163.5 33.3 157 44.9 153.65 55.6C154.4 55.95 155.15 56.3 155.85 56.7Z" fill="#FFD247"/>
<path d="M166.15 73.4L190.75 60.85C190.75 60.55 190.75 60.2 190.75 59.9L165.95 72.55C166.05 72.85 166.1 73.15 166.15 73.4Z" fill="white"/>
<path d="M167.5 60.7L165.3 69.4C165.45 70.1 165.55 70.75 165.7 71.4L176.4 28.5C176.3 28.35 176.2 28.25 176.05 28.1C175.9 28.2 175.75 28.25 175.6 28.3L167.75 59.7L156.75 47.6C156.65 47.9 156.5 48.15 156.4 48.45L167.5 60.7Z" fill="white"/>
<path d="M213.1 46.95C191.9 43.3 172.55 61.4 165.3 69.25C166.55 76.8 169.7 83.7 172.45 90.8C173.2 92.8 173.9 94.85 174.5 96.9L191.35 95.25C191.35 95.25 223.95 77.9 213.1 46.95Z" fill="#42A5F5"/>
<path d="M199.35 60.2L213.2 47.35C213.15 47.2 213.1 47.1 213.1 46.95C212.85 46.95 212.65 46.9 212.45 46.85L186.55 70.9L183.7 54C183.4 54.15 183.15 54.3 182.9 54.45L185.8 71.6L170.5 85.85C170.6 86.15 170.7 86.4 170.8 86.7L174.6 83.2L202.4 86.9C202.65 86.65 202.9 86.4 203.2 86.15L175.4 82.45L198.5 61L215.15 62.65L215.2 62.25C215.2 62.1 215.2 61.95 215.2 61.8L199.35 60.2Z" fill="#11375B"/>
<path d="M172 89.7C172.15 90.05 172.3 90.4 172.45 90.8C174.1 95.1 175.35 99.35 176 103.9C176.25 105.65 176.3 107.45 176.35 109.2C179.95 109.95 183.3 111.15 186.95 112.95C190.35 114.65 192.9 117.7 194.65 121.1C203.3 117 210.95 109.95 215.4 98C203.45 82.5 177.1 88.4 172 89.7Z" fill="#11375B"/>
<path d="M215.4 98C215.3 97.85 215.2 97.75 215.1 97.65L189.15 103.15L198.85 88.4C198.55 88.35 198.25 88.3 197.95 88.25L188 103.4L176.2 105.9C176.2 106.15 176.25 106.45 176.25 106.75L215.25 98.5C215.3 98.3 215.35 98.15 215.4 98Z" fill="#67B8FA"/>
<path d="M35.1 95.65C34.4 97.95 31.05 99.2 31.05 99.2L0.849998 112L7 121.35C12.1 129.05 21.65 132.45 30.5 129.7L51.55 123.2C51.55 123.2 57.6 121.3 61.75 113.95C66.65 105.25 86.3 59.2 86.3 59.2C86.3 59.2 87.95 51.7 80.05 55.55C72.15 59.4 62 81.7 62 81.7C62 81.7 60.85 83.45 60.85 82.5C60.9 80.25 70.35 61.15 75.35 57C80.35 52.9 108.2 43.75 110.4 33C111.3 28.65 60.3 49.1 60.3 49.1C60.3 49.1 54.45 50.55 51.6 57.85C48.7 65.2 35.75 93.35 35.1 95.65Z" fill="#441C1C"/>
<path d="M187.95 95.65C188.6 97.95 191.95 99.2 191.95 99.2L222.2 112L216 121.35C210.9 129.05 201.35 132.45 192.5 129.7L171.45 123.2C171.45 123.2 165.4 121.3 161.25 113.95C156.35 105.25 136.7 59.2 136.7 59.2C136.7 59.2 135.1 51.7 143 55.55C150.9 59.4 161 81.7 161 81.7C161 81.7 162.15 83.45 162.15 82.5C162.1 80.25 152.7 61.15 147.65 57C142.65 52.9 114.8 43.75 112.6 33C111.7 28.65 162.7 49.1 162.7 49.1C162.7 49.1 168.55 50.55 171.45 57.85C174.3 65.2 187.25 93.35 187.95 95.65Z" fill="#441C1C"/>
<path d="M129.75 70.4L130 73.75L133.3 73.9L131.95 68.7L129.75 70.4Z" fill="#441C1C"/>
<path d="M128.35 71C127.9 71 127.55 70.95 127.35 70.75C126.15 69 127.5 64.3 127.5 64.3L129.4 63.5L131.85 65L132 68.2C132.05 69 131.65 69.85 130.9 70.35C130.15 70.8 129.25 71.05 128.35 71Z" fill="#441C1C"/>
<path d="M131.5 66.8C131.35 66.3 131.4 65.05 130.9 65.15C130.5 65.2 129.15 65.25 128.7 65.25C127.6 65.25 125.65 64.85 125.65 63.2C125.65 62.35 126.45 61.65 126.95 61.45C127.45 61.25 128.05 61.25 128.55 61.4C129.75 61.85 131.3 62.75 131.95 62.65C133 62.4 134.05 63.05 134.05 63.95C134.05 64.9 133.55 66.35 133.05 67.25C132.8 67.8 132.4 68.3 131.95 68.7L131.5 66.8Z" fill="#043C5E"/>
<path d="M132.6 66.95C132.35 66.7 131.9 66.75 131.55 67C131.25 67.3 131.2 67.65 131.45 67.9C131.65 68.1 132.15 68.05 132.45 67.8C132.75 67.55 132.8 67.15 132.6 66.95Z" fill="#441C1C"/>
<path d="M120.5 73C120.45 72.85 120.2 72.3 119.3 71.6C118.45 70.95 116.35 70.15 117.25 69.5C118.4 69.6 119.75 69.6 119.75 69.6C120.4 69.7 121.2 70.55 121.6 71.15L122.6 73.2C122.6 73.2 122.15 74.2 122.1 74.25L121.65 74.15C121.3 73.7 120.95 73.35 120.5 73Z" fill="#441C1C"/>
<path d="M120.45 72.4C120.45 72.4 120.45 72.35 120.4 72.25C120.55 72.3 120.7 72.3 120.85 72.3C121.3 72.6 121.8 72.85 122.25 73.15C122.05 73.4 121.8 73.75 121.75 73.75L118.35 72.55C118.35 72.55 118.3 72.1 119.05 72.1C119.8 72.1 120.45 72.4 120.45 72.4Z" fill="#441C1C"/>
<path d="M125.65 79.95L120.4 75.05L122.2 72.3L129.4 75.75L126.3 81.25L125.65 79.95Z" fill="#67B8FA"/>
<path d="M131.5 71.75C139.05 70.2 137.75 95.15 137.75 95.15H125.8C125.8 95.15 125.65 90.8 125.2 85.3C124.85 80.6 127.45 75.35 131.5 71.75Z" fill="#67B8FA"/>
<path d="M127.6 136.35C127.6 136.35 126.4 137.45 123.75 138.15C123.15 138.3 122.5 138.1 122.5 139.05C123.75 139.05 125.75 139.05 125.75 139.05L128.45 138.6V139.05H129.95C129.95 139.05 130.35 136.65 129.5 136.35C128.7 136.35 127.6 136.35 127.6 136.35Z" fill="#043C5E"/>
<path d="M127.75 134.65L127.6 136.35C128.15 136.75 128.85 136.75 129.4 136.45L129.5 136.35L129.8 134.65H127.75Z" fill="#441C1C"/>
<path d="M110.7 79.55C110.55 79.55 110 79.45 109.1 78.7C108.3 78.05 107 76.2 106.6 77.2C106.95 78.3 107.2 79.6 107.2 79.6C107.5 80.25 108.5 80.8 109.2 81.05L111.4 81.55C111.4 81.55 112.25 80.9 112.3 80.85L112.1 80.45C111.6 80.2 111.15 79.9 110.7 79.55Z" fill="#441C1C"/>
<path d="M110.15 79.65C110.15 79.65 110.1 79.65 109.95 79.65C110.05 79.8 110.1 79.95 110.15 80.05C110.5 80.45 110.9 80.85 111.25 81.25C111.45 81 111.75 80.65 111.75 80.65L109.8 77.55C109.8 77.55 109.35 77.65 109.5 78.35C109.7 79.1 110.15 79.65 110.15 79.65Z" fill="#441C1C"/>
<path d="M139.05 133.95C139.05 133.95 137.9 135.05 135.2 135.75C134.6 135.9 134 135.7 134 136.65C135.25 136.65 137.25 136.65 137.25 136.65L139.95 136.2V136.65H141.4C141.4 136.65 141.8 134.25 140.95 133.95C140.15 133.95 139.05 133.95 139.05 133.95Z" fill="#043C5E"/>
<path d="M139.2 132.25L139.05 133.95C139.6 134.35 140.3 134.35 140.85 134.05L140.95 133.95L141.25 132.25H139.2Z" fill="#441C1C"/>
<path d="M137.75 95.1C137.75 95.1 136.8 100.15 137.65 110.6C137.8 112.45 138.2 114.3 138.9 116C141.15 121.9 141.5 132.75 141.5 132.75H138.85L129.6 106.3L137.75 95.1Z" fill="#043C5E"/>
<path d="M133.3 80C133.3 80 131.25 87.65 125.65 88.35C120.1 89.05 110.9 82 110.9 82L111.9 80L121.6 82.7C123.05 83.1 124.65 82.45 125.35 81.1L128.3 75.7L133.3 80Z" fill="#67B8FA"/>
<path d="M125.85 95.1L127.55 135.1H129.9C129.9 135.1 132.55 125.8 132.35 118.45C132.3 116.1 132.65 113.8 133.55 111.65C137.1 102.75 137.75 95.15 137.75 95.15H125.85V95.1Z" fill="#42A5F5"/>
<path d="M105.35 75.75L113.75 82.05L123.4 74.55L115.55 68.7L105.35 75.75Z" fill="#FFDB71"/>
<path d="M116.55 83.65C116.55 82.85 116.75 82.1 117.05 81.45L111.9 80L110.9 82C110.9 82 113.5 84 116.75 85.8C116.6 85.05 116.5 84.35 116.55 83.65Z" fill="#67B8FA"/>
<path d="M133.15 79.95C133.15 80 131.05 87.55 125.65 88.2C120.6 88.85 112.4 82.95 111.15 82C111.1 82.1 111 82.15 110.95 82.25C112.15 83.15 119.6 88.55 124.85 88.55C125.1 88.55 125.4 88.55 125.7 88.5C131.3 87.8 133.45 80.1 133.45 80.05L133.15 79.95Z" fill="#67B8FA"/>
<path d="M109.3 81.1L111.1 81.5C111.25 81.05 111.5 80.65 111.75 80.25C111.4 80.05 111.05 79.85 110.7 79.55C110.55 79.55 110 79.45 109.1 78.7C109.25 79.35 109.35 80.05 109.3 80.7C109.3 80.85 109.3 80.95 109.3 81.1Z" fill="#441C1C"/>
<path d="M111.65 80.45L109.8 77.55C109.8 77.55 109.35 77.65 109.5 78.35C109.7 79.1 110.15 79.65 110.15 79.65C110.15 79.65 110.1 79.65 109.95 79.65C110.05 79.8 110.1 79.95 110.15 80.05C110.5 80.45 110.85 80.85 111.2 81.2C111.35 80.95 111.45 80.7 111.65 80.45Z" fill="#441C1C"/>
<path d="M119.9 71.35H119.85C120.35 71.85 120.5 72.2 120.55 72.3C120.75 72.5 120.95 72.65 121.15 72.85C121.2 72.65 121.2 72.45 121.25 72.3C120.75 72.05 120.3 71.7 119.9 71.35Z" fill="#441C1C"/>
<path d="M120.25 71.65C120 71.55 119.6 71.45 119.15 71.4C118.35 71.4 118.4 71.85 118.4 71.85L121.15 72.85C121.2 72.65 121.2 72.5 121.25 72.3C120.9 72.1 120.55 71.9 120.25 71.65Z" fill="#441C1C"/>
<path d="M129.75 73.55V71.9L132.5 70.75L133.5 72L129.75 73.55Z" fill="white"/>
<path d="M94.35 78.35L98.3 84.45C99.15 85.75 100.45 87.25 101.95 87.6L110.05 89.6V90.8C110.05 90.8 102 91.55 98.3 89.6C94.65 87.6 92 82.9 92 82.9L94.35 78.35Z" fill="#441C1C"/>
<path d="M84.85 79.65C84.85 79.65 86.85 75.85 89.5 75.2C91.75 75.2 92.3 75.5 92.3 75.5C92.3 75.5 95.2 79.1 96.2 81.45C96.6 82.3 96.6 83.3 96.2 84.2C94.4 88.05 94.65 95.45 94.65 95.45H85.75C85.75 95.45 87.3 84.35 87 82.15C86.7 79.95 84.85 79.65 84.85 79.65Z" fill="#67B8FA"/>
<path d="M101.1 134.4L101.65 135.75C101.8 136.15 102.05 136.45 102.35 136.65C102.75 136.9 103.3 137.2 104.15 137.45C103.1 138.35 101.45 137.45 100.5 136.8C100 136.45 99.7 135.95 99.55 135.4L99.3 134.4H101.1Z" fill="#441C1C"/>
<path d="M99.45 135.1C99.45 135.1 98.75 135.65 98.85 136.35C99 137.1 99.15 138.75 99.15 138.75H99.9V137.2C99.9 137.1 101.45 138.75 101.7 138.75H105.6C105.6 138.75 105.85 137.7 103.6 137.35C101.3 137.05 99.45 135.1 99.45 135.1Z" fill="#42A5F5"/>
<path d="M94.65 95.45L101.35 134.45L99.2 134.5C99.2 134.5 94.4 126.3 93.7 119.5C93.6 118.4 93.55 117.25 92.8 116.4C87.2 109.8 88.8 99.45 88.8 99.45L91.85 95.45H94.65Z" fill="#043C5E"/>
<path d="M84.3 134.4L84.85 135.75C84.95 136.15 85.2 136.45 85.55 136.65C85.9 136.9 86.5 137.2 87.35 137.45C86.3 138.35 84.65 137.45 83.65 136.8C83.2 136.45 82.85 135.95 82.75 135.4L82.5 134.4H84.3Z" fill="#441C1C"/>
<path d="M82.65 135.1C82.65 135.1 81.9 135.65 82.05 136.35C82.2 137.1 82.35 138.75 82.35 138.75H83.1L83.05 137.2C83.05 137.1 84.65 138.75 84.9 138.75H88.8C88.8 138.75 89.05 137.7 86.75 137.35C84.5 137.05 82.65 135.1 82.65 135.1Z" fill="#42A5F5"/>
<path d="M92.65 73.65V78L90.05 75.15L90.3 71.1L92.65 73.65Z" fill="#441C1C"/>
<path d="M93.05 67.3C91.25 67.55 90.35 69.85 90.35 69.85L90.4 76.7L87.25 74C87.25 74 87.05 70.9 87.8 67.55C88.45 65.4 91.15 64.85 93.05 65.9C94 66.4 94.55 67.4 94.85 68.35C95.3 69.7 95.35 71.1 95.05 72.45L93.95 77.5L92.65 76.15C92.65 76.15 92.3 74.85 92.65 73.65C93.3 71.1 94.3 67.15 93.05 67.3Z" fill="#043C5E"/>
<path d="M89.85 69.95C90.05 69.75 90.4 69.8 90.7 70.05C90.95 70.3 91 70.65 90.8 70.85C90.6 71 90.2 71 89.95 70.75C89.7 70.5 89.65 70.15 89.85 69.95Z" fill="#441C1C"/>
<path d="M93.4 73.7C93.75 73.7 94.05 73.65 94.25 73.5C95.25 71.85 94.1 67.55 94.1 67.55L92.5 66.8L90.45 68.2L90.3 71.1C90.3 71.85 90.65 72.6 91.25 73.1C91.9 73.5 92.6 73.7 93.4 73.7Z" fill="#441C1C"/>
<path d="M93.4 67.05C93.8 68.35 90.35 69.85 90.35 69.85L89.5 68.25L91.1 66.3L93.05 66.65C93.05 66.65 93.35 66.85 93.4 67.05Z" fill="#043C5E"/>
<path d="M93.45 67.35C93.5 67.85 94.3 68.45 94.3 68.45L94.35 67.85L94.2 67.4L93.8 67.2C93.8 67.2 93.35 66.8 93.45 67.35Z" fill="#043C5E"/>
<path d="M86.25 95.45C86.25 95.45 79.95 98.15 83.25 115.15C83.45 116.15 83.3 117.2 83.05 118.15C81.65 122.9 82.45 134.5 82.45 134.5H84.6C84.6 134.5 91.9 104.25 92.4 95.45C88 95.45 86.25 95.45 86.25 95.45Z" fill="#42A5F5"/>
<path d="M111.15 89.5C111.3 89.55 111.75 89.65 112.65 89.4C113.45 89.2 115 88.25 114.95 89.2C114.35 89.9 113.75 90.8 113.75 90.8C113.3 91.2 112.4 91.25 111.8 91.2L110 90.75L109.55 89.9L109.85 89.6C110.3 89.65 110.75 89.6 111.15 89.5Z" fill="#441C1C"/>
<path d="M111.55 89.75C111.55 89.75 111.6 89.8 111.65 89.8C111.6 89.9 111.5 90 111.4 90.1C111 90.25 110.6 90.4 110.2 90.55C110.15 90.3 110.05 89.95 110.05 89.9L112.5 88.3C112.5 88.3 112.8 88.5 112.45 89C112.05 89.5 111.55 89.75 111.55 89.75Z" fill="#441C1C"/>
<path d="M88.45 75.55L88.3 75.8C88.35 75.8 91.9 78.2 91.9 82.05V97.9H85.4L85.6 85.7C85.5 85.75 85.45 85.85 85.35 85.9L85.15 98.15H92.15V82.05C92.15 78.05 88.5 75.6 88.45 75.55Z" fill="#67B8FA"/>
<path d="M84.85 79.65C84.85 79.65 80.4 91.15 83.45 92.2C86.45 93.2 92 84.95 92 84.95L90.95 84.15L85.9 88.45C85.9 88.45 87 86.85 87.6 83.3C88.15 79.7 84.85 79.65 84.85 79.65Z" fill="#441C1C"/>
<path d="M90.8 84.35L91.15 81.95C91.15 81.95 91.95 81.05 92.6 80.85C92.8 80.8 92.95 80.9 93.1 81.05C93.35 81.45 93.95 82.3 93.95 82.55C93.95 82.7 93.9 82.85 93.8 82.9L93.05 83.6L92 84.95L90.8 84.35Z" fill="#441C1C"/>
<path d="M91.9 101.3H85.45C84.9 101.3 84.45 100.85 84.45 100.3V96C84.45 95.45 84.9 95 85.45 95H91.9C92.45 95 92.9 95.45 92.9 96V100.3C92.9 100.85 92.45 101.3 91.9 101.3Z" fill="#67B8FA"/>
<path d="M92.9 98V96.1C92.9 95.5 92.4 95 91.8 95H85.55C84.95 95 84.45 95.5 84.45 96.1V98H92.9Z" fill="#FFDB71"/>
<path d="M92 101.3C91.45 101.3 91.05 101.1 91.05 100.55V95.75C91.05 95.2 91.45 95 92 95C92.5 95 92.95 95.4 92.95 95.75V100.35C92.95 101.1 92.5 101.3 92 101.3Z" fill="#67B8FA"/>
<path d="M87.7 99.05C87.55 99.05 87.4 98.95 87.4 98.75V97.3C87.4 97.15 87.55 97 87.7 97C87.85 97 88 97.15 88 97.3V98.75C88 98.95 87.85 99.05 87.7 99.05Z" fill="#42A5F5"/>
<path d="M194.15 78.6L190.8 84.95L194.5 84.75L194.75 78.4L194.15 78.6Z" fill="#441C1C"/>
<path d="M199.4 75.8H196.3L195.05 95.85H200.6L199.4 75.8Z" fill="white"/>
<path d="M205.15 134.75C205.15 134.75 205.9 135.35 205.75 136.1C205.6 136.9 205.4 138.7 205.4 138.7H204.6L204.65 137C204.65 136.9 202.95 138.7 202.65 138.7H198.5C198.5 138.7 198.2 137.55 200.65 137.2C203.1 136.85 205.15 134.75 205.15 134.75Z" fill="#42A5F5"/>
<path d="M203.3 134L202.75 135.45C202.6 135.85 202.35 136.2 202 136.45C201.6 136.7 200.95 137.05 200.05 137.3C201.15 138.3 202.95 137.25 204 136.55C204.5 136.2 204.85 135.7 205 135.1L205.25 134H203.3Z" fill="#441C1C"/>
<path d="M197.15 134.75C197.15 134.75 197.95 135.35 197.8 136.1C197.65 136.9 197.45 138.7 197.45 138.7H196.65L196.7 137C196.7 136.9 195 138.7 194.7 138.7H190.55C190.55 138.7 190.25 137.55 192.7 137.2C195.15 136.85 197.15 134.75 197.15 134.75Z" fill="#42A5F5"/>
<path d="M195.35 134L194.8 135.45C194.65 135.85 194.4 136.2 194 136.45C193.6 136.7 193 137.05 192.05 137.3C193.2 138.3 195 137.25 196.05 136.55C196.55 136.2 196.9 135.7 197.05 135.1L197.3 134H195.35Z" fill="#441C1C"/>
<path d="M201.8 95.85C201.8 95.85 202.35 98.85 199.35 113.65C201.75 121.3 197.85 134.2 197.85 134.2H195.05L193.1 95.9H201.8V95.85Z" fill="#67B8FA"/>
<path d="M196.65 75.8L195.65 100.15L192.3 98.75C192.3 98.75 193.8 94.15 193.65 87.8C194.2 83.2 191.55 85.65 194.75 76.8C195.95 75.8 196.65 75.8 196.65 75.8Z" fill="#FFDB71"/>
<path d="M196.2 73.3L196.6 75.35C196.8 76.25 197.8 76.7 198.6 76.2L199.95 75.35L197.5 69.8L196.2 73.3Z" fill="#441C1C"/>
<path d="M204.55 95.85C204.55 95.85 208.25 98.85 205.25 113.65C207.7 121.3 205.55 134.2 205.55 134.2H203L195.85 95.9H204.55V95.85Z" fill="#67B8FA"/>
<path d="M199.4 73.75C199.4 73.75 202.55 75.5 203.55 77.05C204.45 78.55 204.8 82 204.85 85C205 89.2 207 100.15 207 100.15H198.6L198.4 76.3L199.4 73.75Z" fill="#FFDB71"/>
<path d="M193.25 67.1C195.15 66.65 196.95 68.6 196.95 68.6L198.4 76.3L200.6 72.9C200.6 72.9 200.7 68.3 198.6 65.25C197.05 63.4 194.15 63.95 192.65 65.7C191.95 66.6 191.8 67.8 191.85 68.9C191.95 70.4 192.4 78.95 192.4 78.95L196.75 75.75C196.75 75.75 196.65 74.85 196.2 73.3C195.5 70.55 191.95 67.45 193.25 67.1Z" fill="#043C5E"/>
<path d="M197.55 68.45C197.25 68.35 196.9 68.55 196.7 68.9C196.55 69.25 196.65 69.6 196.95 69.75C197.2 69.85 197.55 69.65 197.75 69.3C197.9 68.95 197.8 68.6 197.55 68.45Z" fill="#441C1C"/>
<path d="M195.5 73.65C195.15 73.75 194.8 73.85 194.55 73.75C192.9 72.55 192.3 67.8 192.3 67.8L193.6 66.4L196.25 66.95L197.5 69.8C197.85 70.55 197.8 71.45 197.4 72.2C196.9 72.85 196.25 73.35 195.5 73.65Z" fill="#441C1C"/>
<path d="M192.8 67C192.95 68.45 196.95 68.6 196.95 68.6L197.15 66.6L194.8 65.35L192.95 66.45C192.95 66.45 192.8 66.8 192.8 67Z" fill="#043C5E"/>
<path d="M192.9 67.3C193 67.85 192.45 68.8 192.45 68.8L192.15 68.2V67.7L192.5 67.3C192.5 67.3 192.75 66.75 192.9 67.3Z" fill="#043C5E"/>
<path d="M202.7 77.05C206.75 77.55 204.8 88.05 203.95 92.35C203.75 93.4 202.65 94.05 201.6 93.75C198.1 92.6 192.9 87.95 192.9 87.95L193.75 86.95L200.6 88.55C200.6 88.55 197.95 76.5 202.7 77.05Z" fill="#441C1C"/>
<path d="M188.7 88.1C188.65 87.85 188.7 87.65 188.8 87.05C188.9 86.25 188.9 85.05 189.65 85.65C190.4 86.6 190.5 87.6 190.5 87.6C190.65 88.15 190.35 88.95 190 89.35L189.45 90.55C189.45 90.55 188.55 89.45 188.7 88.1Z" fill="#441C1C"/>
<path d="M192.15 87.35C192.15 87.55 191.95 87.75 191.75 87.75C191.5 87.75 191.35 87.55 191.35 87.35C191.35 87.15 191.5 86.95 191.75 86.95C191.95 86.95 192.15 87.15 192.15 87.35Z" fill="white"/>
<path d="M29.5 77.95L35.9 94H38.6C39.4 94 39.65 94.2 40.3 94.6L42.05 95.9H35C35 95.9 27.35 86.85 26.5 81.2C29.05 78.7 29.5 77.95 29.5 77.95Z" fill="#441C1C"/>
<path d="M19.1 72.9L20.95 69.85L23.35 71.1L22.55 73.75C22.5 73.75 22.5 73.75 22.45 73.75C21.7 72.9 20.2 73.35 19.1 72.9Z" fill="#441C1C"/>
<path d="M21.25 65.1L20.55 68.75C20.95 68.85 21.05 69.25 20.9 69.6C20.9 69.7 20.9 69.75 20.9 69.85C21.4 70.45 22.4 71.3 23.95 71.35C26.35 71.45 26 66.75 26 66.75L21.25 65.1Z" fill="#441C1C"/>
<path d="M19.45 67.55C19.5 67.3 19.25 66.65 19.1 66.4C18.05 65 19.4 64.45 19.9 64.3C20.4 64.1 20.5 63.25 21.2 62.9C22.3 62.45 23 63.35 23.6 63.4C24.2 63.4 24.7 62.75 25.45 63.35C26.2 63.95 25.95 64.6 26.15 64.9C26.35 65.25 27.05 64.6 27.65 65.65C28.55 67.3 26 67.3 26 67.3C26 67.3 24.55 67.55 22.95 66.45C22.7 66.3 22.4 66.25 22.2 66.45C21.65 66.9 20.95 69.9 20.95 69.9L20.45 69.3C20.45 69.3 19.25 68.8 19.45 67.55Z" fill="#043C5E"/>
<path d="M20.75 68.15C20.8 68.45 21.1 68.7 21.4 68.65C21.7 68.6 21.95 68.3 21.9 68C21.85 67.65 21.55 67.45 21.2 67.5C20.9 67.55 20.7 67.85 20.75 68.15Z" fill="#441C1C"/>
<path d="M15.15 92.25H26.85V81.2L29.5 77.95C29.5 77.95 26.55 72.5 21 72.5C15.4 72.5 11.75 77.95 11.75 77.95L15.15 82.7V92.25Z" fill="#67B8FA"/>
<path d="M26.95 92.25V78.7H27H26.7V92.25H26.95Z" fill="#67B8FA"/>
<path d="M11.35 135.25C11.35 135.25 11.1 137 14.4 138.55C15.05 138.9 14.8 139.05 14.9 139.4C13.75 139.2 10.9 138.75 10.9 138.75L9.65 136.75L9.1 137.1L8.15 135.8C8.15 135.8 8.9 134.3 9.75 134.4C10.45 134.75 11.35 135.25 11.35 135.25Z" fill="#043C5E"/>
<path d="M12.25 133.85L11.35 135.25C10.75 135.35 10.15 135.05 9.8 134.5L9.75 134.4L10.5 132.95L12.25 133.85Z" fill="#441C1C"/>
<path d="M17.05 135.55C17.05 135.55 18.15 136.6 20.75 137.25C21.3 137.4 21.9 137.2 21.9 138.15C20.7 138.15 18.8 138.15 18.8 138.15L16.2 137.7V138.15H14.8C14.8 138.15 14.45 135.85 15.25 135.55C16 135.55 17.05 135.55 17.05 135.55Z" fill="#043C5E"/>
<path d="M16.8 133.95L17.05 135.6C16.55 135.95 15.9 135.95 15.35 135.65L15.25 135.6L15.4 133.95H16.8Z" fill="#441C1C"/>
<path d="M18.7 72.8L20.05 71.35L23.05 72L23.35 72.9L18.7 72.8Z" fill="white"/>
<path d="M15.15 92.25C13 110.35 15.15 134.3 15.15 134.3H17.15C17.15 134.3 23.35 108.7 22.3 92.25C18.7 92.25 20.45 92.25 15.15 92.25Z" fill="#043C5E"/>
<path d="M26.95 92.25C26.95 92.25 29.05 110.6 26.5 116.05C24 121.5 12.45 134.15 12.45 134.15L10.15 133.35C10.15 133.35 14.45 120.55 20.3 113.7C20.65 102.05 20.25 92.25 20.25 92.25H26.95Z" fill="#043C5E"/>
<path d="M20.5 99C20.4 98.95 20.3 98.95 20.2 98.95C20.3 103 20.3 108.45 20.15 114.3C13.45 121.45 10.2 133.15 10.15 133.3C10.25 133.3 10.35 133.3 10.45 133.25C10.75 132.3 14 121.25 20.4 114.45L20.45 114.4V114.35C20.6 108.5 20.6 103.05 20.5 99Z" fill="#42A5F5"/>
<path d="M11.75 77.95C11.75 77.95 7.6 82.6 7.6 85.7C7.6 88.85 15.05 97.3 15.05 97.3L16.3 94.9L11.45 86.35L15.15 82.7L11.75 77.95Z" fill="#441C1C"/>
<path d="M15 97.65L14.8 97.5L16.55 94.25L16.8 94.35L15 97.65Z" fill="#42A5F5"/>
</svg>
