<svg width="214" height="212" viewBox="0 0 214 212" fill="none" xmlns="http://www.w3.org/2000/svg">
<path d="M140.006 147.335C140.006 147.335 141.363 107.682 168.669 97.7005C201.566 135.347 164.434 167.623 164.434 167.623L140.006 147.335Z" fill="#008DFF"/>
<path d="M168.669 97.7005C168.777 97.8632 168.886 97.9717 168.994 98.1344L155.749 142.941L182.24 130.79C182.24 131.116 182.24 131.441 182.24 131.767L155.423 144.026L151.623 156.991L150.917 156.394L158.517 130.573L147.66 117.608C147.823 117.337 147.986 117.066 148.094 116.795L158.789 129.597L168.126 97.9175C168.289 97.8632 168.451 97.809 168.669 97.7005Z" fill="#043C5E"/>
<path d="M152.6 142.67C152.6 142.67 178.386 112.672 205.583 118.585C215.409 150.535 181.317 166.863 181.317 166.863L146.791 168.708L152.6 142.67Z" fill="#FFD247"/>
<path d="M175.291 124.443L177.517 141.856L204.986 118.422C205.203 118.476 205.42 118.531 205.637 118.531C205.637 118.693 205.691 118.802 205.746 118.91L191.034 131.441L207.157 133.774C207.157 133.936 207.103 134.099 207.103 134.262L207.049 134.642L190.111 132.2L165.629 153.139L193.803 158.075C193.531 158.347 193.26 158.564 192.989 158.835L164.76 153.844L147.389 168.708H146.791L146.954 167.894L176.703 142.507L174.477 124.932C174.749 124.769 175.02 124.606 175.291 124.443Z" fill="white"/>
<path d="M155.966 161.276C155.966 161.276 188.049 153.302 200.806 171.42C183.109 213.08 128.823 193.498 128.823 193.498L155.966 161.276Z" fill="#043C5E"/>
<path d="M200.806 171.42C200.751 171.583 200.697 171.745 200.643 171.908L156.509 179.34L174.64 195.559C174.314 195.667 173.989 195.722 173.663 195.83L155.423 179.502L138.16 182.432L139.029 181.401L172.577 175.759L183.38 160.733C183.706 160.788 184.031 160.842 184.303 160.95L173.826 175.542L200.534 171.04C200.643 171.149 200.751 171.311 200.806 171.42Z" fill="#043C5E"/>
<path d="M66.6657 119.616C66.6657 119.616 75.84 80.4505 51.7371 63.4175C9.44857 91.5165 37.2429 133.014 37.2429 133.014L66.6657 119.616Z" fill="#FFD247"/>
<path d="M51.7371 63.4175C51.6286 63.5259 51.4657 63.6344 51.3029 63.6887L52.3343 111.153L29.5886 92.1675C29.5343 92.4929 29.48 92.8184 29.3714 93.1439L52.3886 112.292L52.66 126.017L53.5286 125.583L52.9314 98.2972L66.9914 88.4788C66.9371 88.1533 66.8829 87.8821 66.8286 87.5566L52.9314 97.2665L52.2257 63.7429C52.0629 63.6344 51.9 63.5259 51.7371 63.4175Z" fill="white"/>
<path d="M55.4829 111.696C55.4829 111.696 38.22 75.4599 9.99143 73.9953C-8.14 102.745 20.9029 127.807 20.9029 127.807L54.2886 138.818L55.4829 111.696Z" fill="#008DFF"/>
<path d="M38.1114 87.8278L31.3257 104.264L10.6429 74.0495C10.4257 74.0495 10.2086 73.9953 9.99143 73.9953C9.93714 74.1038 9.82857 74.2123 9.77428 74.3208L20.8486 90.5401L4.4 88.533C4.4 88.6958 4.4 88.8043 4.34571 88.967L4.29143 89.4009L21.5 91.5165L39.9571 118.531L11.0229 115.873C11.24 116.198 11.4029 116.524 11.62 116.795L40.6086 119.453L53.7457 138.601L54.2886 138.818L54.3429 137.95L31.9229 105.186L38.8171 88.533C38.6 88.2618 38.3829 88.0448 38.1114 87.8278Z" fill="#043C5E"/>
<path d="M47.2314 129.054C47.2314 129.054 17.9714 112.726 0.599998 127.101C6.89714 172.613 65.2543 167.84 65.2543 167.84L47.2314 129.054Z" fill="#043C5E"/>
<path d="M0.599998 127.101C0.599998 127.264 0.654283 127.427 0.654283 127.59L41.9114 146.575L19.8171 157.696C20.1429 157.858 20.4143 158.021 20.6857 158.238L42.9429 147.064L59.0657 154.495L58.4686 153.248L27.1457 138.818L20.5229 121.243C20.1971 121.189 19.8714 121.189 19.5457 121.189L26.0057 138.276L0.979997 126.776C0.871425 126.884 0.70857 126.993 0.599998 127.101Z" fill="#043C5E"/>
<path d="M10.2086 47.3066L8.85143 51.3208L12.7057 49.8019L25.6257 43.5637L10.2086 47.3066Z" fill="#42A5F5"/>
<path d="M8.85143 51.3208L15.5286 49.9104L13.7914 49.3137L8.85143 51.3208Z" fill="#42A5F5"/>
<path d="M10.9143 54.7925C10.86 54.7925 10.8057 54.7925 10.8057 54.7382C10.6429 54.6297 10.6429 54.4127 10.7514 54.3042C11.1314 53.8703 11.5114 53.4906 11.9457 53.1651C12.1086 53.0024 12.2714 53.0566 12.38 53.1651C12.4886 53.3278 12.4886 53.5448 12.38 53.6533C11.9457 53.9788 11.5657 54.3042 11.24 54.7382C11.1857 54.7925 11.0229 54.8467 10.9143 54.7925Z" fill="#42A5F5"/>
<path d="M20.5229 88.8043C20.5229 88.8043 20.5229 88.8043 20.4686 88.8043C19.4914 88.4245 18.5686 87.8278 17.7 87.0142C17.5371 86.9057 17.5371 86.7429 17.6457 86.5802C17.8086 86.4717 17.9714 86.4717 18.1343 86.5802C18.9486 87.2854 19.8171 87.8821 20.74 88.2618C20.9029 88.316 20.9571 88.4788 20.9029 88.6415C20.8486 88.8042 20.6857 88.8585 20.5229 88.8043ZM16.5057 85.658C16.4514 85.658 16.3971 85.6038 16.3429 85.5495C15.6371 84.6816 15.0943 83.7594 14.66 82.7288C14.6057 82.566 14.66 82.3491 14.8229 82.2948C14.9857 82.2406 15.2029 82.2948 15.2571 82.4576C15.6371 83.434 16.18 84.3561 16.8314 85.1698C16.94 85.3326 16.94 85.5495 16.7771 85.658C16.7229 85.7123 16.56 85.7123 16.5057 85.658ZM14.28 81.0472C14.1714 80.9929 14.1171 80.9387 14.0629 80.8302V80.6675C13.8457 79.691 13.7371 78.6061 13.7371 77.5212C13.7371 77.3585 13.9 77.1958 14.0629 77.1958C14.28 77.1958 14.3886 77.3585 14.3886 77.5212C14.3886 78.5519 14.4971 79.5826 14.66 80.559L14.7143 80.6675C14.7686 80.8302 14.66 80.9929 14.4429 81.0472C14.3886 81.0472 14.3343 81.0472 14.28 81.0472ZM14.1171 75.8939C13.9543 75.8396 13.8457 75.7311 13.9 75.5684C14.0086 74.5377 14.1714 73.4528 14.4971 72.3679C14.5514 72.1509 14.7143 72.0967 14.8771 72.0967C15.04 72.1509 15.1486 72.3137 15.0943 72.5307C14.8229 73.6156 14.6057 74.6462 14.4971 75.6226C14.4971 75.8396 14.3343 75.9481 14.1714 75.9481C14.1171 75.9481 14.1171 75.8939 14.1171 75.8939ZM15.2571 70.9033C15.04 70.8491 14.9857 70.6321 15.04 70.4693C15.04 70.4151 15.0943 70.3066 15.0943 70.2524C14.6057 70.0896 14.0629 69.9269 13.6286 69.7099C13.4657 69.6014 13.3571 69.4387 13.4657 69.2759C13.52 69.1132 13.7371 69.059 13.9 69.1132C14.3343 69.3302 14.8229 69.4929 15.3114 69.6557C15.5829 68.9505 15.8543 68.2453 16.1257 67.4316C16.2343 67.2689 16.3971 67.1604 16.56 67.2689C16.7229 67.3231 16.8314 67.4859 16.7229 67.6486C16.4514 68.408 16.18 69.1132 15.9629 69.8184C16.2343 69.8726 16.56 69.9269 16.8857 69.9811C17.0486 69.9811 17.1571 70.1439 17.1571 70.3609C17.1571 70.5236 16.9943 70.6321 16.7771 70.6321C16.4514 70.5778 16.0714 70.5236 15.7457 70.4151C15.6914 70.5236 15.6914 70.5778 15.6371 70.6863C15.5829 70.8491 15.42 70.9576 15.2571 70.9033ZM12 68.6792C11.9457 68.6792 11.9457 68.6793 11.8914 68.625C11.3486 68.2453 10.86 67.7571 10.4257 67.2146C10.1543 66.8892 9.88286 66.5094 9.66572 66.1297C9.61143 66.0212 9.66572 65.8042 9.77429 65.6958C9.93715 65.6415 10.1543 65.6958 10.2086 65.8042C10.4257 66.184 10.6429 66.5094 10.9143 66.7807C11.2943 67.2689 11.7829 67.7571 12.2714 68.1368C12.4343 68.2453 12.4343 68.4623 12.3257 68.5708C12.2714 68.6792 12.1086 68.7335 12 68.6792ZM18.6771 70.6321C18.5686 70.6321 18.46 70.5236 18.46 70.3609C18.46 70.1981 18.5686 70.0354 18.7314 70.0354C19.8171 69.9811 20.8486 69.7642 21.7714 69.3302C21.9343 69.2759 22.1514 69.3844 22.2057 69.5472C22.26 69.7099 22.2057 69.8726 22.0429 69.9269C21.0114 70.3609 19.9257 70.6321 18.7857 70.6863C18.7314 70.6863 18.7314 70.6863 18.6771 70.6321ZM9.06857 64.5566C8.96 64.5024 8.90572 64.4481 8.85143 64.3396C8.52572 63.309 8.36286 62.1698 8.36286 61.0849C8.36286 60.8679 8.47143 60.7594 8.63429 60.7594C8.85143 60.7594 8.96 60.8679 8.96 61.0849C8.96 62.1156 9.12286 63.1462 9.44858 64.1226C9.50286 64.2854 9.44857 64.5024 9.28572 64.5566C9.17715 64.5566 9.12286 64.5566 9.06857 64.5566ZM23.5086 69.0047C23.4543 69.0047 23.4 68.9505 23.3457 68.8962C23.2371 68.7335 23.2914 68.5708 23.4 68.4623C23.6171 68.2995 23.8343 68.1368 24.0514 67.9198C24.5943 67.4316 25.0829 66.8349 25.4086 66.184C25.5171 66.0212 25.7343 65.967 25.8429 66.0212C26.0057 66.1297 26.06 66.2925 26.0057 66.4552C25.6257 67.2146 25.0829 67.8656 24.4857 68.408C24.2686 68.625 23.9971 68.7877 23.78 68.9505C23.6714 69.0047 23.6171 69.059 23.5086 69.0047ZM17.1029 66.0755C17.1029 66.0755 17.0486 66.0755 17.0486 66.0212C16.8857 65.967 16.8314 65.8043 16.8857 65.6415C17.4286 64.3939 17.9714 63.5259 18.5686 62.7665C18.6771 62.658 18.8943 62.6038 19.0571 62.7123C19.1657 62.875 19.22 63.0377 19.0571 63.2005C18.5143 63.8514 18.0257 64.7193 17.4829 65.8585C17.4286 66.0212 17.2657 66.1297 17.1029 66.0755ZM8.74286 59.4575C8.58 59.4033 8.47143 59.2406 8.52572 59.0778C8.63429 58.5896 8.74286 58.1014 8.90572 57.6132C9.12286 57.0165 9.34 56.4741 9.61143 55.9316C9.72 55.7689 9.88286 55.7146 10.0457 55.8231C10.2086 55.8774 10.2629 56.0943 10.2086 56.2571C9.93714 56.7453 9.66572 57.2877 9.50286 57.8302C9.34 58.2642 9.23143 58.6981 9.17715 59.1863C9.12286 59.3491 8.96 59.4575 8.79714 59.4575C8.74286 59.4575 8.74286 59.4575 8.74286 59.4575ZM26.1686 64.7736C26.06 64.7193 25.9514 64.6109 25.9514 64.4481C26.06 63.6344 25.8971 62.9835 25.4629 62.3868C25.3 62.1698 25.1371 62.0071 24.92 61.8443C24.8114 61.7359 24.7571 61.5731 24.8657 61.4104C24.9743 61.2476 25.1914 61.2476 25.3543 61.3561C25.5714 61.5189 25.7886 61.7358 26.0057 62.0071C26.4943 62.7123 26.7114 63.5802 26.6029 64.5024C26.6029 64.6651 26.44 64.7736 26.2771 64.7736C26.2229 64.7736 26.2229 64.7736 26.1686 64.7736ZM20.1429 62.0071C20.0886 61.9528 20.0343 61.8986 19.98 61.8443C19.9257 61.7359 19.9257 61.5189 20.0886 61.4104C21.0657 60.8137 22.26 60.4882 23.4 60.5967C23.5629 60.6509 23.6714 60.7594 23.6714 60.9764C23.6714 61.1392 23.5086 61.2476 23.2914 61.2476C22.3686 61.1392 21.2829 61.4104 20.4686 61.9528C20.36 62.0071 20.2514 62.0071 20.1429 62.0071Z" fill="#42A5F5"/>
<path d="M22.4229 89.3467C22.26 89.2925 22.2057 89.1297 22.2057 88.967C22.2057 88.8043 22.3686 88.6958 22.5314 88.6958C23.0743 88.8043 23.5629 88.8042 24.1057 88.75C24.2686 88.75 24.4314 88.8585 24.4314 89.0212C24.4314 89.184 24.3229 89.3467 24.16 89.4009C23.5629 89.4552 23.02 89.4009 22.4771 89.3467H22.4229Z" fill="#42A5F5"/>
<path d="M197.006 39.5495L198.363 43.5094L194.563 42.0448L181.643 35.7524L197.006 39.5495Z" fill="#42A5F5"/>
<path d="M198.363 43.5094L191.686 42.0991L193.477 41.5024L198.363 43.5094Z" fill="#42A5F5"/>
<path d="M196.354 47.0354C196.354 47.0354 196.409 46.9811 196.463 46.9811C196.571 46.8726 196.571 46.6557 196.463 46.4929C196.137 46.1132 195.703 45.6792 195.269 45.3538C195.16 45.2453 194.943 45.2995 194.834 45.408C194.726 45.5708 194.726 45.7335 194.889 45.842C195.269 46.1675 195.649 46.5472 195.974 46.9269C196.083 47.0354 196.191 47.0896 196.354 47.0354Z" fill="#42A5F5"/>
<path d="M186.311 80.8844C186.257 80.7217 186.366 80.5047 186.529 80.4505C187.451 80.0708 188.32 79.5283 189.134 78.7689C189.243 78.6604 189.46 78.6604 189.569 78.8231C189.677 78.9316 189.677 79.1486 189.569 79.2571C188.7 80.0165 187.723 80.6132 186.746 81.0472C186.583 81.1014 186.42 81.0472 186.311 80.8844ZM190.437 77.8467C190.329 77.7382 190.274 77.5212 190.383 77.4127C191.034 76.5991 191.577 75.6769 191.957 74.7005C192.066 74.5377 192.229 74.4293 192.391 74.5377C192.554 74.592 192.663 74.7547 192.554 74.9175C192.174 75.9481 191.577 76.9245 190.926 77.7925C190.871 77.8467 190.817 77.9009 190.763 77.9009C190.654 77.9552 190.546 77.901 190.437 77.8467ZM192.771 73.2901C192.609 73.2359 192.5 73.0731 192.554 72.9104V72.7476C192.771 71.8255 192.826 70.7948 192.826 69.7642C192.826 69.6014 192.989 69.4387 193.151 69.4387C193.369 69.4387 193.477 69.6014 193.477 69.7642C193.477 70.8491 193.369 71.8797 193.206 72.9104L193.151 73.0189C193.151 73.1274 193.043 73.2359 192.934 73.2901C192.88 73.2901 192.826 73.2901 192.771 73.2901ZM193.097 68.1368C192.934 68.191 192.771 68.0283 192.717 67.8656C192.609 66.8892 192.446 65.8042 192.12 64.7193C192.12 64.5566 192.229 64.3939 192.391 64.3396C192.554 64.2854 192.717 64.3939 192.771 64.5566C193.043 65.6958 193.26 66.7807 193.369 67.8113C193.369 67.9198 193.314 68.0826 193.151 68.1368H193.097ZM192.011 63.092C191.849 63.1462 191.686 63.0377 191.631 62.875C191.577 62.8208 191.577 62.7123 191.523 62.658C191.197 62.7123 190.817 62.7665 190.437 62.8208C190.274 62.875 190.111 62.7123 190.111 62.5495C190.057 62.3868 190.166 62.2241 190.383 62.1698C190.709 62.1698 190.98 62.1156 191.306 62.0071C191.089 61.3561 190.817 60.6509 190.491 59.8915C190.437 59.7288 190.546 59.5118 190.709 59.4576C190.871 59.4033 191.034 59.4576 191.089 59.6203C191.414 60.434 191.686 61.1934 191.957 61.8443C192.446 61.7359 192.934 61.5189 193.369 61.3019C193.531 61.2476 193.694 61.3019 193.803 61.4646C193.857 61.6274 193.803 61.8443 193.64 61.8986C193.151 62.1156 192.663 62.3326 192.174 62.4953C192.174 62.5495 192.174 62.6038 192.229 62.7123C192.283 62.875 192.174 63.0377 192.011 63.092ZM194.889 60.8137C194.78 60.6509 194.834 60.4882 194.943 60.3797C195.486 59.9458 195.92 59.5118 196.354 59.0236C196.571 58.6981 196.789 58.3726 197.006 58.0472C197.114 57.8844 197.277 57.8302 197.44 57.9387C197.603 58.0472 197.657 58.2099 197.549 58.3726C197.331 58.7524 197.114 59.0778 196.843 59.4033C196.409 59.9458 195.92 60.434 195.377 60.8679C195.323 60.8679 195.269 60.9222 195.269 60.9222C195.106 60.9764 194.997 60.9222 194.889 60.8137ZM188.429 62.875C187.289 62.8208 186.203 62.6038 185.226 62.1698C185.063 62.0613 184.954 61.8986 185.063 61.7359C185.117 61.5731 185.28 61.5189 185.443 61.5731C186.42 61.9528 187.397 62.1698 188.483 62.2783C188.646 62.2783 188.809 62.441 188.809 62.6038C188.754 62.7123 188.7 62.8208 188.591 62.875C188.537 62.875 188.483 62.875 188.429 62.875ZM197.983 56.7453C197.82 56.691 197.711 56.5283 197.766 56.3656C198.091 55.3892 198.254 54.3585 198.254 53.2736C198.254 53.1109 198.417 52.9481 198.58 52.9481C198.743 52.9481 198.906 53.1109 198.906 53.2736C198.906 54.4127 198.743 55.4976 198.417 56.5826C198.363 56.6368 198.309 56.7453 198.2 56.7453C198.146 56.7995 198.037 56.7995 197.983 56.7453ZM183.434 61.1934C183.217 61.0307 183 60.8137 182.783 60.6509C182.131 60.1085 181.643 59.4033 181.263 58.6981C181.154 58.5354 181.209 58.3184 181.371 58.2642C181.534 58.1557 181.751 58.2099 181.806 58.3726C182.131 59.0778 182.62 59.6745 183.217 60.1627C183.38 60.3255 183.597 60.4882 183.814 60.6509C183.977 60.7594 184.031 60.9764 183.923 61.1392C183.869 61.1934 183.814 61.1934 183.76 61.2476C183.651 61.2476 183.543 61.2476 183.434 61.1934ZM189.786 58.1014C189.243 56.9623 188.754 56.0943 188.157 55.3892C188.049 55.2807 188.049 55.0637 188.211 54.9552C188.32 54.8467 188.537 54.8467 188.646 55.0094C189.243 55.7146 189.786 56.6368 190.329 57.8302C190.437 57.9929 190.329 58.2099 190.166 58.2642C190.003 58.3184 189.84 58.2642 189.786 58.1014ZM198.471 51.6462C198.309 51.7005 198.146 51.592 198.091 51.4293C197.983 50.941 197.874 50.4528 197.711 50.0189C197.549 49.4764 197.331 48.9882 197.06 48.5C196.951 48.3373 197.006 48.1203 197.169 48.066C197.331 47.9575 197.549 48.0118 197.603 48.1745C197.929 48.717 198.146 49.2594 198.363 49.8561C198.471 50.2901 198.634 50.7783 198.743 51.3208C198.743 51.4292 198.634 51.592 198.526 51.6462C198.471 51.6462 198.471 51.6462 198.471 51.6462ZM180.991 57.0165C180.829 57.0165 180.666 56.908 180.611 56.7453C180.557 55.7689 180.774 54.9552 181.263 54.25C181.426 53.9788 181.643 53.7618 181.914 53.5991C182.077 53.4906 182.24 53.4906 182.349 53.6533C182.457 53.7618 182.457 53.9788 182.294 54.0873C182.131 54.25 181.914 54.4127 181.806 54.6297C181.371 55.1722 181.209 55.8774 181.263 56.6368C181.317 56.7995 181.209 56.9623 181.046 57.0165H180.991ZM186.8 54.1958C185.986 53.6533 184.9 53.3821 183.923 53.4906C183.76 53.4906 183.597 53.3821 183.597 53.1651C183.543 53.0024 183.706 52.8396 183.869 52.8396C185.009 52.7311 186.203 53.0024 187.18 53.6533C187.289 53.7076 187.343 53.9245 187.234 54.0873C187.234 54.1415 187.18 54.1958 187.071 54.1958C187.017 54.25 186.909 54.25 186.8 54.1958Z" fill="#42A5F5"/>
<path d="M184.846 81.5354C184.954 81.5354 185.063 81.3726 185.063 81.2099C185.009 81.0472 184.846 80.9387 184.683 80.9387C184.194 80.9929 183.651 80.9929 183.163 80.9929C183 80.9387 182.837 81.1014 182.837 81.2641C182.783 81.4269 182.946 81.5896 183.109 81.5896C183.651 81.6439 184.194 81.6439 184.791 81.5896C184.791 81.5896 184.791 81.5896 184.846 81.5354Z" fill="#42A5F5"/>
<path d="M136.857 4.99529C147.117 4.99529 155.423 12.9151 155.423 22.6792V187.91C155.423 197.675 147.117 205.594 136.857 205.594H71.3886C61.1286 205.594 52.8229 197.675 52.8229 187.91V22.6792C52.8229 12.9151 61.1286 4.99529 71.3886 4.99529H136.857Z" fill="#42A5F5"/>
<path d="M138.974 8.14151C148.691 8.14151 152.6 15.6274 152.6 24.9033V185.741C152.6 194.962 148.691 202.448 138.974 202.448H70.5743C60.9114 202.448 55.6457 196.156 55.6457 186.934V23.7099C55.6457 14.434 60.9114 8.14151 70.5743 8.14151H138.974Z" fill="white"/>
<path d="M148.746 32.2264H59.4457V177.387H148.746V32.2264Z" fill="#043C5E"/>
<path d="M104.991 197.295C108.52 197.295 111.343 194.474 111.343 190.948C111.343 187.422 108.52 184.601 104.991 184.601C101.517 184.601 98.64 187.422 98.64 190.948C98.64 194.474 101.517 197.295 104.991 197.295Z" fill="#42A5F5"/>
<path d="M121.766 21.5401C121.983 21.5401 122.146 21.2146 122.146 20.8349C122.146 20.5094 121.983 20.184 121.766 20.184H86.9686C86.7514 20.184 86.5886 20.5094 86.5886 20.8349C86.5886 21.2146 86.7514 21.5401 86.9686 21.5401H121.766Z" fill="#008DFF"/>
<path d="M99.5629 105.62C102.331 105.62 104.611 107.899 104.611 110.719V126.83C104.611 130.302 106.674 132.255 109.226 133.123H92.18V113.811C92.18 109.309 95.4914 105.62 99.5629 105.62Z" fill="#42A5F5"/>
<path d="M69.5971 144.623C72.42 144.623 74.7 146.901 74.7 149.667V165.778C74.7 169.25 76.7086 171.203 79.3143 172.071H62.2686V152.814C62.2686 148.311 65.58 144.623 69.5971 144.623Z" fill="#42A5F5"/>
<path d="M128.551 52.8939C131.809 52.8939 134.523 55.6061 134.523 58.8608V108.658C134.523 112.13 137.454 116.469 140.874 117.608V118.151H120.354V61.0307C120.3 56.5283 124.046 52.8939 128.551 52.8939Z" fill="#42A5F5"/>
<path d="M47.0143 161.005H18.6771V162.198H47.0143V161.005Z" fill="#008DFF"/>
<path d="M47.0143 165.778H18.6771V166.972H47.0143V165.778Z" fill="#008DFF"/>
<path d="M79.5857 117.229H51.3029V118.422H79.5857V117.229Z" fill="#008DFF"/>
<path d="M79.5857 121.948H51.3029V123.142H79.5857V121.948Z" fill="#008DFF"/>
<path d="M79.5857 127.318H51.3029V128.512H79.5857V127.318Z" fill="#008DFF"/>
<path d="M79.5857 132.092H51.3029V133.231H79.5857V132.092Z" fill="#008DFF"/>
<path d="M108.357 64.1226H80.0743V65.316H108.357V64.1226Z" fill="#008DFF"/>
<path d="M108.357 68.8962H80.0743V70.0354H108.357V68.8962Z" fill="#008DFF"/>
<path d="M108.357 74.2123H80.0743V75.4057H108.357V74.2123Z" fill="#008DFF"/>
<path d="M108.357 78.9858H80.0743V80.1792H108.357V78.9858Z" fill="#008DFF"/>
<path d="M108.357 84.1392H80.0743V85.3325H108.357V84.1392Z" fill="#008DFF"/>
<path d="M108.357 88.9127H80.0743V90.1061H108.357V88.9127Z" fill="#008DFF"/>
<path d="M108.357 94.2288H80.0743V95.4222H108.357V94.2288Z" fill="#008DFF"/>
<path d="M108.357 99.0024H80.0743V100.196H108.357V99.0024Z" fill="#008DFF"/>
<path d="M109.823 0.764153H50.1086C50.1086 21.5401 35.2886 41.0684 35.2886 41.0684H109.823V0.764153Z" fill="#FFD247"/>
<path d="M35.7229 40.6887C36.1571 44.9741 39.7943 48.3373 44.1914 48.3373C48.5886 48.3373 52.2257 44.9741 52.66 40.6887H35.7229Z" fill="#F7A605"/>
<path d="M52.28 40.6887C52.7143 44.9741 56.3514 48.3373 60.7486 48.3373C65.1457 48.3373 68.7829 44.9741 69.2171 40.6887H52.28Z" fill="#F7A605"/>
<path d="M69.2714 40.6887C69.6514 44.9741 73.2886 48.3373 77.6857 48.3373C82.0829 48.3373 85.72 44.9741 86.1543 40.6887H69.2714Z" fill="#F7A605"/>
<path d="M85.8286 40.6887C86.2629 44.9741 89.8457 48.3373 94.2429 48.3373C98.64 48.3373 102.277 44.9741 102.711 40.6887H85.8286Z" fill="#F7A605"/>
<path d="M109.823 40.6887H102.929C103.309 44.4858 106.131 47.5236 109.823 48.1745V40.6887Z" fill="#F7A605"/>
<path d="M96.2514 0.764153H156.02C156.02 21.5401 170.84 41.0684 170.84 41.0684H96.2514V0.764153Z" fill="#FFD247"/>
<path d="M170.351 40.6887C169.971 44.9741 166.334 48.3373 161.937 48.3373C157.54 48.3373 153.903 44.9741 153.469 40.6887H170.351Z" fill="#F7A605"/>
<path d="M153.794 40.6887C153.36 44.9741 149.777 48.3373 145.38 48.3373C140.983 48.3373 137.346 44.9741 136.911 40.6887H153.794Z" fill="#F7A605"/>
<path d="M136.857 40.6887C136.423 44.9741 132.84 48.3373 128.443 48.3373C123.991 48.3373 120.409 44.9741 119.974 40.6887H136.857Z" fill="#F7A605"/>
<path d="M120.3 40.6887C119.866 44.9741 116.283 48.3373 111.831 48.3373C107.434 48.3373 103.851 44.9741 103.417 40.6887H120.3Z" fill="#F7A605"/>
<path d="M96.2514 40.6887H103.2C102.82 44.4858 99.9429 47.5236 96.2514 48.1745V40.6887Z" fill="#F7A605"/>
<path d="M139.626 72.5307C146.466 86.092 139.626 93.3066 139.626 93.3066C139.626 93.3066 171.003 88.5873 202 93.3066C195.974 82.4033 202 72.4222 202 72.4222C202 72.4222 182.566 70.3609 139.626 72.5307Z" fill="#043C5E"/>
<path d="M161.937 83.5425C161.937 84.5189 161.666 85.2783 161.123 85.875C160.254 86.8514 158.843 87.2854 156.834 87.2854C156.237 87.2854 155.749 87.2854 155.369 87.2311C154.88 87.1226 154.446 87.0141 154.12 86.9599H154.011V83.7594C154.663 83.8679 155.151 83.9764 155.586 84.0307C156.02 84.0849 156.454 84.0849 156.834 84.0849C157.214 84.0849 157.486 84.0849 157.649 84.0307C158.029 83.9222 158.191 83.7594 158.191 83.4882C158.191 83.3255 158.137 83.1627 157.974 83.0542C157.92 83 157.54 82.8373 156.726 82.566C155.586 82.1321 154.826 81.6439 154.446 81.0472C154.066 80.559 153.903 79.9623 153.903 79.2028C153.903 78.1722 154.229 77.3585 154.826 76.7075C155.586 75.9481 156.78 75.5142 158.3 75.5142C158.843 75.5142 159.331 75.5684 159.766 75.5684C160.2 75.6226 160.689 75.6769 161.286 75.8396V79.0401C160.689 78.8774 160.254 78.7689 159.874 78.7146C159.494 78.6604 159.169 78.6604 158.843 78.6604C158.354 78.6604 158.029 78.7146 157.811 78.7689C157.594 78.8774 157.486 78.9859 157.486 79.2028C157.486 79.4198 157.703 79.5826 158.137 79.7453C158.3 79.8538 158.517 79.908 158.734 79.9623C159.82 80.4505 160.58 80.8302 161.014 81.2641C161.611 81.8608 161.937 82.6203 161.937 83.5425Z" fill="white"/>
<path d="M173.826 87.0684L169.971 87.2854L169.429 85.3325H166.334L165.737 87.2854L162.046 87.0684L165.737 75.7854H170.026L173.826 87.0684ZM168.723 82.566L167.854 78.9858L166.931 82.566H168.723Z" fill="white"/>
<path d="M181.697 83.7052L180.937 87.0142H174.26V75.7854L177.843 75.5142V83.7052H181.697Z" fill="white"/>
<path d="M189.786 83.9222L189.026 87.0141H182.566V75.7854H188.809L189.514 78.8231H186.094V79.908H188.32V82.7288H186.094V83.9222H189.786Z" fill="white"/>
</svg>
