<svg width="262" height="198" viewBox="0 0 262 198" fill="none" xmlns="http://www.w3.org/2000/svg">
<path d="M75.7696 109.833C75.7696 109.833 48.575 62.1212 9.99785 63.0193C-11.7018 104.052 30.2957 135.261 30.2957 135.261L76.835 146.881L75.7696 109.833Z" fill="#42A5F5"/>
<path d="M49.6964 79.017L42.1268 102.143L10.9511 63.0193C10.6146 63.0193 10.3343 63.0193 9.99786 63.0193C9.94179 63.1877 9.88572 63.3561 9.77357 63.4684L26.4829 84.4618L3.94215 83.3392C3.88607 83.5637 3.88607 83.7882 3.88607 84.0127L3.83 84.5741L27.4921 85.6967L55.3036 120.667L15.6611 119.993C15.9414 120.386 16.2779 120.779 16.5582 121.228L56.3129 121.846L76.05 146.656L76.835 146.881L76.7789 145.702L43.0239 103.266L50.7057 79.859C50.3693 79.5783 50.0329 79.2976 49.6964 79.017Z" fill="white"/>
<path d="M66.2936 134.307C66.2936 134.307 24.7446 114.998 2.59643 136.328C15.7171 197.736 94.7218 185.387 94.7218 185.387L66.2936 134.307Z" fill="#FFD247"/>
<path d="M2.59643 136.328C2.6525 136.552 2.70857 136.777 2.76464 137.001L60.7986 158.781L31.8657 176.069C32.2582 176.294 32.7068 176.518 33.0993 176.743L62.2564 159.286L84.9093 167.818L84.0121 166.19L39.8839 149.631L29.1182 126.336C28.6696 126.336 28.2771 126.336 27.8286 126.392L38.2579 149.014L3.10107 135.879C2.93286 135.991 2.76464 136.159 2.59643 136.328Z" fill="white"/>
<path d="M168.68 75.0316C168.68 75.0316 157.073 25.8599 187.296 4.47359C240.283 39.7245 205.519 91.8151 205.519 91.8151L168.68 75.0316Z" fill="#FFD247"/>
<path d="M187.296 4.47359C187.464 4.58585 187.632 4.69812 187.856 4.81038L186.567 64.3665L215.051 40.5665C215.163 40.9594 215.219 41.3524 215.331 41.7453L186.567 65.8259L186.174 83.0024L185.053 82.4972L185.782 48.2566L168.175 35.9637C168.231 35.5708 168.344 35.1778 168.456 34.7849L185.838 46.9094L186.735 4.86651C186.903 4.75425 187.071 4.58585 187.296 4.47359Z" fill="white"/>
<path d="M182.642 65.0962C182.642 65.0962 204.229 19.5731 239.61 17.7207C262.319 53.8137 225.985 85.2476 225.985 85.2476L184.156 99.0561L182.642 65.0962Z" fill="#67B8FA"/>
<path d="M204.397 35.1217L212.92 55.7222L238.769 17.7769C239.05 17.7769 239.33 17.7207 239.61 17.7207C239.723 17.833 239.779 18.0014 239.891 18.1698L226.041 38.4896L246.619 35.9075C246.619 36.1321 246.675 36.3005 246.675 36.525L246.731 37.0302L225.2 39.7245L202.099 73.5722L238.321 70.2604C238.096 70.6533 237.872 71.1024 237.592 71.4391L201.257 74.8071L184.885 98.8316L184.156 99.1123L184.1 97.9896L212.135 56.8448L203.5 35.9637C203.781 35.683 204.061 35.4024 204.397 35.1217Z" fill="#42A5F5"/>
<path d="M192.959 86.8755C192.959 86.8755 229.686 66.3311 251.441 84.3495C243.591 141.492 170.418 135.542 170.418 135.542L192.959 86.8755Z" fill="#11375B"/>
<path d="M251.441 84.3495C251.385 84.5741 251.329 84.7986 251.329 84.967L199.631 108.879L227.331 122.744C226.994 122.968 226.602 123.193 226.265 123.417L198.342 109.441L178.156 118.815L178.885 117.243L218.191 99.0561L226.434 76.9962C226.826 76.9962 227.219 76.9401 227.667 76.9401L219.649 98.4387L250.937 83.9566C251.105 84.0689 251.273 84.1811 251.441 84.3495Z" fill="#42A5F5"/>
<path d="M152.475 161.419L42.9118 161.531L8.98857 188.867H152.475V161.419Z" fill="#42A5F5"/>
<path d="M152.475 188.867H8.98857C8.98857 193.639 12.2407 197.512 16.3339 197.512H152.475V188.867Z" fill="#67B8FA"/>
<path d="M104.927 161.419L214.546 161.531L248.414 188.867H104.927V161.419Z" fill="#42A5F5"/>
<path d="M104.927 188.867H248.414C248.414 193.639 245.161 197.512 241.124 197.512H104.927V188.867Z" fill="#67B8FA"/>
<path d="M215.444 163.945H43.6968C41.9586 163.945 40.5568 162.542 40.5568 160.801V53.7014C40.5568 51.9613 41.9586 50.558 43.6968 50.558H215.444C217.182 50.558 218.584 51.9613 218.584 53.7014V160.801C218.584 162.485 217.182 163.945 215.444 163.945Z" fill="#67B8FA"/>
<path d="M208.491 154.964H50.5936C48.2946 154.964 46.3882 153.111 46.3882 150.754V61.2231C46.3882 58.9217 48.2946 57.0693 50.5936 57.0693H208.491C210.79 57.0693 212.64 58.9217 212.64 61.2231V150.754C212.64 153.111 210.79 154.964 208.491 154.964Z" fill="white"/>
<path d="M169.409 183.703H165.932C165.652 183.703 165.316 183.479 165.204 183.198L164.138 181.121C163.858 180.56 164.306 179.886 164.923 179.886H168.231C168.512 179.886 168.792 180.055 168.96 180.335L170.138 182.412C170.474 182.974 170.082 183.703 169.409 183.703Z" fill="white"/>
<path d="M176.642 183.703H173.278C172.997 183.703 172.717 183.535 172.549 183.254L171.315 181.177C170.979 180.616 171.371 179.886 172.044 179.886H175.24C175.521 179.886 175.801 180.055 175.913 180.279L177.371 182.356C177.708 182.917 177.315 183.703 176.642 183.703Z" fill="white"/>
<path d="M79.6386 169.333H71.9007C71.5082 169.333 71.2839 168.828 71.5643 168.548L73.1343 167.032C73.2464 166.92 73.3586 166.864 73.4707 166.864H80.9282C81.3768 166.864 81.545 167.369 81.3207 167.65L79.975 169.221C79.9189 169.277 79.8068 169.333 79.6386 169.333Z" fill="white"/>
<path d="M158.139 183.703H91.3014C90.7407 183.703 90.3482 183.086 90.6286 182.581L91.8621 180.279C92.0304 180.055 92.2546 179.886 92.535 179.886H157.241C157.522 179.886 157.802 180.111 157.914 180.392L158.868 182.637C159.036 183.142 158.699 183.703 158.139 183.703Z" fill="white"/>
<path d="M66.7421 169.333H59.1164C58.6679 169.333 58.4996 168.828 58.8361 168.548L60.7425 166.976C60.7986 166.92 60.9107 166.864 61.0229 166.864H68.3682C68.8168 166.864 68.985 167.425 68.7046 167.706L67.0225 169.221C66.9664 169.333 66.8543 169.333 66.7421 169.333Z" fill="white"/>
<path d="M106.16 169.333H98.1982C97.8057 169.333 97.5814 168.997 97.7496 168.66L98.6468 167.144C98.7029 166.976 98.8711 166.864 99.0393 166.864H106.777C107.114 166.864 107.338 167.2 107.226 167.537L106.609 169.053C106.553 169.221 106.385 169.333 106.16 169.333Z" fill="white"/>
<path d="M93.2639 169.333H85.4139C85.0214 169.333 84.7971 168.884 85.0214 168.604L86.1989 167.088C86.3111 166.976 86.4232 166.92 86.5914 166.92H94.2171C94.6096 166.92 94.8339 167.313 94.6096 167.593L93.6564 169.165C93.6004 169.277 93.4321 169.333 93.2639 169.333Z" fill="white"/>
<path d="M132.514 169.333H124.664C124.327 169.333 124.047 169.053 124.103 168.716L124.215 167.425C124.215 167.088 124.496 166.864 124.776 166.864H132.402C132.738 166.864 132.962 167.144 133.019 167.425L133.075 168.772C133.075 169.053 132.85 169.333 132.514 169.333Z" fill="white"/>
<path d="M119.786 169.333H111.711C111.375 169.333 111.151 169.053 111.263 168.772L111.767 167.2C111.824 167.032 111.992 166.864 112.216 166.864H120.01C120.29 166.864 120.515 167.144 120.459 167.425L120.234 168.941C120.178 169.165 120.01 169.333 119.786 169.333Z" fill="white"/>
<path d="M74.1996 175.733H65.4525C65.0039 175.733 64.8357 175.227 65.1161 174.947L67.2468 172.814C67.3029 172.758 67.4711 172.701 67.5832 172.701H75.9939C76.3864 172.701 76.6107 173.15 76.3304 173.487L74.5361 175.564C74.4239 175.676 74.3118 175.733 74.1996 175.733Z" fill="white"/>
<path d="M59.8454 175.733H51.2664C50.8179 175.733 50.6496 175.171 50.9861 174.891L53.5653 172.814C53.6214 172.758 53.7336 172.701 53.8457 172.701H62.0882C62.5368 172.701 62.705 173.207 62.4246 173.487L60.1818 175.62C60.0696 175.676 59.9575 175.733 59.8454 175.733Z" fill="white"/>
<path d="M103.637 175.733H94.6657C94.2732 175.733 94.0489 175.34 94.2171 175.059L95.3946 172.926C95.5068 172.814 95.6189 172.701 95.7871 172.701H104.478C104.815 172.701 105.039 173.038 104.871 173.319L104.03 175.452C103.974 175.62 103.805 175.733 103.637 175.733Z" fill="white"/>
<path d="M89.2829 175.733H80.4236C80.0311 175.733 79.8068 175.283 80.0871 175.003L81.7132 172.87C81.7693 172.758 81.9375 172.701 82.0496 172.701H90.6286C90.965 172.701 91.1893 173.094 91.0211 173.431L89.7314 175.508C89.6193 175.676 89.4511 175.733 89.2829 175.733Z" fill="white"/>
<path d="M132.85 175.733H124.047C123.711 175.733 123.43 175.452 123.486 175.115L123.655 173.207C123.655 172.926 123.935 172.701 124.215 172.701H132.794C133.075 172.701 133.299 172.926 133.355 173.263L133.467 175.115C133.467 175.452 133.187 175.733 132.85 175.733Z" fill="white"/>
<path d="M118.72 175.733H109.693C109.356 175.733 109.132 175.452 109.244 175.115L109.917 173.038C109.973 172.814 110.141 172.701 110.366 172.701H119.057C119.337 172.701 119.561 172.982 119.505 173.263L119.169 175.34C119.113 175.564 118.945 175.733 118.72 175.733Z" fill="white"/>
<path d="M177.708 169.333H185.445C185.838 169.333 186.062 168.828 185.726 168.548L184.212 167.032C184.1 166.92 183.988 166.864 183.875 166.864H176.362C175.969 166.864 175.745 167.369 176.025 167.65L177.315 169.221C177.427 169.277 177.539 169.333 177.708 169.333Z" fill="white"/>
<path d="M190.604 169.333H198.174C198.622 169.333 198.846 168.828 198.51 168.548L196.604 166.976C196.491 166.92 196.379 166.864 196.323 166.864H188.922C188.529 166.864 188.305 167.425 188.641 167.706L190.268 169.221C190.38 169.333 190.492 169.333 190.604 169.333Z" fill="white"/>
<path d="M151.186 169.333H159.148C159.484 169.333 159.709 168.997 159.54 168.66L158.699 167.144C158.643 166.976 158.475 166.864 158.307 166.864H150.569C150.232 166.864 150.008 167.2 150.12 167.537L150.737 169.053C150.793 169.221 150.961 169.333 151.186 169.333Z" fill="white"/>
<path d="M164.082 169.333H171.932C172.325 169.333 172.549 168.884 172.325 168.604L171.091 167.088C171.035 166.976 170.867 166.92 170.755 166.92H163.129C162.736 166.92 162.512 167.313 162.68 167.593L163.634 169.165C163.746 169.277 163.914 169.333 164.082 169.333Z" fill="white"/>
<path d="M137.56 169.333H145.635C145.915 169.333 146.195 169.053 146.083 168.772L145.579 167.2C145.523 167.032 145.354 166.864 145.13 166.864H137.336C137.056 166.864 136.831 167.144 136.831 167.425L137.112 168.941C137.168 169.165 137.336 169.333 137.56 169.333Z" fill="white"/>
<path d="M183.146 175.733H191.894C192.286 175.733 192.51 175.227 192.23 174.947L190.099 172.814C189.987 172.758 189.875 172.701 189.763 172.701H181.352C180.96 172.701 180.735 173.15 181.016 173.487L182.81 175.564C182.866 175.676 183.034 175.733 183.146 175.733Z" fill="white"/>
<path d="M197.501 175.733H206.08C206.528 175.733 206.696 175.171 206.36 174.891L203.781 172.814C203.669 172.758 203.612 172.701 203.5 172.701H195.202C194.809 172.701 194.585 173.207 194.921 173.487L197.164 175.62C197.276 175.676 197.389 175.733 197.501 175.733Z" fill="white"/>
<path d="M153.709 175.733H162.68C163.017 175.733 163.241 175.34 163.073 175.059L161.951 172.926C161.839 172.814 161.671 172.701 161.503 172.701H152.868C152.531 172.701 152.307 173.038 152.419 173.319L153.26 175.452C153.373 175.62 153.541 175.733 153.709 175.733Z" fill="white"/>
<path d="M168.007 175.733H176.866C177.259 175.733 177.483 175.283 177.259 175.003L175.633 172.87C175.521 172.758 175.409 172.701 175.24 172.701H166.718C166.381 172.701 166.157 173.094 166.325 173.431L167.615 175.508C167.727 175.676 167.839 175.733 168.007 175.733Z" fill="white"/>
<path d="M138.626 175.733H147.653C147.99 175.733 148.214 175.452 148.102 175.115L147.429 173.038C147.373 172.814 147.205 172.701 146.98 172.701H138.289C138.009 172.701 137.785 172.982 137.785 173.263L138.177 175.34C138.177 175.564 138.401 175.733 138.626 175.733Z" fill="white"/>
<path d="M54.1261 151.596L205.407 151.259V61.2792L54.1261 61.4476V67.959V151.596Z" fill="#11375B"/>
<path d="M54.1261 60.6618V72.8986H205.519L205.575 60.8863L54.1261 60.6618Z" fill="#FFD247"/>
<path d="M191.781 66.6679C191.557 68.2958 192.679 69.5868 194.305 69.5307C195.875 69.5307 197.332 68.2396 197.501 66.6118C197.725 64.984 196.604 63.6929 194.977 63.6929C193.407 63.7491 191.95 65.0401 191.781 66.6679Z" fill="white"/>
<path d="M183.539 66.7802C183.371 68.3519 184.492 69.6429 186.062 69.6429C187.632 69.6429 189.09 68.2958 189.258 66.7241C189.482 65.0962 188.361 63.8052 186.791 63.8052C185.221 63.8052 183.763 65.1524 183.539 66.7802Z" fill="#222C53"/>
<path d="M87.2643 8.12217L63.1536 3.18255L62.7611 1.72311" fill="#67B8FA"/>
<path d="M62.6489 7.33632L62.705 7.39245L63.8825 11.041L87.2082 8.12217L62.6489 7.33632Z" fill="#42A5F5"/>
<path d="M6.80179 55.2731C7.58679 54.9363 8.31572 54.5434 9.04464 54.1505C9.21286 54.0382 9.43714 54.0943 9.54929 54.2627C9.60536 54.4311 9.54929 54.6557 9.38107 54.7679C8.65214 55.1609 7.86714 55.5538 7.08214 55.8906C6.80179 56.0028 6.52143 56.1151 6.185 56.2274C6.12893 56.2835 6.01679 56.2274 5.90464 56.1712C5.84857 56.1712 5.7925 56.059 5.7925 56.0028C5.68036 55.8344 5.7925 55.6099 5.96072 55.5538C6.24107 55.4976 6.52143 55.3854 6.80179 55.2731Z" fill="#42A5F5"/>
<path d="M50.93 3.12642C52.0514 3.23868 53.1729 3.35095 54.4064 3.51934C54.5746 3.51934 54.7429 3.74387 54.6868 3.91227C54.6868 4.08066 54.5186 4.24906 54.2943 4.19293C53.0607 4.02453 51.9393 3.91227 50.8739 3.85614C50.8179 3.8 50.7618 3.8 50.7057 3.8C50.5936 3.68774 50.5375 3.57547 50.5936 3.46321C50.5936 3.29481 50.7618 3.12642 50.93 3.12642Z" fill="#42A5F5"/>
<path d="M45.2107 3.68773C45.0986 3.6316 45.0425 3.51934 45.0425 3.40707C45.0425 3.23868 45.1546 3.07028 45.3789 3.07028C46.4443 3.01415 47.6218 2.95802 48.8554 3.01415C49.0236 3.01415 49.1918 3.18255 49.1918 3.40707C49.1918 3.57547 49.0236 3.74387 48.8554 3.74387C47.6218 3.68773 46.5004 3.68773 45.3789 3.74387C45.3229 3.74387 45.2668 3.74387 45.2107 3.68773Z" fill="#42A5F5"/>
<path d="M13.3061 50.7264C13.4182 50.6141 13.6425 50.6141 13.7546 50.7264C13.9229 50.8387 13.9229 51.0632 13.8107 51.2316C12.9696 52.0736 12.1286 52.8594 11.1754 53.5892C11.0632 53.6453 10.895 53.6453 10.7829 53.5892C10.7268 53.5892 10.7268 53.533 10.6707 53.4769C10.5586 53.3646 10.6146 53.1401 10.7829 53.0278C11.68 52.3542 12.5211 51.5684 13.3061 50.7264Z" fill="#42A5F5"/>
<path d="M14.6518 49.6599C14.4836 49.5476 14.4836 49.3231 14.5957 49.1547C14.7639 48.9302 14.9321 48.7057 15.1004 48.425C15.5489 47.7514 15.9975 47.0217 16.3339 46.292C16.4461 46.1236 16.6143 46.0113 16.7825 46.1236C16.9507 46.1797 17.0629 46.4042 16.9507 46.5726C16.6143 47.3585 16.1657 48.0882 15.7171 48.8179C15.4929 49.0986 15.3246 49.3231 15.1564 49.6038C15.0443 49.716 14.82 49.7722 14.6518 49.6599Z" fill="#42A5F5"/>
<path d="M17.3432 44.8325C17.2871 44.8325 17.2871 44.8325 17.2871 44.7764C17.1189 44.7203 17.0629 44.5519 17.1189 44.3835C17.5114 43.3731 17.7918 42.3066 18.0161 41.0717C18.0721 40.9033 18.2404 40.791 18.4086 40.8472C18.6329 40.8472 18.745 41.0156 18.6889 41.2401C18.4646 42.475 18.1282 43.5976 17.7918 44.608C17.7357 44.7764 17.5114 44.8887 17.3432 44.8325Z" fill="#42A5F5"/>
<path d="M25.025 14.858C24.8007 15.1948 24.5204 15.5877 24.24 15.9245C23.9036 16.542 23.5111 17.1033 23.1746 17.7208C23.1186 17.8891 22.8943 17.9453 22.7261 17.833C22.7261 17.833 22.7261 17.833 22.67 17.833C22.5579 17.7208 22.5018 17.4962 22.6139 17.384C22.9504 16.7665 23.2868 16.1491 23.6793 15.5877C23.9596 15.1948 24.24 14.8019 24.5204 14.409C24.6325 14.2406 24.8007 14.1844 24.9689 14.3528C25.1371 14.4651 25.1371 14.6896 25.025 14.858Z" fill="#42A5F5"/>
<path d="M22.2775 19.517C21.7729 20.5835 21.3804 21.65 21.0439 22.7165C20.9879 22.8849 20.7636 22.9972 20.5954 22.941C20.5954 22.941 20.5393 22.941 20.5393 22.8849C20.3711 22.8288 20.315 22.6604 20.3711 22.5481C20.7075 21.4255 21.1561 20.3028 21.6046 19.2363C21.7168 19.0679 21.885 19.0118 22.1093 19.0679C22.2775 19.1241 22.3336 19.3486 22.2775 19.517Z" fill="#42A5F5"/>
<path d="M28.7257 10.7604C27.8846 11.5462 27.0436 12.3882 26.3146 13.2302C26.2025 13.3425 26.0343 13.3986 25.8661 13.2863C25.8661 13.2863 25.8661 13.2863 25.81 13.2863C25.6979 13.1179 25.6979 12.8934 25.81 12.7811C26.5389 11.883 27.38 11.041 28.2211 10.2552C28.3893 10.1429 28.6136 10.1429 28.7257 10.3113C28.8379 10.4236 28.8379 10.6481 28.7257 10.7604Z" fill="#42A5F5"/>
<path d="M34.8936 6.55047C34.7814 6.6066 34.6693 6.55047 34.5571 6.49434C34.5011 6.49434 34.445 6.43821 34.445 6.38207C34.3329 6.21368 34.3889 5.98915 34.5571 5.87688C35.6225 5.3717 36.6879 4.92264 37.8093 4.52972C37.9775 4.47358 38.2018 4.58585 38.2579 4.75424C38.3139 4.92264 38.2018 5.09104 38.0336 5.2033C36.9682 5.54009 35.9029 5.98915 34.8936 6.55047Z" fill="#42A5F5"/>
<path d="M19.1936 33.9429C19.0814 33.9429 19.0254 33.8868 19.0254 33.8868C18.9132 33.8307 18.8571 33.6623 18.8571 33.55V33.1009C18.9693 32.0906 19.0254 31.0802 19.0814 30.1259C19.0814 29.9014 19.2496 29.7891 19.4739 29.7891C19.6421 29.7891 19.8104 29.9575 19.7543 30.1821C19.6982 31.1925 19.6421 32.1467 19.5861 33.1571L19.53 33.6061C19.53 33.7745 19.3618 33.9429 19.1936 33.9429Z" fill="#42A5F5"/>
<path d="M30.2957 9.46934C30.1836 9.52547 30.0154 9.52547 29.8471 9.46934L29.7911 9.41321C29.6789 9.24481 29.6789 9.02028 29.8471 8.90802C30.8004 8.1783 31.7536 7.50471 32.7629 6.94339C32.9311 6.83113 33.0993 6.88726 33.2114 7.05566C33.3236 7.22405 33.2675 7.39245 33.0993 7.50471C32.1461 8.12217 31.1929 8.73962 30.2957 9.46934Z" fill="#42A5F5"/>
<path d="M19.0814 35.2901C19.2496 35.3462 19.4179 35.5146 19.4179 35.683C19.3057 37.0302 19.1936 38.1528 19.0254 39.1632C19.0254 39.3316 18.8571 39.5 18.6329 39.4439C18.5768 39.4439 18.5207 39.4439 18.5207 39.3877C18.4086 39.3316 18.3525 39.2193 18.3525 39.0509C18.4646 38.0406 18.5768 36.9741 18.6889 35.6269C18.6889 35.4585 18.8571 35.2901 19.0814 35.2901Z" fill="#42A5F5"/>
<path d="M3.99821 56.1712C4.2225 56.1151 4.39071 56.2274 4.44678 56.3958C4.50285 56.6203 4.39071 56.7887 4.16643 56.8448C3.10107 57.1255 1.97964 57.2939 0.746069 57.4623C0.633927 57.4623 0.577854 57.4623 0.521783 57.4061C0.40964 57.35 0.353569 57.2377 0.353569 57.1255C0.353569 56.9571 0.465712 56.7887 0.633926 56.7887C1.8675 56.6203 2.98893 56.3957 3.99821 56.1712Z" fill="#42A5F5"/>
<path d="M20.2589 24.2882C20.4271 24.3443 20.5954 24.5127 20.5393 24.6811C20.315 25.7476 20.1468 26.8703 19.9786 28.1052C19.9786 28.2736 19.7543 28.442 19.5861 28.3858C19.53 28.3858 19.4739 28.3858 19.4179 28.3297C19.3618 28.2736 19.2496 28.1613 19.3057 27.9929C19.4179 26.758 19.6421 25.6354 19.8664 24.5689C19.8664 24.4005 20.0907 24.2321 20.2589 24.2882Z" fill="#42A5F5"/>
<path d="M42.0707 3.40707C42.4632 3.35094 42.8557 3.29481 43.2482 3.23868C43.4725 3.23868 43.6407 3.35094 43.6407 3.57547C43.6968 3.74387 43.5286 3.91226 43.3604 3.96839C42.9679 3.96839 42.5754 4.02453 42.1829 4.13679C41.4539 4.24905 40.725 4.41745 39.9961 4.58585C39.8839 4.64198 39.7718 4.58585 39.7157 4.52972C39.6596 4.47358 39.6036 4.41745 39.5475 4.36132C39.5475 4.13679 39.6596 3.96839 39.8279 3.91226C40.5568 3.74386 41.2857 3.57547 42.0707 3.40707Z" fill="#42A5F5"/>
<path d="M110.254 63.6929H59.6771V69.6429H110.254V63.6929Z" fill="white"/>
<path d="M121.972 50.2774V42.4189C121.972 37.5354 125.954 33.4939 130.888 33.4939C137.616 33.4939 143.111 38.9387 143.111 45.6184V50.2774H121.972Z" fill="#42A5F5"/>
<path d="M210.902 81.4868H152.644V83.2269H210.902V81.4868Z" fill="#67B8FA"/>
<path d="M210.902 86.7632H152.644V88.5594H210.902V86.7632Z" fill="#67B8FA"/>
<path d="M210.902 92.3203H152.644V94.1165H210.902V92.3203Z" fill="#67B8FA"/>
<path d="M210.902 97.6528H152.644V99.3929H210.902V97.6528Z" fill="#67B8FA"/>
<path d="M223.854 152.55C210.397 152.55 158.251 152.55 158.251 152.55C158.251 152.55 171.54 149.8 167.11 133.465C187.408 133.465 236.919 133.465 236.919 133.465C236.919 133.465 241.349 152.55 223.854 152.55Z" fill="#42A5F5"/>
<path d="M256.712 73.516L258.899 77.7821L254.301 76.7717L238.545 71.7759L256.712 73.516Z" fill="#67B8FA"/>
<path d="M258.899 77.7821L251.049 77.333L253.011 76.3226L258.899 77.7821Z" fill="#42A5F5"/>
<path d="M257.161 82.1604C257.217 82.1042 257.273 82.1042 257.273 82.0481C257.441 81.9358 257.385 81.6552 257.273 81.5429C256.768 81.15 256.264 80.7571 255.703 80.4203C255.535 80.308 255.31 80.3641 255.198 80.5887C255.086 80.7571 255.142 80.9816 255.31 81.0939C255.815 81.3745 256.32 81.7113 256.768 82.1042C256.88 82.2165 257.049 82.2165 257.161 82.1604Z" fill="#42A5F5"/>
<path d="M251.441 122.407C251.329 122.183 251.385 121.958 251.554 121.902C252.563 121.284 253.46 120.499 254.245 119.544C254.413 119.376 254.637 119.376 254.806 119.488C254.918 119.6 254.974 119.825 254.862 119.993C253.965 121.06 253.011 121.902 251.946 122.519C251.778 122.632 251.554 122.575 251.441 122.407ZM255.647 118.253C255.479 118.141 255.422 117.917 255.479 117.748C256.095 116.682 256.544 115.559 256.824 114.38C256.88 114.212 257.105 114.1 257.273 114.156C257.497 114.212 257.609 114.38 257.553 114.605C257.217 115.84 256.768 117.018 256.151 118.141C256.095 118.197 256.039 118.253 255.983 118.253C255.871 118.309 255.759 118.309 255.647 118.253ZM257.497 112.64C257.329 112.64 257.161 112.472 257.161 112.247V112.079C257.217 110.956 257.161 109.833 256.992 108.655C256.992 108.43 257.105 108.262 257.329 108.206C257.497 108.206 257.721 108.318 257.721 108.542C257.89 109.721 258.002 110.956 257.946 112.135L257.89 112.303C257.89 112.472 257.834 112.584 257.721 112.64C257.665 112.64 257.553 112.64 257.497 112.64ZM256.992 106.746C256.824 106.802 256.6 106.69 256.544 106.466C256.264 105.399 255.871 104.22 255.366 103.042C255.254 102.817 255.366 102.592 255.535 102.536C255.759 102.48 255.983 102.536 256.039 102.761C256.544 103.94 256.936 105.175 257.273 106.297C257.329 106.466 257.217 106.634 257.049 106.746C257.049 106.746 257.049 106.746 256.992 106.746ZM254.918 101.189C254.75 101.301 254.525 101.189 254.413 101.021C254.413 100.908 254.357 100.852 254.301 100.74C253.909 100.908 253.516 101.021 253.124 101.133C252.899 101.189 252.731 101.077 252.675 100.908C252.619 100.684 252.731 100.459 252.899 100.403C253.292 100.347 253.628 100.235 253.965 100.067C253.572 99.3368 253.18 98.6071 252.675 97.7651C252.563 97.5967 252.619 97.3722 252.843 97.2599C253.011 97.1476 253.236 97.2038 253.348 97.3722C253.796 98.2703 254.245 99.0561 254.637 99.7858C255.198 99.5613 255.703 99.2807 256.151 98.9439C256.32 98.8316 256.6 98.8877 256.712 99.0561C256.824 99.2245 256.768 99.4491 256.6 99.5613C256.095 99.8981 255.535 100.179 254.974 100.459C255.03 100.516 255.086 100.628 255.086 100.684C255.198 100.852 255.142 101.077 254.918 101.189ZM257.834 98.1019C257.665 97.9335 257.665 97.709 257.834 97.5406C258.338 97.0354 258.787 96.4179 259.179 95.8005C259.404 95.4075 259.628 95.0146 259.796 94.6217C259.852 94.3972 260.076 94.341 260.245 94.3972C260.469 94.4533 260.525 94.6778 260.469 94.9024C260.301 95.3514 260.076 95.8005 259.796 96.1934C259.404 96.867 258.899 97.4844 258.338 98.1019L258.282 98.158C258.114 98.2142 257.946 98.2141 257.834 98.1019ZM250.881 101.526C249.535 101.638 248.245 101.582 247.068 101.245C246.844 101.189 246.731 101.021 246.787 100.796C246.844 100.628 247.012 100.459 247.236 100.516C248.357 100.852 249.591 100.908 250.825 100.796C250.993 100.796 251.161 100.965 251.217 101.133C251.217 101.301 251.105 101.414 250.993 101.526C250.937 101.526 250.881 101.526 250.881 101.526ZM260.693 92.9377C260.469 92.9377 260.357 92.7132 260.357 92.5448C260.581 91.366 260.581 90.1873 260.413 88.9524C260.357 88.7278 260.525 88.5594 260.693 88.5033C260.917 88.5033 261.086 88.6156 261.142 88.8401C261.31 90.1311 261.31 91.4222 261.086 92.6571C261.086 92.7693 261.03 92.8816 260.917 92.9377C260.805 92.9377 260.749 92.9939 260.693 92.9377ZM244.881 100.459C244.601 100.291 244.32 100.123 244.04 99.9542C243.255 99.3929 242.526 98.7193 241.965 97.9335C241.853 97.7651 241.853 97.5406 242.021 97.4283C242.19 97.316 242.414 97.3722 242.526 97.5406C243.031 98.2141 243.704 98.8316 244.432 99.3368C244.657 99.5052 244.937 99.6174 245.217 99.7858C245.386 99.8981 245.498 100.067 245.386 100.291C245.33 100.347 245.274 100.403 245.217 100.459C245.105 100.516 244.993 100.516 244.881 100.459ZM251.554 95.8566C250.769 94.6217 250.04 93.7797 249.255 93.05C249.142 92.9377 249.086 92.7132 249.255 92.5448C249.367 92.3764 249.591 92.3764 249.759 92.5448C250.544 93.2745 251.329 94.1726 252.17 95.4637C252.282 95.6321 252.226 95.8566 252.058 95.9689C252.058 95.9689 252.002 95.9689 252.002 96.025C251.834 96.0811 251.666 96.025 251.554 95.8566ZM260.357 87.1C260.189 87.1561 259.964 87.0439 259.908 86.8755C259.74 86.3141 259.516 85.809 259.235 85.3599C258.955 84.7425 258.619 84.1811 258.226 83.6759C258.114 83.5075 258.114 83.283 258.282 83.1708C258.45 83.0585 258.675 83.0585 258.787 83.2269C259.235 83.7882 259.572 84.4057 259.908 85.0231C260.189 85.5283 260.413 86.0335 260.581 86.5948C260.637 86.7632 260.581 86.9877 260.413 87.0439L260.357 87.1ZM241.349 96.0811C241.18 96.1373 240.956 96.025 240.9 95.8005C240.676 94.7901 240.788 93.7797 241.236 92.8816C241.405 92.5448 241.629 92.2642 241.853 92.0396C242.021 91.8712 242.246 91.8712 242.358 92.0396C242.526 92.1519 242.526 92.3764 242.358 92.5448C242.19 92.7693 242.021 92.9939 241.853 93.2184C241.517 93.9481 241.405 94.7901 241.629 95.6321C241.685 95.8005 241.573 95.9689 241.461 96.0811C241.405 96.0811 241.405 96.0811 241.349 96.0811ZM247.516 91.8712C246.507 91.4222 245.217 91.3099 244.152 91.5906C243.928 91.5906 243.76 91.4783 243.704 91.3099C243.647 91.0854 243.76 90.917 243.928 90.8608C245.217 90.5241 246.619 90.6925 247.797 91.1976C248.021 91.3099 248.077 91.5344 248.021 91.7028C247.965 91.759 247.909 91.8151 247.853 91.8712C247.741 91.9274 247.629 91.9274 247.516 91.8712Z" fill="#42A5F5"/>
<path d="M249.871 123.417C249.984 123.361 250.096 123.137 250.04 122.968C249.984 122.8 249.759 122.688 249.591 122.744C249.03 122.912 248.414 123.025 247.853 123.025C247.629 123.025 247.516 123.193 247.516 123.417C247.516 123.642 247.685 123.754 247.909 123.754C248.526 123.754 249.142 123.642 249.759 123.474C249.815 123.417 249.815 123.417 249.871 123.417Z" fill="#42A5F5"/>
<path d="M173.67 43.9344H152.588V72.8424H173.67V43.9344Z" fill="#42A5F5"/>
<path d="M173.67 72.7863C173.67 72.5057 173.67 72.2811 173.67 72.0005C173.67 65.8821 168.96 60.8863 163.129 60.8863C157.354 60.8863 152.644 65.8821 152.644 72.0005C152.644 72.2811 152.644 72.5057 152.644 72.7863H173.67Z" fill="#043C5E"/>
<path d="M164.531 60.3811C167.839 59.5953 169.857 56.3396 169.072 53.0278C168.287 49.7722 165.035 47.6953 161.727 48.4811C158.475 49.267 156.456 52.5788 157.241 55.8344C157.97 59.1462 161.279 61.167 164.531 60.3811Z" fill="#043C5E"/>
<path d="M210.005 52.8594H182.418C181.576 52.8594 180.904 52.1858 180.904 51.3439C180.904 50.5019 181.576 49.8283 182.418 49.8283H210.005C210.846 49.8283 211.519 50.5019 211.519 51.3439C211.519 52.1858 210.846 52.8594 210.005 52.8594Z" fill="#67B8FA"/>
<path d="M210.005 58.8656H182.418C181.576 58.8656 180.904 58.192 180.904 57.35C180.904 56.5642 181.576 55.8906 182.418 55.8906H210.005C210.846 55.8906 211.519 56.5642 211.519 57.35C211.519 58.192 210.846 58.8656 210.005 58.8656Z" fill="#42A5F5"/>
<path d="M210.005 64.8717H182.418C181.576 64.8717 180.904 64.1981 180.904 63.4123C180.904 62.5703 181.576 61.8967 182.418 61.8967H210.005C210.846 61.8967 211.519 62.5703 211.519 63.4123C211.519 64.1981 210.846 64.8717 210.005 64.8717Z" fill="#42A5F5"/>
<path d="M167.951 107.364H152.98V120.611H167.951V107.364Z" fill="#67B8FA"/>
<path d="M189.707 107.364H174.736V120.611H189.707V107.364Z" fill="#42A5F5"/>
<path d="M211.519 107.364H196.547V120.611H211.519V107.364Z" fill="#67B8FA"/>
<path d="M139.747 164.618C139.747 164.618 140.196 165.292 142.495 165.853C142.999 165.966 143.56 166.078 143.56 166.92C142.495 166.92 141.317 166.92 141.317 166.92L139.018 166.527V166.92H137.785C137.785 166.92 137.392 164.843 138.121 164.618C138.794 164.618 139.747 164.618 139.747 164.618Z" fill="#212B53"/>
<path d="M139.859 163.159L139.747 164.618C139.299 164.899 138.682 164.955 138.233 164.675L138.121 164.618V163.159H139.859Z" fill="#3F3B3B"/>
<path d="M128.252 164.899C128.252 164.899 128.701 165.573 131 166.134C131.505 166.246 132.009 166.358 132.009 167.2C130.944 167.2 129.766 167.2 129.766 167.2L127.467 166.808V167.2H126.234C126.234 167.2 125.897 165.18 126.626 164.899C127.299 164.899 128.252 164.899 128.252 164.899Z" fill="#212B53"/>
<path d="M128.365 163.44L128.253 164.899C127.748 165.236 127.187 165.236 126.682 164.955L126.626 164.899V163.44H128.365Z" fill="#3F3B3B"/>
<path d="M140.756 127.347L140.196 163.945H137.56C137.56 163.945 133.467 134.363 134.364 127.347C135.205 120.274 140.756 127.347 140.756 127.347Z" fill="#212B53"/>
<path d="M137.953 127.291C137.953 127.291 137.056 138.573 134.925 144.804C132.794 151.034 128.925 163.945 128.925 163.945H126.178C126.178 163.945 130.776 136.945 129.71 127.291H137.953Z" fill="#212B53"/>
<path d="M140.364 108.655C140.364 108.655 143.616 116.345 144.457 116.345C145.13 116.345 144.233 110.114 144.233 110.114H146.98C146.98 110.114 150.457 120.835 147.653 122.8C144.906 124.765 138.906 117.243 138.906 117.243L140.364 108.655Z" fill="#67B8FA"/>
<path d="M130.551 128.301L131.561 130.771C132.065 131.725 133.804 131.725 134.981 131.444C135.149 131.388 135.205 131.164 135.093 131.051C134.42 130.322 132.794 128.525 132.177 128.133L130.551 128.301Z" fill="#3F3B3B"/>
<path d="M138.906 107.083C138.906 107.083 140.588 108.262 140.588 109.609C140.588 110.956 140.588 127.291 140.588 127.291H130.551V110.732C130.551 110.732 130.776 107.083 134.364 107.083C137.953 107.083 138.906 107.083 138.906 107.083Z" fill="#67B8FA"/>
<path d="M140.42 127.347V111.405H140.756V127.347H140.42Z" fill="#93CFC7"/>
<path d="M135.261 103.154V107.308C135.261 107.308 135.934 108.262 137.168 108.262C138.458 108.262 138.457 107.364 138.457 107.364V104.669L136.607 104.22L135.261 103.154Z" fill="#3F3B3B"/>
<path d="M138.626 105.455C139.018 105.455 139.355 105.399 139.523 105.231C140.644 103.491 139.411 98.6632 139.411 98.6632L135.318 99.3929L135.205 102.592C135.205 103.491 135.542 104.276 136.215 104.838C136.944 105.287 137.785 105.511 138.626 105.455Z" fill="#3F3B3B"/>
<path d="M137.224 99.5052C137.224 99.5052 138.57 99.7297 139.971 99.5052C141.429 99.2245 140.532 97.6528 140.532 97.6528C140.532 97.6528 139.467 98.158 137.616 97.8774C136.383 97.709 136.046 97.4283 135.205 97.8774C134.14 98.4387 134.364 100.459 134.364 100.459L134.981 104.613H135.205C135.205 104.613 135.261 102.143 135.261 101.301C135.486 100.908 135.766 100.908 135.934 101.021C136.159 101.133 136.271 101.358 136.271 101.582V105.904C136.271 105.904 139.074 107.083 139.747 106.915C140.476 106.69 139.971 103.434 139.971 103.434C139.971 103.434 139.186 103.098 138.57 103.827C137.953 104.501 137.168 103.771 137.168 103.771L137.224 99.5052Z" fill="#212B53"/>
<path d="M146.42 110.058L146.364 109.553C146.139 108.374 145.018 106.915 143.896 106.522H142.719L143.111 109.048L144.738 110.058H146.42Z" fill="#3F3B3B"/>
<path d="M135.598 100.908C135.934 100.852 136.215 101.133 136.271 101.526C136.327 101.919 136.103 102.256 135.822 102.312C135.486 102.312 135.205 102.031 135.149 101.638C135.093 101.245 135.318 100.908 135.598 100.908Z" fill="#3F3B3B"/>
<path d="M143.56 108.767L145.859 110.114C145.859 110.114 144.401 110.058 144.401 110.114L141.99 108.093C141.99 108.093 142.158 107.7 142.719 108.037C143.224 108.318 143.56 108.767 143.56 108.767Z" fill="#3F3B3B"/>
<path d="M131.617 108.15C131.617 108.15 125.954 114.492 125.954 118.253C125.954 122.07 130.551 128.75 130.551 128.75L132.85 128.076C132.85 128.076 130.776 119.825 130.776 117.636C130.776 115.447 134.981 112.191 134.981 112.191" fill="#67B8FA"/>
<path d="M130.944 117.636C130.944 119.488 132.626 126.449 133.019 128.02C132.906 128.076 132.85 128.076 132.682 128.133C132.177 126.112 130.607 119.488 130.607 117.636C130.607 115.334 134.701 112.191 134.925 112.079L135.093 112.303C135.037 112.359 130.944 115.503 130.944 117.636Z" fill="#93CFC7"/>
<path d="M142.046 104.613C142.046 104.613 141.597 107.083 143.111 109.048C143.167 109.16 143.336 109.272 143.504 109.272C143.84 109.328 144.121 109.216 144.289 109.16C144.569 109.048 144.681 108.935 144.794 108.823C144.85 108.711 144.794 108.599 144.737 108.486C144.457 108.037 143.504 106.466 143.896 105.062C143.111 104.389 142.046 104.613 142.046 104.613Z" fill="#F59C42"/>
<path d="M144.513 109.048C144.681 108.992 144.737 108.935 144.794 108.823C144.85 108.711 144.794 108.599 144.737 108.486C144.401 108.037 143.504 106.466 143.896 105.062C143.616 104.838 143.336 104.725 142.999 104.669C142.999 106.185 143.28 107.195 144.513 109.048Z" fill="#FAB746"/>
<path d="M143.392 106.634C143.448 106.971 143.616 107.251 143.784 107.251C143.896 107.195 143.952 106.915 143.896 106.522C143.84 106.185 143.672 105.96 143.504 105.96C143.392 106.017 143.336 106.297 143.392 106.634Z" fill="#F59C42"/>
<path d="M143.504 105.96H143.617V106.017L143.504 106.073V105.96Z" fill="#F59C42"/>
<path d="M143.728 107.251L143.896 107.195H143.728V107.251Z" fill="#E8375E"/>
<path d="M143.504 106.634C143.56 106.971 143.728 107.251 143.896 107.195C144.009 107.195 144.065 106.858 144.009 106.522C143.953 106.185 143.784 105.904 143.616 105.96C143.504 105.96 143.448 106.297 143.504 106.634Z" fill="#FFD247"/>
<path d="M141.429 102.592H141.149C140.644 102.592 140.252 102.985 140.252 103.434V104.164C140.252 104.669 140.644 105.062 141.149 105.062H141.429V102.592Z" fill="#FFD247"/>
<path d="M149.672 103.266C149.672 105.231 149.223 106.746 148.663 106.746C148.102 106.746 147.653 105.175 147.653 103.266C147.653 101.358 148.102 99.7858 148.663 99.7858C149.223 99.7858 149.672 101.358 149.672 103.266Z" fill="#212B53"/>
<path d="M147.653 101.975L148.438 102.48V103.603L147.597 104.333L147.317 102.873L147.653 101.975Z" fill="white"/>
<path d="M147.653 103.266C147.653 101.638 147.99 100.291 148.438 99.8981C145.13 102.256 141.261 102.592 141.261 102.592V105.062C141.261 105.062 146.476 104.782 148.438 106.634C147.99 106.241 147.653 104.894 147.653 103.266Z" fill="#F7A605"/>
<path d="M148.55 103.042C148.55 103.378 148.494 103.603 148.438 103.603C148.382 103.603 148.326 103.378 148.326 103.042C148.326 102.761 148.382 102.48 148.438 102.48C148.494 102.48 148.55 102.761 148.55 103.042Z" fill="#FFD247"/>
<path d="M145.186 108.262C145.13 108.318 144.794 108.486 143.896 108.486C143.224 108.486 142.943 107.644 142.831 107.195C142.775 107.083 142.775 106.858 142.943 106.746L144.009 106.578L145.186 108.262Z" fill="#3F3B3B"/>
<path d="M207.818 124.54L200.753 134.588L203.164 135.43L209.892 130.546L209.612 127.122L207.818 124.54Z" fill="#3F3B3B"/>
<path d="M209.332 119.769C206.136 122.014 208.603 141.717 208.603 141.717L221.387 139.247C221.387 139.247 220.378 119.264 209.332 119.769Z" fill="#67B8FA"/>
<path d="M210.958 119.825L209.724 117.973L207.537 119.151L208.266 121.565C208.322 121.565 208.322 121.621 208.322 121.621C209.051 120.835 210.005 120.218 210.958 119.825Z" fill="#3F3B3B"/>
<path d="M209.5 113.594L210.117 116.962C209.78 117.018 209.668 117.411 209.78 117.748C209.78 117.804 209.78 117.917 209.78 117.973C209.332 118.534 208.379 119.32 206.977 119.376C204.79 119.488 205.07 115.054 205.07 115.054L209.5 113.594Z" fill="#3F3B3B"/>
<path d="M211.126 115.84C211.126 115.615 211.294 114.998 211.462 114.773C212.416 113.482 211.182 112.977 210.734 112.808C210.229 112.64 210.173 111.854 209.5 111.574C208.547 111.125 207.874 111.967 207.313 111.967C206.752 112.023 206.304 111.405 205.575 111.91C204.902 112.472 205.126 113.089 204.958 113.37C204.734 113.707 204.117 113.089 203.556 114.1C202.715 115.615 205.07 115.615 205.07 115.615C205.07 115.615 206.416 115.84 207.93 114.773C208.098 114.661 208.379 114.661 208.603 114.773C209.107 115.222 209.78 118.029 209.78 118.029L210.173 117.467C210.173 117.467 211.35 116.962 211.126 115.84Z" fill="#212B53"/>
<path d="M209.949 116.401C209.892 116.682 209.612 116.906 209.332 116.85C209.051 116.794 208.827 116.513 208.883 116.233C208.939 115.952 209.22 115.783 209.5 115.783C209.78 115.84 210.005 116.12 209.949 116.401Z" fill="#3F3B3B"/>
<path d="M232.714 162.261C232.714 162.261 233.723 163.383 234.34 165.853C234.508 166.415 234.284 166.976 235.181 166.976C235.181 165.853 235.181 163.945 235.181 163.945L234.788 161.475H235.181V160.072C235.181 160.072 232.994 159.735 232.714 160.521C232.714 161.25 232.714 162.261 232.714 162.261Z" fill="#212B53"/>
<path d="M231.088 161.98L232.714 162.261C233.05 161.756 233.05 161.138 232.77 160.577L232.714 160.521L231.088 160.128V161.98Z" fill="#3F3B3B"/>
<path d="M211.911 174.105C211.911 174.105 211.911 175.789 208.491 176.799C207.818 177.024 208.042 177.248 207.874 177.529C208.995 177.529 211.799 177.529 211.799 177.529L213.369 175.789L213.817 176.182L214.939 175.115C214.939 175.115 214.434 173.543 213.537 173.543C212.864 173.768 211.911 174.105 211.911 174.105Z" fill="#212B53"/>
<path d="M211.294 172.645L211.911 174.105C212.472 174.273 213.089 174.049 213.481 173.6L213.593 173.543L213.032 172.028L211.294 172.645Z" fill="#3F3B3B"/>
<path d="M221.107 143.625C221.107 143.625 220.939 148.677 219.032 153.055C218.415 154.402 219.2 155.974 220.658 156.255C227.611 157.714 231.536 160.072 231.536 160.072V162.485L215.331 160.24C212.696 159.903 210.678 157.826 210.397 155.188L209.893 150.136L221.107 143.625Z" fill="#212B53"/>
<path d="M209.388 142.895C209.388 142.895 203.781 153.448 203.781 156.704C203.781 159.959 211.35 172.701 211.35 172.701H213.481C213.481 172.701 213.145 164.618 211.687 157.939C211.35 156.648 211.799 155.244 212.752 154.346C217.35 150.024 221.387 142.895 221.387 142.895H209.388Z" fill="#043C5E"/>
<path d="M176.53 130.715C176.081 131.893 176.754 131.725 177.932 133.633L239.218 154.571C240.395 154.964 241.685 154.346 242.078 153.167L243.423 149.238C243.816 148.059 243.199 146.768 242.021 146.319L180.735 125.382C179.558 124.989 179.558 126.842 179.165 128.076L176.53 130.715Z" fill="#FFD247"/>
<path d="M242.694 151.427L242.077 153.167C241.685 154.346 240.395 154.964 239.218 154.571L177.932 133.633C176.754 133.184 177.091 128.975 177.091 128.975L242.694 151.427Z" fill="#FAB746"/>
<path d="M233.442 150.192L234.788 146.263C235.181 145.084 236.47 144.467 237.704 144.86L242.021 146.319C243.199 146.768 243.816 148.059 243.423 149.238L242.694 151.427L242.077 153.167C241.685 154.346 240.395 154.964 239.218 154.571L234.844 153.111C233.667 152.662 233.05 151.371 233.442 150.192Z" fill="#043C5E"/>
<path d="M173.502 126.842L171.54 127.01L173.054 128.357L173.839 127.852L173.502 126.842Z" fill="#212B53"/>
<path d="M173.054 128.357C173.222 128.189 173.334 127.964 173.446 127.74C173.446 127.683 173.446 127.683 173.446 127.627C173.502 127.515 173.502 127.403 173.502 127.234C173.502 127.178 173.502 127.122 173.502 127.066C173.502 127.01 173.502 126.898 173.502 126.842L180.455 125.27L178.997 129.536L177.651 133.521L173.054 128.357Z" fill="#F7A605"/>
<path d="M218.303 126.336L213.874 129.087L217.07 132.735L217.518 143.176L219.256 142.839C219.256 142.839 221.948 134.812 221.387 132.006C220.882 129.255 218.303 126.336 218.303 126.336Z" fill="#3F3B3B"/>
<path d="M217.518 143.176V145.253C217.518 145.59 217.63 145.926 217.799 146.207C218.191 146.712 218.808 147.498 219.369 147.386C220.21 147.217 221.219 145.253 221.219 145.253L219.256 142.839L217.518 143.176Z" fill="#3F3B3B"/>
<path d="M81.4329 75.3123L81.7693 77.1085C81.2086 77.5014 80.4796 77.5014 79.9189 77.1646L79.8068 77.1085L79.3582 75.3123H81.4329Z" fill="#3F3B3B"/>
<path d="M67.3029 34.4481C68.8729 39.6684 74.1436 47.583 74.1436 47.583L69.9943 45.8991L67.0225 39.1071C67.0225 39.1071 65.7329 29.284 67.3029 34.4481Z" fill="#F7A605"/>
<path d="M78.5732 55.2731L81.8814 75.4807H78.9657C78.9657 75.4807 72.4054 57.2939 71.7325 51.9613C71.7325 48.9302 78.3489 51.9613 78.3489 51.9613L78.5732 55.2731Z" fill="#212B53"/>
<path d="M67.7514 26.309L66.6861 29.1156L64.3311 27.4316L65.9011 24.0637L67.7514 26.309Z" fill="#3F3B3B"/>
<path d="M68.6486 26.758C68.985 26.8142 69.3214 26.8703 69.5457 26.758C70.8914 25.4109 70.6111 21.0887 70.6111 21.0887L69.0411 20.0222L66.6861 20.9203L65.9571 23.6146C65.7889 24.3443 65.9571 25.1302 66.5179 25.7476C67.0786 26.2528 67.8636 26.6458 68.6486 26.758Z" fill="#3F3B3B"/>
<path d="M67.0786 21.8184C67.3029 21.3693 67.8075 21.2009 68.2561 21.3693C68.5925 21.4816 68.985 21.5939 69.3775 21.7061C70.3307 21.8745 72.0689 21.8745 72.4054 20.4151C72.6857 19.0118 70.8354 19.1241 70.8354 19.1241L68.3682 19.2925C67.5832 19.3486 66.8543 19.1802 66.1814 18.8995C65.6207 18.6189 65.06 19.1802 64.9479 19.5731C64.6675 20.359 64.9479 21.7623 65.2282 22.6604C65.3404 23.1656 65.5646 23.6708 65.9011 24.0637L67.0786 21.8184Z" fill="#212B53"/>
<path d="M65.6768 22.4358C65.9571 22.3236 66.2936 22.4358 66.5739 22.7165C66.7982 22.9972 66.7421 23.334 66.5179 23.5024C66.2375 23.6146 65.9011 23.5024 65.6207 23.2217C65.3964 22.941 65.4525 22.6042 65.6768 22.4358Z" fill="#3F3B3B"/>
<path d="M81.8254 76.9401C81.8254 76.9401 81.8254 78.7925 85.5821 79.9151C86.3671 80.1396 86.0868 80.3641 86.255 80.7009C85.0214 80.7009 81.8814 80.7009 81.8814 80.7009L80.1993 78.7925L79.6946 79.2415L78.4611 78.0627C78.4611 78.0627 78.6854 76.3226 79.5825 76.2665C80.3675 76.5472 81.8254 76.9401 81.8254 76.9401Z" fill="#212B53"/>
<path d="M71.1157 74.8071L70.3868 76.4349C69.77 76.6033 69.0411 76.3788 68.6486 75.8736L68.5364 75.7613L69.0971 74.1335L71.1157 74.8071Z" fill="#3F3B3B"/>
<path d="M67.1907 28.3297C67.1907 28.3297 67.4711 27.8807 64.8357 26.4774C60.7986 30.5189 59.4529 45.8991 59.4529 45.8991C59.4529 45.8991 68.8729 45.8991 69.9943 45.8991C70.3307 37.0863 67.1907 28.3297 67.1907 28.3297Z" fill="#42A5F5"/>
<path d="M77.5639 45.5061C77.62 45.2816 77.5079 45.0571 77.3396 45.0009L75.6014 43.9906C75.2089 43.7099 74.7043 43.6538 74.1996 43.766L72.3493 43.8222L72.125 44.1028L71.7325 45.7868C72.125 45.6745 72.3493 45.6184 72.3493 45.6184L73.5268 45.6745C73.5268 45.6745 75.7136 47.6953 76.835 45.8991C76.8911 47.8637 77.4518 47.6953 77.4518 47.6953L77.5639 45.5061Z" fill="#3F3B3B"/>
<path d="M59.4529 45.8991L59.3407 47.1901V47.2462C59.0604 49.716 60.6864 52.0736 63.0975 52.7472C63.0975 52.7472 67.8636 54.3189 73.9193 54.6557C69.9382 59.7075 68.8168 74.0212 68.8168 74.0212L71.3961 74.9193L81.2646 51.4561C81.8814 49.9406 80.9843 48.2566 79.4143 47.8637L69.9943 45.8991H59.4529Z" fill="#11375B"/>
<path d="M66.0693 33.3255C66.0693 33.3255 64.1068 35.1217 62.9293 36.9741C62.5929 37.4792 62.6489 38.1528 63.0414 38.6019C65.2282 41.1278 73.0221 43.5415 73.0221 43.5415L72.5175 46.4042C72.5175 46.4042 61.4714 44.2151 57.5464 40.2858C53.5654 36.2443 63.9386 27.8245 63.9386 27.8245" fill="#42A5F5"/>
<path d="M63.0414 37.0863C62.7611 37.5354 62.8171 38.0967 63.1536 38.4896C64.1629 39.6684 66.8543 40.9033 69.1532 41.8014C69.1532 41.9137 69.1532 41.9137 69.1532 42.0821C66.7421 41.184 64.0507 39.9491 62.9293 38.7142C62.4807 38.209 62.4246 37.4792 62.8171 36.9179C63.9386 35.0656 65.9011 33.2693 65.9571 33.2132L66.1254 33.4377C66.1254 33.4939 64.2189 35.2901 63.0414 37.0863Z" fill="#67B8FA"/>
<path d="M59.8454 41.8575C64.1068 44.159 70.3307 45.7868 72.5736 46.292C72.5175 46.4042 72.5175 46.5165 72.5175 46.5726C70.3307 46.1236 64.1629 44.5519 59.8454 42.2505C59.8454 42.0821 59.8454 41.9698 59.8454 41.8575Z" fill="#67B8FA"/>
<path d="M81.7132 48.9302L84.9654 37.1986L84.3486 37.0302L81.2646 48.2005L71.8446 46.5726L71.7325 47.1901L81.7132 48.9302Z" fill="#67B8FA"/>
<path d="M70.555 76.042C70.555 76.042 70.3868 77.9505 74.1436 79.0731C74.9286 79.2976 74.7043 79.5222 74.8164 79.859C73.5829 79.859 70.4989 79.859 70.4989 79.859L68.8168 77.9505L68.2561 78.3995L67.0225 77.2208C67.0225 77.2208 67.6393 75.4807 68.5364 75.4245C69.3214 75.7052 70.555 76.042 70.555 76.042Z" fill="#212B53"/>
<path d="M110.31 93.2184L105.88 104.782L103.076 102.705L109.3 92.208L110.31 93.2184Z" fill="#3F3B3B"/>
<path d="M109.749 89.7382C109.469 90.075 109.356 90.5241 109.356 90.917L109.188 92.601L109.412 92.8816L110.197 93.5552C110.141 93.2184 110.085 93.5552 110.085 93.5552L111.375 91.366C111.375 91.366 112.889 90.4118 110.983 88.9524C110.814 88.8401 110.534 88.784 110.366 88.8962C109.861 89.233 109.749 89.7382 109.749 89.7382Z" fill="#3F3B3B"/>
<path d="M100.553 113.145C103.693 108.879 105.88 104.782 105.88 104.782L103.469 102.087L100.553 105.511V113.145Z" fill="#42A5F5"/>
<path d="M93.6004 163.327L95.0021 163.608C95.3386 161.812 99.7121 153.56 100.049 149.238C100.441 144.467 101.562 139.134 101.562 139.134L96.8525 137.731C96.8525 137.731 95.675 137.731 96.9646 147.498C94.0489 151.315 93.2079 160.128 93.6004 163.327Z" fill="#3F3B3B"/>
<path d="M97.0768 134.195C97.0768 134.195 98.1982 140.818 99.7121 147.947C98.1421 152.269 100.553 164.282 100.609 164.282C100.834 164.057 101.675 165.124 101.675 165.124C101.675 165.124 103.469 154.515 103.861 149.743C104.254 144.972 104.31 139.134 104.31 139.134L97.0768 134.195Z" fill="#3F3B3B"/>
<path d="M100.441 163.608C100.441 163.608 99.7682 164.169 99.8804 164.899C99.9925 165.629 100.161 167.313 100.161 167.313H100.89L100.834 165.741C100.834 165.629 102.347 167.313 102.572 167.313H106.216C106.216 167.313 106.441 166.246 104.31 165.909C102.179 165.573 100.441 163.608 100.441 163.608Z" fill="#043C5E"/>
<path d="M95.1704 162.373L95.1143 163.889C95.0582 164.225 95.1703 164.506 95.3386 164.787C95.5628 165.067 95.8993 165.46 96.46 165.909C95.3946 166.302 94.4414 165.067 93.9368 164.282C93.6564 163.889 93.6003 163.44 93.6564 162.991L93.8246 161.812L95.1704 162.373Z" fill="#3F3B3B"/>
<path d="M93.6004 163.215C93.6004 163.215 92.7032 163.271 92.535 164.001C92.3668 164.731 91.9182 166.134 91.9182 166.134L92.4229 166.527L93.1518 165.124C93.1518 165.124 94.7218 167.2 94.9461 167.313H98.9271C98.9271 167.313 98.9271 165.966 96.46 165.909C94.1611 165.853 93.6004 163.215 93.6004 163.215Z" fill="#212B53"/>
<path d="M101.562 107.083H98.7029L99.8804 103.715L102.067 105.062L101.562 107.083Z" fill="#3F3B3B"/>
<path d="M120.403 63.1877L112.216 84.2373L116.029 85.7528L124.215 64.6472L120.403 63.1877Z" fill="#42A5F5"/>
<path opacity="0.3" d="M112.945 84.5741L112.833 84.5179C112.833 84.5179 119.786 64.6472 121.019 63.4123C122.253 62.1774 124.72 61.5038 122.365 63.9175C119.954 66.3873 112.945 84.5741 112.945 84.5741Z" fill="white"/>
<path d="M122.477 16.2613C127.299 16.2052 132.121 16.0929 136.944 16.7104C137.729 16.7665 140.981 16.8788 138.794 16.8788C139.355 17.0472 139.915 17.2156 140.476 17.4401C142.214 18.7311 143.728 20.3028 145.635 21.4255C147.373 22.492 149.223 23.2778 151.074 23.783C157.241 30.9679 159.372 41.184 155.728 50.6142C151.242 62.0651 139.691 68.5764 128.028 67.1731C127.187 66.6118 126.234 66.1627 125.225 65.8259C124.888 65.6014 124.552 65.4892 124.215 65.3769C122.87 64.591 121.524 63.8052 120.122 63.2439C118.608 62.6264 117.094 62.2896 115.524 62.1774C106.272 55.2731 102.347 42.8118 106.721 31.5292C109.581 24.0637 115.468 18.7311 122.477 16.2613Z" fill="#42A5F5"/>
<path d="M131.617 66.6118C129.935 65.6576 128.084 65.0962 126.122 64.9278C124.832 64.9278 123.542 64.8156 122.253 64.6472C122.197 64.591 122.141 64.591 122.085 64.591L140.7 16.5981C153.148 22.4358 159.092 36.9741 154.045 49.9406C150.289 59.6514 141.373 65.8821 131.617 66.6118Z" fill="#67B8FA"/>
<path d="M106.721 31.5292C101.45 45.0571 108.123 60.325 121.692 65.5453C135.205 70.8217 150.457 64.142 155.728 50.6141C160.998 37.0302 154.27 21.8184 140.756 16.542C127.187 11.2656 111.992 17.9453 106.721 31.5292ZM109.469 32.5958C114.123 20.5274 127.692 14.5774 139.691 19.2925C151.69 23.9514 157.634 37.4792 152.98 49.4915C148.27 61.5599 134.757 67.5099 122.757 62.7948C110.758 58.1358 104.815 44.608 109.469 32.5958Z" fill="#212B53"/>
<path d="M104.366 105.624L113.394 78.6802C113.618 78.0066 114.347 77.6698 114.964 77.9505L118.216 79.1854C118.833 79.4099 119.169 80.1958 118.889 80.8693L111.655 99.3929C110.59 97.709 106.665 106.129 104.366 105.624Z" fill="#67B8FA"/>
<path d="M101.338 108.262L113.394 78.7363C113.618 78.0627 114.235 77.7259 114.851 77.8943C114.795 78.5118 107.17 100.852 104.03 110.563C103.357 110.226 102.179 108.43 101.338 108.262Z" fill="#42A5F5"/>
<path d="M126.682 30.1821C126.01 31.9222 124.047 32.8203 122.309 32.1467C120.571 31.4731 119.674 29.5085 120.346 27.7684C121.019 26.0283 122.982 25.1302 124.776 25.8038C126.514 26.4774 127.355 28.442 126.682 30.1821Z" fill="white"/>
<path d="M120.01 34.1675C119.73 35.0094 118.776 35.4585 117.935 35.1217C117.094 34.7849 116.702 33.8307 117.038 33.0448C117.375 32.2028 118.272 31.7538 119.113 32.0906C119.954 32.4274 120.346 33.3816 120.01 34.1675Z" fill="white"/>
<path d="M105.375 110.675C105.319 110.619 105.319 110.507 105.319 110.451C108.123 106.802 110.534 104.22 110.534 104.22L108.123 101.526L102.684 106.69H101.058C101.058 106.69 98.9271 105.287 97.0207 107.195C96.3479 107.925 95.8432 109.89 96.3479 111.91C97.5814 117.524 96.6282 120.499 96.6282 120.499L103.974 123.249C103.974 123.249 104.142 118.366 104.254 114.942C104.254 114.268 104.478 113.594 104.815 113.033C105.263 112.359 105.487 111.574 105.375 110.675Z" fill="#42A5F5"/>
<path d="M114.964 92.6571L110.534 104.22L107.73 102.143L113.954 91.6467L114.964 92.6571Z" fill="#3F3B3B"/>
<path d="M114.403 89.1769C114.122 89.5137 114.01 89.9627 114.01 90.3557L113.786 92.0396L114.066 92.3203L114.851 92.9939C114.795 92.6571 114.739 92.9939 114.739 92.9939L116.029 90.8047C116.029 90.8047 117.543 89.8505 115.636 88.391C115.412 88.2788 115.188 88.2226 114.964 88.3349C114.515 88.6717 114.403 89.1769 114.403 89.1769Z" fill="#3F3B3B"/>
<path d="M104.142 120.33C104.142 120.33 105.095 125.326 105.095 128.301C105.095 129.929 104.703 140.201 104.703 140.201C104.703 140.201 97.6936 140.706 96.3479 140.706C96.0114 132.286 94.105 132.062 94.105 128.133C94.105 126.392 94.9461 124.484 95.6189 123.249C96.1236 122.351 96.4039 121.733 96.6282 120.499L96.6843 120.33H104.142Z" fill="#FFD247"/>
<path d="M102.572 97.709L97.9179 99.3368L98.3664 102.817C98.3664 102.873 98.3664 102.929 98.3664 102.985C98.4786 102.985 98.5346 102.985 98.6468 103.042H98.7029C98.7029 103.042 98.7029 103.042 98.7589 103.042C99.8243 103.322 100.609 104.22 100.946 105.231C101.619 105.343 102.291 105.343 102.964 105.231C103.413 105.118 103.805 104.95 104.03 104.725C104.983 102.592 102.572 97.709 102.572 97.709Z" fill="#3F3B3B"/>
<path d="M102.46 100.684C101.226 101.301 101.506 107.757 101.282 112.191C101.17 114.549 99.3757 116.513 97.0207 116.906C95.3946 117.187 93.5443 117.187 92.4229 116.569C93.1518 116.008 97.0768 110.17 95.8432 102.536C95.675 101.526 95.675 98.7193 97.3571 97.1476C99.2636 95.4637 103.132 97.709 103.132 97.709C103.132 97.709 104.198 99.842 102.46 100.684Z" fill="#212B53"/>
<path d="M59.8454 176.069H65.3404C66.0693 176.125 66.9104 176.35 67.0225 176.967C67.0225 176.967 67.1346 177.417 67.1346 177.809C66.9104 178.034 59.6211 177.809 59.6211 177.809V177.753C58.8361 176.799 59.8454 176.069 59.8454 176.069Z" fill="#11375B"/>
<path d="M67.1346 177.809L59.6211 177.753L59.6771 178.09H67.1346V177.809Z" fill="#212B53"/>
<path d="M62.0321 176.069H62.5368L62.3686 176.743H61.92L62.0321 176.069Z" fill="white"/>
<path d="M63.0975 176.069H63.6021L63.4339 176.743H62.9854L63.0975 176.069Z" fill="white"/>
<path d="M59.5089 174.217L59.8454 176.069C60.2939 176.294 60.8546 176.294 61.3593 176.069H61.4154L61.6957 174.217H59.5089Z" fill="#3F3B3B"/>
<path d="M47.005 176.069H52.5C53.2289 176.125 54.07 176.35 54.1821 176.967C54.1821 176.967 54.2943 177.417 54.2382 177.809C54.07 178.034 46.7807 177.809 46.7807 177.809L46.7246 177.753C45.9957 176.799 47.005 176.069 47.005 176.069Z" fill="#212B53"/>
<path d="M54.2382 177.809L46.7807 177.753L46.8368 178.09H54.2943L54.2382 177.809Z" fill="#212B53"/>
<path d="M49.1918 176.069H49.6964L49.5282 176.743H49.0236L49.1918 176.069Z" fill="white"/>
<path d="M50.2571 176.069H50.7618L50.5936 176.743H50.0889L50.2571 176.069Z" fill="white"/>
<path d="M47.2293 174.217L47.005 176.069C47.4536 176.294 48.0143 176.294 48.4629 176.069H48.575L49.4161 174.217H47.2293Z" fill="#3F3B3B"/>
<path d="M55.4718 112.528L50.93 115.447L52.3318 119.039C52.3318 119.095 52.3879 119.151 52.3879 119.208C52.5 119.208 52.5561 119.208 52.6682 119.208C52.7243 119.208 52.7243 119.208 52.7243 119.208H52.7804C54.0139 119.208 55.0232 119.937 55.64 120.948C56.425 120.892 57.1539 120.723 57.8268 120.386C58.2754 120.162 58.6679 119.881 58.8361 119.6C59.2846 117.075 55.4718 112.528 55.4718 112.528Z" fill="#3F3B3B"/>
<path d="M61.1911 113.426C61.1911 113.426 61.7518 118.702 60.6304 122.07C61.1911 122.519 63.0975 124.54 63.6582 121.902C64.275 119.264 62.9854 112.528 62.9854 112.528L61.1911 113.426Z" fill="#3F3B3B"/>
<path d="M58.4996 113.089L57.4343 113.763L57.8268 114.549L58.9482 114.043L58.4996 113.089Z" fill="#212B53"/>
<path d="M57.8829 114.043C57.995 114.268 57.995 114.492 57.8829 114.549C57.7707 114.605 57.6025 114.436 57.4904 114.156C57.4343 113.931 57.3782 113.707 57.4904 113.65C57.6025 113.594 57.7707 113.763 57.8829 114.043Z" fill="#212B53"/>
<path d="M71.34 109.16C71.1718 108.711 70.8354 107.981 70.3307 107.308C69.5457 106.241 69.3214 105.68 69.3214 105.68L58.3314 112.921L59.0604 114.268L71.34 109.665C71.34 109.497 71.34 109.328 71.34 109.16Z" fill="#FFD247"/>
<path d="M54.4625 120.948L54.07 123.417H57.5464L57.8268 120.386L54.4625 120.948Z" fill="#3F3B3B"/>
<path d="M63.49 127.066C63.49 127.066 67.6393 125.775 68.9289 123.979C70.2186 122.239 68.0318 112.528 68.0318 112.528L68.3121 110.788C68.4804 109.777 67.7514 108.879 66.7421 108.879H65.6207C65.1721 108.879 64.8357 109.328 65.06 109.777L66.5179 113.033C66.5179 113.033 67.5832 120.386 66.0693 120.948C64.2189 121.621 62.2004 121.733 62.2004 121.733L63.49 127.066Z" fill="#3F3B3B"/>
<path d="M55.6961 120.948L54.6307 118.59L55.3596 118.141C55.8643 117.804 56.0886 117.187 55.8643 116.625L55.1354 114.38C55.1354 114.38 57.2661 114.156 57.21 112.135C57.21 111.068 55.8082 111.068 55.8082 111.068C55.8082 111.068 55.3596 112.023 54.07 112.135C53.5093 112.023 51.9393 112.247 50.8739 114.1C50.145 115.334 50.4814 117.243 51.0982 118.702C51.6589 119.993 53.0607 120.723 54.4625 120.948H55.6961Z" fill="#212B53"/>
<path d="M51.4907 140.818C51.4907 140.818 51.715 145.814 52.8364 151.315C53.1168 152.887 53.0046 154.571 52.5 156.142C50.0329 163.496 46.5564 174.554 46.5564 174.554H49.6404C49.6404 174.554 56.6493 161.475 58.4436 154.964C60.2379 148.508 60.5182 146.432 60.5182 146.432L58.3875 140.818H51.4907Z" fill="#212B53"/>
<path d="M54.07 117.467C53.9579 117.86 54.2382 118.366 54.6307 118.59C55.0793 118.815 55.5839 118.702 55.6961 118.309C55.8082 117.973 55.5839 117.467 55.1354 117.243C54.6868 117.018 54.2382 117.131 54.07 117.467Z" fill="#3F3B3B"/>
<path d="M61.5836 140.818H51.4907V127.908C51.4907 125.045 53.6775 122.688 56.4811 122.463L63.49 121.621C63.49 121.621 64.275 122.856 66.5739 125.775C63.8264 127.459 60.6304 128.245 60.6304 128.245L61.5836 140.818Z" fill="#67B8FA"/>
<path d="M51.4907 140.818C51.4907 140.818 52.9486 145.926 58.1632 151.708C59.0604 152.55 60.2939 154.402 60.1257 156.928L59.0604 174.554H62.1443C62.1443 174.554 65.9571 159.959 65.1721 152.718C64.3311 145.533 61.5836 140.818 61.5836 140.818H51.4907Z" fill="#11375B"/>
<path d="M69.6579 107.981C70.2186 109.104 70.9475 109.89 71.2839 109.721C71.6764 109.553 71.5082 108.486 71.0036 107.364C70.4429 106.241 69.7139 105.455 69.3775 105.624C68.985 105.792 69.1532 106.858 69.6579 107.981Z" fill="white"/>
<path d="M60.7986 111.293L60.8546 111.349C61.1911 111.517 61.5836 111.517 61.92 111.405H61.9761C62.5368 111.181 62.9854 110.732 63.1536 110.17C63.2657 109.946 63.0414 109.665 62.7611 109.721L62.0882 109.89C61.8079 109.946 61.5836 110.114 61.4154 110.339L60.7986 111.293Z" fill="#3F3B3B"/>
</svg>
